<?xml version="1.0" encoding="UTF-8" standalone="no"?>
<!DOCTYPE svg PUBLIC "-//W3C//DTD SVG 1.1//EN" "http://www.w3.org/Graphics/SVG/1.1/DTD/svg11.dtd">
<svg xmlns:xlink="http://www.w3.org/1999/xlink" width="460.8pt" height="345.6pt" viewBox="0 0 460.8 345.6" xmlns="http://www.w3.org/2000/svg" version="1.1">
 <metadata>
  <rdf:RDF xmlns:dc="http://purl.org/dc/elements/1.1/" xmlns:cc="http://creativecommons.org/ns#" xmlns:rdf="http://www.w3.org/1999/02/22-rdf-syntax-ns#">
   <cc:Work>
    <dc:type rdf:resource="http://purl.org/dc/dcmitype/StillImage"/>
    <dc:date>2025-03-22T23:31:46.772574</dc:date>
    <dc:format>image/svg+xml</dc:format>
    <dc:creator>
     <cc:Agent>
      <dc:title>Matplotlib v3.10.0, https://matplotlib.org/</dc:title>
     </cc:Agent>
    </dc:creator>
   </cc:Work>
  </rdf:RDF>
 </metadata>
 <defs>
  <style type="text/css">*{stroke-linejoin: round; stroke-linecap: butt}</style>
 </defs>
 <g id="figure_1">
  <g id="patch_1">
   <path d="M 0 345.6  L 460.8 345.6  L 460.8 0  L 0 0  z " style="fill: #ffffff"/>
  </g>
  <g id="axes_1">
   <g id="patch_2">
    <path d="M 57.6 307.584  L 414.72 307.584  L 414.72 41.472  L 57.6 41.472  z " style="fill: #ffffff"/>
   </g>
   <g id="matplotlib.axis_1">
    <g id="xtick_1">
     <g id="line2d_1">
      <defs>
       <path id="mbb1618e630" d="M 0 0  L 0 3.5  " style="stroke: #000000; stroke-width: 0.8"/>
      </defs>
      <g>
       <use xlink:href="#mbb1618e630" x="59.976125" y="307.584" style="stroke: #000000; stroke-width: 0.8"/>
      </g>
     </g>
     <g id="text_1">
      <!-- 324.6 -->
      <g transform="translate(45.662063 322.182437) scale(0.1 -0.1)">
       <defs>
        <path id="DejaVuSans-33" d="M 2597 2516  Q 3050 2419 3304 2112  Q 3559 1806 3559 1356  Q 3559 666 3084 287  Q 2609 -91 1734 -91  Q 1441 -91 1130 -33  Q 819 25 488 141  L 488 750  Q 750 597 1062 519  Q 1375 441 1716 441  Q 2309 441 2620 675  Q 2931 909 2931 1356  Q 2931 1769 2642 2001  Q 2353 2234 1838 2234  L 1294 2234  L 1294 2753  L 1863 2753  Q 2328 2753 2575 2939  Q 2822 3125 2822 3475  Q 2822 3834 2567 4026  Q 2313 4219 1838 4219  Q 1578 4219 1281 4162  Q 984 4106 628 3988  L 628 4550  Q 988 4650 1302 4700  Q 1616 4750 1894 4750  Q 2613 4750 3031 4423  Q 3450 4097 3450 3541  Q 3450 3153 3228 2886  Q 3006 2619 2597 2516  z " transform="scale(0.015625)"/>
        <path id="DejaVuSans-32" d="M 1228 531  L 3431 531  L 3431 0  L 469 0  L 469 531  Q 828 903 1448 1529  Q 2069 2156 2228 2338  Q 2531 2678 2651 2914  Q 2772 3150 2772 3378  Q 2772 3750 2511 3984  Q 2250 4219 1831 4219  Q 1534 4219 1204 4116  Q 875 4013 500 3803  L 500 4441  Q 881 4594 1212 4672  Q 1544 4750 1819 4750  Q 2544 4750 2975 4387  Q 3406 4025 3406 3419  Q 3406 3131 3298 2873  Q 3191 2616 2906 2266  Q 2828 2175 2409 1742  Q 1991 1309 1228 531  z " transform="scale(0.015625)"/>
        <path id="DejaVuSans-34" d="M 2419 4116  L 825 1625  L 2419 1625  L 2419 4116  z M 2253 4666  L 3047 4666  L 3047 1625  L 3713 1625  L 3713 1100  L 3047 1100  L 3047 0  L 2419 0  L 2419 1100  L 313 1100  L 313 1709  L 2253 4666  z " transform="scale(0.015625)"/>
        <path id="DejaVuSans-2e" d="M 684 794  L 1344 794  L 1344 0  L 684 0  L 684 794  z " transform="scale(0.015625)"/>
        <path id="DejaVuSans-36" d="M 2113 2584  Q 1688 2584 1439 2293  Q 1191 2003 1191 1497  Q 1191 994 1439 701  Q 1688 409 2113 409  Q 2538 409 2786 701  Q 3034 994 3034 1497  Q 3034 2003 2786 2293  Q 2538 2584 2113 2584  z M 3366 4563  L 3366 3988  Q 3128 4100 2886 4159  Q 2644 4219 2406 4219  Q 1781 4219 1451 3797  Q 1122 3375 1075 2522  Q 1259 2794 1537 2939  Q 1816 3084 2150 3084  Q 2853 3084 3261 2657  Q 3669 2231 3669 1497  Q 3669 778 3244 343  Q 2819 -91 2113 -91  Q 1303 -91 875 529  Q 447 1150 447 2328  Q 447 3434 972 4092  Q 1497 4750 2381 4750  Q 2619 4750 2861 4703  Q 3103 4656 3366 4563  z " transform="scale(0.015625)"/>
       </defs>
       <use xlink:href="#DejaVuSans-33"/>
       <use xlink:href="#DejaVuSans-32" transform="translate(63.623047 0)"/>
       <use xlink:href="#DejaVuSans-34" transform="translate(127.246094 0)"/>
       <use xlink:href="#DejaVuSans-2e" transform="translate(190.869141 0)"/>
       <use xlink:href="#DejaVuSans-36" transform="translate(222.65625 0)"/>
      </g>
     </g>
    </g>
    <g id="xtick_2">
     <g id="line2d_2">
      <g>
       <use xlink:href="#mbb1618e630" x="102.604085" y="307.584" style="stroke: #000000; stroke-width: 0.8"/>
      </g>
     </g>
     <g id="text_2">
      <!-- 324.7 -->
      <g transform="translate(88.290023 322.182437) scale(0.1 -0.1)">
       <defs>
        <path id="DejaVuSans-37" d="M 525 4666  L 3525 4666  L 3525 4397  L 1831 0  L 1172 0  L 2766 4134  L 525 4134  L 525 4666  z " transform="scale(0.015625)"/>
       </defs>
       <use xlink:href="#DejaVuSans-33"/>
       <use xlink:href="#DejaVuSans-32" transform="translate(63.623047 0)"/>
       <use xlink:href="#DejaVuSans-34" transform="translate(127.246094 0)"/>
       <use xlink:href="#DejaVuSans-2e" transform="translate(190.869141 0)"/>
       <use xlink:href="#DejaVuSans-37" transform="translate(222.65625 0)"/>
      </g>
     </g>
    </g>
    <g id="xtick_3">
     <g id="line2d_3">
      <g>
       <use xlink:href="#mbb1618e630" x="145.232046" y="307.584" style="stroke: #000000; stroke-width: 0.8"/>
      </g>
     </g>
     <g id="text_3">
      <!-- 324.8 -->
      <g transform="translate(130.917983 322.182437) scale(0.1 -0.1)">
       <defs>
        <path id="DejaVuSans-38" d="M 2034 2216  Q 1584 2216 1326 1975  Q 1069 1734 1069 1313  Q 1069 891 1326 650  Q 1584 409 2034 409  Q 2484 409 2743 651  Q 3003 894 3003 1313  Q 3003 1734 2745 1975  Q 2488 2216 2034 2216  z M 1403 2484  Q 997 2584 770 2862  Q 544 3141 544 3541  Q 544 4100 942 4425  Q 1341 4750 2034 4750  Q 2731 4750 3128 4425  Q 3525 4100 3525 3541  Q 3525 3141 3298 2862  Q 3072 2584 2669 2484  Q 3125 2378 3379 2068  Q 3634 1759 3634 1313  Q 3634 634 3220 271  Q 2806 -91 2034 -91  Q 1263 -91 848 271  Q 434 634 434 1313  Q 434 1759 690 2068  Q 947 2378 1403 2484  z M 1172 3481  Q 1172 3119 1398 2916  Q 1625 2713 2034 2713  Q 2441 2713 2670 2916  Q 2900 3119 2900 3481  Q 2900 3844 2670 4047  Q 2441 4250 2034 4250  Q 1625 4250 1398 4047  Q 1172 3844 1172 3481  z " transform="scale(0.015625)"/>
       </defs>
       <use xlink:href="#DejaVuSans-33"/>
       <use xlink:href="#DejaVuSans-32" transform="translate(63.623047 0)"/>
       <use xlink:href="#DejaVuSans-34" transform="translate(127.246094 0)"/>
       <use xlink:href="#DejaVuSans-2e" transform="translate(190.869141 0)"/>
       <use xlink:href="#DejaVuSans-38" transform="translate(222.65625 0)"/>
      </g>
     </g>
    </g>
    <g id="xtick_4">
     <g id="line2d_4">
      <g>
       <use xlink:href="#mbb1618e630" x="187.860006" y="307.584" style="stroke: #000000; stroke-width: 0.8"/>
      </g>
     </g>
     <g id="text_4">
      <!-- 324.9 -->
      <g transform="translate(173.545943 322.182437) scale(0.1 -0.1)">
       <defs>
        <path id="DejaVuSans-39" d="M 703 97  L 703 672  Q 941 559 1184 500  Q 1428 441 1663 441  Q 2288 441 2617 861  Q 2947 1281 2994 2138  Q 2813 1869 2534 1725  Q 2256 1581 1919 1581  Q 1219 1581 811 2004  Q 403 2428 403 3163  Q 403 3881 828 4315  Q 1253 4750 1959 4750  Q 2769 4750 3195 4129  Q 3622 3509 3622 2328  Q 3622 1225 3098 567  Q 2575 -91 1691 -91  Q 1453 -91 1209 -44  Q 966 3 703 97  z M 1959 2075  Q 2384 2075 2632 2365  Q 2881 2656 2881 3163  Q 2881 3666 2632 3958  Q 2384 4250 1959 4250  Q 1534 4250 1286 3958  Q 1038 3666 1038 3163  Q 1038 2656 1286 2365  Q 1534 2075 1959 2075  z " transform="scale(0.015625)"/>
       </defs>
       <use xlink:href="#DejaVuSans-33"/>
       <use xlink:href="#DejaVuSans-32" transform="translate(63.623047 0)"/>
       <use xlink:href="#DejaVuSans-34" transform="translate(127.246094 0)"/>
       <use xlink:href="#DejaVuSans-2e" transform="translate(190.869141 0)"/>
       <use xlink:href="#DejaVuSans-39" transform="translate(222.65625 0)"/>
      </g>
     </g>
    </g>
    <g id="xtick_5">
     <g id="line2d_5">
      <g>
       <use xlink:href="#mbb1618e630" x="230.487966" y="307.584" style="stroke: #000000; stroke-width: 0.8"/>
      </g>
     </g>
     <g id="text_5">
      <!-- 325.0 -->
      <g transform="translate(216.173904 322.182437) scale(0.1 -0.1)">
       <defs>
        <path id="DejaVuSans-35" d="M 691 4666  L 3169 4666  L 3169 4134  L 1269 4134  L 1269 2991  Q 1406 3038 1543 3061  Q 1681 3084 1819 3084  Q 2600 3084 3056 2656  Q 3513 2228 3513 1497  Q 3513 744 3044 326  Q 2575 -91 1722 -91  Q 1428 -91 1123 -41  Q 819 9 494 109  L 494 744  Q 775 591 1075 516  Q 1375 441 1709 441  Q 2250 441 2565 725  Q 2881 1009 2881 1497  Q 2881 1984 2565 2268  Q 2250 2553 1709 2553  Q 1456 2553 1204 2497  Q 953 2441 691 2322  L 691 4666  z " transform="scale(0.015625)"/>
        <path id="DejaVuSans-30" d="M 2034 4250  Q 1547 4250 1301 3770  Q 1056 3291 1056 2328  Q 1056 1369 1301 889  Q 1547 409 2034 409  Q 2525 409 2770 889  Q 3016 1369 3016 2328  Q 3016 3291 2770 3770  Q 2525 4250 2034 4250  z M 2034 4750  Q 2819 4750 3233 4129  Q 3647 3509 3647 2328  Q 3647 1150 3233 529  Q 2819 -91 2034 -91  Q 1250 -91 836 529  Q 422 1150 422 2328  Q 422 3509 836 4129  Q 1250 4750 2034 4750  z " transform="scale(0.015625)"/>
       </defs>
       <use xlink:href="#DejaVuSans-33"/>
       <use xlink:href="#DejaVuSans-32" transform="translate(63.623047 0)"/>
       <use xlink:href="#DejaVuSans-35" transform="translate(127.246094 0)"/>
       <use xlink:href="#DejaVuSans-2e" transform="translate(190.869141 0)"/>
       <use xlink:href="#DejaVuSans-30" transform="translate(222.65625 0)"/>
      </g>
     </g>
    </g>
    <g id="xtick_6">
     <g id="line2d_6">
      <g>
       <use xlink:href="#mbb1618e630" x="273.115927" y="307.584" style="stroke: #000000; stroke-width: 0.8"/>
      </g>
     </g>
     <g id="text_6">
      <!-- 325.1 -->
      <g transform="translate(258.801864 322.182437) scale(0.1 -0.1)">
       <defs>
        <path id="DejaVuSans-31" d="M 794 531  L 1825 531  L 1825 4091  L 703 3866  L 703 4441  L 1819 4666  L 2450 4666  L 2450 531  L 3481 531  L 3481 0  L 794 0  L 794 531  z " transform="scale(0.015625)"/>
       </defs>
       <use xlink:href="#DejaVuSans-33"/>
       <use xlink:href="#DejaVuSans-32" transform="translate(63.623047 0)"/>
       <use xlink:href="#DejaVuSans-35" transform="translate(127.246094 0)"/>
       <use xlink:href="#DejaVuSans-2e" transform="translate(190.869141 0)"/>
       <use xlink:href="#DejaVuSans-31" transform="translate(222.65625 0)"/>
      </g>
     </g>
    </g>
    <g id="xtick_7">
     <g id="line2d_7">
      <g>
       <use xlink:href="#mbb1618e630" x="315.743887" y="307.584" style="stroke: #000000; stroke-width: 0.8"/>
      </g>
     </g>
     <g id="text_7">
      <!-- 325.2 -->
      <g transform="translate(301.429824 322.182437) scale(0.1 -0.1)">
       <use xlink:href="#DejaVuSans-33"/>
       <use xlink:href="#DejaVuSans-32" transform="translate(63.623047 0)"/>
       <use xlink:href="#DejaVuSans-35" transform="translate(127.246094 0)"/>
       <use xlink:href="#DejaVuSans-2e" transform="translate(190.869141 0)"/>
       <use xlink:href="#DejaVuSans-32" transform="translate(222.65625 0)"/>
      </g>
     </g>
    </g>
    <g id="xtick_8">
     <g id="line2d_8">
      <g>
       <use xlink:href="#mbb1618e630" x="358.371847" y="307.584" style="stroke: #000000; stroke-width: 0.8"/>
      </g>
     </g>
     <g id="text_8">
      <!-- 325.3 -->
      <g transform="translate(344.057785 322.182437) scale(0.1 -0.1)">
       <use xlink:href="#DejaVuSans-33"/>
       <use xlink:href="#DejaVuSans-32" transform="translate(63.623047 0)"/>
       <use xlink:href="#DejaVuSans-35" transform="translate(127.246094 0)"/>
       <use xlink:href="#DejaVuSans-2e" transform="translate(190.869141 0)"/>
       <use xlink:href="#DejaVuSans-33" transform="translate(222.65625 0)"/>
      </g>
     </g>
    </g>
    <g id="xtick_9">
     <g id="line2d_9">
      <g>
       <use xlink:href="#mbb1618e630" x="400.999807" y="307.584" style="stroke: #000000; stroke-width: 0.8"/>
      </g>
     </g>
     <g id="text_9">
      <!-- 325.4 -->
      <g transform="translate(386.685745 322.182437) scale(0.1 -0.1)">
       <use xlink:href="#DejaVuSans-33"/>
       <use xlink:href="#DejaVuSans-32" transform="translate(63.623047 0)"/>
       <use xlink:href="#DejaVuSans-35" transform="translate(127.246094 0)"/>
       <use xlink:href="#DejaVuSans-2e" transform="translate(190.869141 0)"/>
       <use xlink:href="#DejaVuSans-34" transform="translate(222.65625 0)"/>
      </g>
     </g>
    </g>
    <g id="text_10">
     <!-- Time [s] -->
     <g transform="translate(215.831094 335.860562) scale(0.1 -0.1)">
      <defs>
       <path id="DejaVuSans-54" d="M -19 4666  L 3928 4666  L 3928 4134  L 2272 4134  L 2272 0  L 1638 0  L 1638 4134  L -19 4134  L -19 4666  z " transform="scale(0.015625)"/>
       <path id="DejaVuSans-69" d="M 603 3500  L 1178 3500  L 1178 0  L 603 0  L 603 3500  z M 603 4863  L 1178 4863  L 1178 4134  L 603 4134  L 603 4863  z " transform="scale(0.015625)"/>
       <path id="DejaVuSans-6d" d="M 3328 2828  Q 3544 3216 3844 3400  Q 4144 3584 4550 3584  Q 5097 3584 5394 3201  Q 5691 2819 5691 2113  L 5691 0  L 5113 0  L 5113 2094  Q 5113 2597 4934 2840  Q 4756 3084 4391 3084  Q 3944 3084 3684 2787  Q 3425 2491 3425 1978  L 3425 0  L 2847 0  L 2847 2094  Q 2847 2600 2669 2842  Q 2491 3084 2119 3084  Q 1678 3084 1418 2786  Q 1159 2488 1159 1978  L 1159 0  L 581 0  L 581 3500  L 1159 3500  L 1159 2956  Q 1356 3278 1631 3431  Q 1906 3584 2284 3584  Q 2666 3584 2933 3390  Q 3200 3197 3328 2828  z " transform="scale(0.015625)"/>
       <path id="DejaVuSans-65" d="M 3597 1894  L 3597 1613  L 953 1613  Q 991 1019 1311 708  Q 1631 397 2203 397  Q 2534 397 2845 478  Q 3156 559 3463 722  L 3463 178  Q 3153 47 2828 -22  Q 2503 -91 2169 -91  Q 1331 -91 842 396  Q 353 884 353 1716  Q 353 2575 817 3079  Q 1281 3584 2069 3584  Q 2775 3584 3186 3129  Q 3597 2675 3597 1894  z M 3022 2063  Q 3016 2534 2758 2815  Q 2500 3097 2075 3097  Q 1594 3097 1305 2825  Q 1016 2553 972 2059  L 3022 2063  z " transform="scale(0.015625)"/>
       <path id="DejaVuSans-20" transform="scale(0.015625)"/>
       <path id="DejaVuSans-5b" d="M 550 4863  L 1875 4863  L 1875 4416  L 1125 4416  L 1125 -397  L 1875 -397  L 1875 -844  L 550 -844  L 550 4863  z " transform="scale(0.015625)"/>
       <path id="DejaVuSans-73" d="M 2834 3397  L 2834 2853  Q 2591 2978 2328 3040  Q 2066 3103 1784 3103  Q 1356 3103 1142 2972  Q 928 2841 928 2578  Q 928 2378 1081 2264  Q 1234 2150 1697 2047  L 1894 2003  Q 2506 1872 2764 1633  Q 3022 1394 3022 966  Q 3022 478 2636 193  Q 2250 -91 1575 -91  Q 1294 -91 989 -36  Q 684 19 347 128  L 347 722  Q 666 556 975 473  Q 1284 391 1588 391  Q 1994 391 2212 530  Q 2431 669 2431 922  Q 2431 1156 2273 1281  Q 2116 1406 1581 1522  L 1381 1569  Q 847 1681 609 1914  Q 372 2147 372 2553  Q 372 3047 722 3315  Q 1072 3584 1716 3584  Q 2034 3584 2315 3537  Q 2597 3491 2834 3397  z " transform="scale(0.015625)"/>
       <path id="DejaVuSans-5d" d="M 1947 4863  L 1947 -844  L 622 -844  L 622 -397  L 1369 -397  L 1369 4416  L 622 4416  L 622 4863  L 1947 4863  z " transform="scale(0.015625)"/>
      </defs>
      <use xlink:href="#DejaVuSans-54"/>
      <use xlink:href="#DejaVuSans-69" transform="translate(57.958984 0)"/>
      <use xlink:href="#DejaVuSans-6d" transform="translate(85.742188 0)"/>
      <use xlink:href="#DejaVuSans-65" transform="translate(183.154297 0)"/>
      <use xlink:href="#DejaVuSans-20" transform="translate(244.677734 0)"/>
      <use xlink:href="#DejaVuSans-5b" transform="translate(276.464844 0)"/>
      <use xlink:href="#DejaVuSans-73" transform="translate(315.478516 0)"/>
      <use xlink:href="#DejaVuSans-5d" transform="translate(367.578125 0)"/>
     </g>
    </g>
   </g>
   <g id="matplotlib.axis_2">
    <g id="ytick_1">
     <g id="line2d_10">
      <defs>
       <path id="m24fab2a302" d="M 0 0  L -3.5 0  " style="stroke: #000000; stroke-width: 0.8"/>
      </defs>
      <g>
       <use xlink:href="#m24fab2a302" x="57.6" y="289.223499" style="stroke: #000000; stroke-width: 0.8"/>
      </g>
     </g>
     <g id="text_11">
      <!-- −20 -->
      <g transform="translate(29.495313 293.022718) scale(0.1 -0.1)">
       <defs>
        <path id="DejaVuSans-2212" d="M 678 2272  L 4684 2272  L 4684 1741  L 678 1741  L 678 2272  z " transform="scale(0.015625)"/>
       </defs>
       <use xlink:href="#DejaVuSans-2212"/>
       <use xlink:href="#DejaVuSans-32" transform="translate(83.789062 0)"/>
       <use xlink:href="#DejaVuSans-30" transform="translate(147.412109 0)"/>
      </g>
     </g>
    </g>
    <g id="ytick_2">
     <g id="line2d_11">
      <g>
       <use xlink:href="#m24fab2a302" x="57.6" y="231.935221" style="stroke: #000000; stroke-width: 0.8"/>
      </g>
     </g>
     <g id="text_12">
      <!-- −10 -->
      <g transform="translate(29.495313 235.73444) scale(0.1 -0.1)">
       <use xlink:href="#DejaVuSans-2212"/>
       <use xlink:href="#DejaVuSans-31" transform="translate(83.789062 0)"/>
       <use xlink:href="#DejaVuSans-30" transform="translate(147.412109 0)"/>
      </g>
     </g>
    </g>
    <g id="ytick_3">
     <g id="line2d_12">
      <g>
       <use xlink:href="#m24fab2a302" x="57.6" y="174.646943" style="stroke: #000000; stroke-width: 0.8"/>
      </g>
     </g>
     <g id="text_13">
      <!-- 0 -->
      <g transform="translate(44.2375 178.446162) scale(0.1 -0.1)">
       <use xlink:href="#DejaVuSans-30"/>
      </g>
     </g>
    </g>
    <g id="ytick_4">
     <g id="line2d_13">
      <g>
       <use xlink:href="#m24fab2a302" x="57.6" y="117.358665" style="stroke: #000000; stroke-width: 0.8"/>
      </g>
     </g>
     <g id="text_14">
      <!-- 10 -->
      <g transform="translate(37.875 121.157884) scale(0.1 -0.1)">
       <use xlink:href="#DejaVuSans-31"/>
       <use xlink:href="#DejaVuSans-30" transform="translate(63.623047 0)"/>
      </g>
     </g>
    </g>
    <g id="ytick_5">
     <g id="line2d_14">
      <g>
       <use xlink:href="#m24fab2a302" x="57.6" y="60.070388" style="stroke: #000000; stroke-width: 0.8"/>
      </g>
     </g>
     <g id="text_15">
      <!-- 20 -->
      <g transform="translate(37.875 63.869606) scale(0.1 -0.1)">
       <use xlink:href="#DejaVuSans-32"/>
       <use xlink:href="#DejaVuSans-30" transform="translate(63.623047 0)"/>
      </g>
     </g>
    </g>
    <g id="text_16">
     <!-- Angular velocity [rad/s] -->
     <g transform="translate(23.415625 233.173313) rotate(-90) scale(0.1 -0.1)">
      <defs>
       <path id="DejaVuSans-41" d="M 2188 4044  L 1331 1722  L 3047 1722  L 2188 4044  z M 1831 4666  L 2547 4666  L 4325 0  L 3669 0  L 3244 1197  L 1141 1197  L 716 0  L 50 0  L 1831 4666  z " transform="scale(0.015625)"/>
       <path id="DejaVuSans-6e" d="M 3513 2113  L 3513 0  L 2938 0  L 2938 2094  Q 2938 2591 2744 2837  Q 2550 3084 2163 3084  Q 1697 3084 1428 2787  Q 1159 2491 1159 1978  L 1159 0  L 581 0  L 581 3500  L 1159 3500  L 1159 2956  Q 1366 3272 1645 3428  Q 1925 3584 2291 3584  Q 2894 3584 3203 3211  Q 3513 2838 3513 2113  z " transform="scale(0.015625)"/>
       <path id="DejaVuSans-67" d="M 2906 1791  Q 2906 2416 2648 2759  Q 2391 3103 1925 3103  Q 1463 3103 1205 2759  Q 947 2416 947 1791  Q 947 1169 1205 825  Q 1463 481 1925 481  Q 2391 481 2648 825  Q 2906 1169 2906 1791  z M 3481 434  Q 3481 -459 3084 -895  Q 2688 -1331 1869 -1331  Q 1566 -1331 1297 -1286  Q 1028 -1241 775 -1147  L 775 -588  Q 1028 -725 1275 -790  Q 1522 -856 1778 -856  Q 2344 -856 2625 -561  Q 2906 -266 2906 331  L 2906 616  Q 2728 306 2450 153  Q 2172 0 1784 0  Q 1141 0 747 490  Q 353 981 353 1791  Q 353 2603 747 3093  Q 1141 3584 1784 3584  Q 2172 3584 2450 3431  Q 2728 3278 2906 2969  L 2906 3500  L 3481 3500  L 3481 434  z " transform="scale(0.015625)"/>
       <path id="DejaVuSans-75" d="M 544 1381  L 544 3500  L 1119 3500  L 1119 1403  Q 1119 906 1312 657  Q 1506 409 1894 409  Q 2359 409 2629 706  Q 2900 1003 2900 1516  L 2900 3500  L 3475 3500  L 3475 0  L 2900 0  L 2900 538  Q 2691 219 2414 64  Q 2138 -91 1772 -91  Q 1169 -91 856 284  Q 544 659 544 1381  z M 1991 3584  L 1991 3584  z " transform="scale(0.015625)"/>
       <path id="DejaVuSans-6c" d="M 603 4863  L 1178 4863  L 1178 0  L 603 0  L 603 4863  z " transform="scale(0.015625)"/>
       <path id="DejaVuSans-61" d="M 2194 1759  Q 1497 1759 1228 1600  Q 959 1441 959 1056  Q 959 750 1161 570  Q 1363 391 1709 391  Q 2188 391 2477 730  Q 2766 1069 2766 1631  L 2766 1759  L 2194 1759  z M 3341 1997  L 3341 0  L 2766 0  L 2766 531  Q 2569 213 2275 61  Q 1981 -91 1556 -91  Q 1019 -91 701 211  Q 384 513 384 1019  Q 384 1609 779 1909  Q 1175 2209 1959 2209  L 2766 2209  L 2766 2266  Q 2766 2663 2505 2880  Q 2244 3097 1772 3097  Q 1472 3097 1187 3025  Q 903 2953 641 2809  L 641 3341  Q 956 3463 1253 3523  Q 1550 3584 1831 3584  Q 2591 3584 2966 3190  Q 3341 2797 3341 1997  z " transform="scale(0.015625)"/>
       <path id="DejaVuSans-72" d="M 2631 2963  Q 2534 3019 2420 3045  Q 2306 3072 2169 3072  Q 1681 3072 1420 2755  Q 1159 2438 1159 1844  L 1159 0  L 581 0  L 581 3500  L 1159 3500  L 1159 2956  Q 1341 3275 1631 3429  Q 1922 3584 2338 3584  Q 2397 3584 2469 3576  Q 2541 3569 2628 3553  L 2631 2963  z " transform="scale(0.015625)"/>
       <path id="DejaVuSans-76" d="M 191 3500  L 800 3500  L 1894 563  L 2988 3500  L 3597 3500  L 2284 0  L 1503 0  L 191 3500  z " transform="scale(0.015625)"/>
       <path id="DejaVuSans-6f" d="M 1959 3097  Q 1497 3097 1228 2736  Q 959 2375 959 1747  Q 959 1119 1226 758  Q 1494 397 1959 397  Q 2419 397 2687 759  Q 2956 1122 2956 1747  Q 2956 2369 2687 2733  Q 2419 3097 1959 3097  z M 1959 3584  Q 2709 3584 3137 3096  Q 3566 2609 3566 1747  Q 3566 888 3137 398  Q 2709 -91 1959 -91  Q 1206 -91 779 398  Q 353 888 353 1747  Q 353 2609 779 3096  Q 1206 3584 1959 3584  z " transform="scale(0.015625)"/>
       <path id="DejaVuSans-63" d="M 3122 3366  L 3122 2828  Q 2878 2963 2633 3030  Q 2388 3097 2138 3097  Q 1578 3097 1268 2742  Q 959 2388 959 1747  Q 959 1106 1268 751  Q 1578 397 2138 397  Q 2388 397 2633 464  Q 2878 531 3122 666  L 3122 134  Q 2881 22 2623 -34  Q 2366 -91 2075 -91  Q 1284 -91 818 406  Q 353 903 353 1747  Q 353 2603 823 3093  Q 1294 3584 2113 3584  Q 2378 3584 2631 3529  Q 2884 3475 3122 3366  z " transform="scale(0.015625)"/>
       <path id="DejaVuSans-74" d="M 1172 4494  L 1172 3500  L 2356 3500  L 2356 3053  L 1172 3053  L 1172 1153  Q 1172 725 1289 603  Q 1406 481 1766 481  L 2356 481  L 2356 0  L 1766 0  Q 1100 0 847 248  Q 594 497 594 1153  L 594 3053  L 172 3053  L 172 3500  L 594 3500  L 594 4494  L 1172 4494  z " transform="scale(0.015625)"/>
       <path id="DejaVuSans-79" d="M 2059 -325  Q 1816 -950 1584 -1140  Q 1353 -1331 966 -1331  L 506 -1331  L 506 -850  L 844 -850  Q 1081 -850 1212 -737  Q 1344 -625 1503 -206  L 1606 56  L 191 3500  L 800 3500  L 1894 763  L 2988 3500  L 3597 3500  L 2059 -325  z " transform="scale(0.015625)"/>
       <path id="DejaVuSans-64" d="M 2906 2969  L 2906 4863  L 3481 4863  L 3481 0  L 2906 0  L 2906 525  Q 2725 213 2448 61  Q 2172 -91 1784 -91  Q 1150 -91 751 415  Q 353 922 353 1747  Q 353 2572 751 3078  Q 1150 3584 1784 3584  Q 2172 3584 2448 3432  Q 2725 3281 2906 2969  z M 947 1747  Q 947 1113 1208 752  Q 1469 391 1925 391  Q 2381 391 2643 752  Q 2906 1113 2906 1747  Q 2906 2381 2643 2742  Q 2381 3103 1925 3103  Q 1469 3103 1208 2742  Q 947 2381 947 1747  z " transform="scale(0.015625)"/>
       <path id="DejaVuSans-2f" d="M 1625 4666  L 2156 4666  L 531 -594  L 0 -594  L 1625 4666  z " transform="scale(0.015625)"/>
      </defs>
      <use xlink:href="#DejaVuSans-41"/>
      <use xlink:href="#DejaVuSans-6e" transform="translate(68.408203 0)"/>
      <use xlink:href="#DejaVuSans-67" transform="translate(131.787109 0)"/>
      <use xlink:href="#DejaVuSans-75" transform="translate(195.263672 0)"/>
      <use xlink:href="#DejaVuSans-6c" transform="translate(258.642578 0)"/>
      <use xlink:href="#DejaVuSans-61" transform="translate(286.425781 0)"/>
      <use xlink:href="#DejaVuSans-72" transform="translate(347.705078 0)"/>
      <use xlink:href="#DejaVuSans-20" transform="translate(388.818359 0)"/>
      <use xlink:href="#DejaVuSans-76" transform="translate(420.605469 0)"/>
      <use xlink:href="#DejaVuSans-65" transform="translate(479.785156 0)"/>
      <use xlink:href="#DejaVuSans-6c" transform="translate(541.308594 0)"/>
      <use xlink:href="#DejaVuSans-6f" transform="translate(569.091797 0)"/>
      <use xlink:href="#DejaVuSans-63" transform="translate(630.273438 0)"/>
      <use xlink:href="#DejaVuSans-69" transform="translate(685.253906 0)"/>
      <use xlink:href="#DejaVuSans-74" transform="translate(713.037109 0)"/>
      <use xlink:href="#DejaVuSans-79" transform="translate(752.246094 0)"/>
      <use xlink:href="#DejaVuSans-20" transform="translate(811.425781 0)"/>
      <use xlink:href="#DejaVuSans-5b" transform="translate(843.212891 0)"/>
      <use xlink:href="#DejaVuSans-72" transform="translate(882.226562 0)"/>
      <use xlink:href="#DejaVuSans-61" transform="translate(923.339844 0)"/>
      <use xlink:href="#DejaVuSans-64" transform="translate(984.619141 0)"/>
      <use xlink:href="#DejaVuSans-2f" transform="translate(1048.095703 0)"/>
      <use xlink:href="#DejaVuSans-73" transform="translate(1081.787109 0)"/>
      <use xlink:href="#DejaVuSans-5d" transform="translate(1133.886719 0)"/>
     </g>
    </g>
   </g>
   <g id="line2d_15">
    <path d="M 73.832727 228.819719  L 77.669244 236.913813  L 86.32272 255.362911  L 88.709885 259.813132  L 90.670772 263.017794  L 92.333262 265.333198  L 93.825241 267.046248  L 95.146707 268.244401  L 96.382918 269.074289  L 97.533873 269.582234  L 98.599572 269.818527  L 99.665271 269.826778  L 100.73097 269.606821  L 101.796669 269.161221  L 102.947624 268.432607  L 104.183835 267.374995  L 105.54793 265.896549  L 107.039908 263.936106  L 108.745027 261.306987  L 110.705913 257.854184  L 113.093079 253.177665  L 116.41806 246.128799  L 125.114163 227.489128  L 128.396516 221.098894  L 131.380474 215.767613  L 134.193919 211.185601  L 136.922108 207.155562  L 139.650298 203.519287  L 142.335859 200.303741  L 145.064049 197.381181  L 147.834866 194.73904  L 150.648312 192.36188  L 153.547013 190.202783  L 156.53097 188.254907  L 159.642811 186.486597  L 162.925164 184.877147  L 166.378029 183.430998  L 170.086662 182.121134  L 174.051062 180.959373  L 178.313858 179.943141  L 182.960306 179.066666  L 188.033033 178.34011  L 193.53204 177.780015  L 199.457326 177.401778  L 205.723636 177.225936  L 212.11783 177.269302  L 218.341513 177.531049  L 224.224171 177.996716  L 229.68055 178.648072  L 234.668021 179.463343  L 239.229213 180.42969  L 243.449381 181.548824  L 247.328526 182.804346  L 250.951902 184.208218  L 254.362139 185.767269  L 257.559236 187.470577  L 260.628449 189.35741  L 263.569778 191.427795  L 266.383224 193.677887  L 269.154041 196.180959  L 271.839603 198.906971  L 274.482536 201.904649  L 277.12547 205.239706  L 279.768403 208.934085  L 282.453965 213.073054  L 285.224782 217.758199  L 288.123484 223.101586  L 291.320581 229.473705  L 295.242353 237.816481  L 303.213782 254.913837  L 305.686203 259.59838  L 307.689717 262.93203  L 309.394836 265.352366  L 310.886814 267.102174  L 312.250909 268.367771  L 313.48712 269.218355  L 314.638075 269.744601  L 315.703774 269.996764  L 316.769473 270.019644  L 317.835172 269.812897  L 318.900871 269.378942  L 320.051826 268.661011  L 321.288037 267.612579  L 322.609503 266.192161  L 324.101482 264.246176  L 325.763972 261.698032  L 327.682231 258.338802  L 330.026769 253.762637  L 333.223866 246.992411  L 342.602017 226.849857  L 345.841742 220.572643  L 348.783071 215.346384  L 351.596516 210.792414  L 354.324706 206.79111  L 357.010267 203.23726  L 359.695829 200.044117  L 362.424018 197.143575  L 365.194836 194.52269  L 368.008281 192.165764  L 370.906982 190.025988  L 373.933568 188.070638  L 377.088037 186.300795  L 380.37039 184.714057  L 383.865882 183.272848  L 387.574515 181.98547  L 391.581543 180.83337  L 395.886967 179.829491  L 398.487273 179.324387  L 398.487273 179.324387  " clip-path="url(#p93183a9e01)" style="fill: none; stroke: #4285f4; stroke-width: 1.5; stroke-linecap: square"/>
   </g>
   <g id="line2d_16">
    <path d="M 73.832727 88.293525  L 75.66573 91.361662  L 77.498732 94.868035  L 79.374362 98.951487  L 81.249992 103.574874  L 83.210879 109.020259  L 85.214393 115.254346  L 87.345791 122.637163  L 89.605073 131.283177  L 92.120122 141.814151  L 95.104079 155.315396  L 99.665271 177.140074  L 104.695371 200.908107  L 107.6367 213.746866  L 110.151749 223.767617  L 112.453659 232.046245  L 114.585057 238.909294  L 116.631199 244.770514  L 118.634714 249.840816  L 120.552972 254.108969  L 122.47123 257.844819  L 124.389488 261.094173  L 126.307746 263.904898  L 128.226005 266.324669  L 130.186891 268.44187  L 132.190405 270.280335  L 134.279175 271.895445  L 136.453201 273.297655  L 138.797739 274.542013  L 141.312788 275.621547  L 144.083606 276.563393  L 147.152819 277.367748  L 150.648312 278.050204  L 154.740596 278.617687  L 159.728067 279.076343  L 166.079633 279.425883  L 174.860993 279.670095  L 188.842964 279.811188  L 217.659465 279.839305  L 239.484981 279.688241  L 249.715691 279.410422  L 256.536165 279.013699  L 261.694148 278.498942  L 265.871688 277.863925  L 269.367181 277.114041  L 272.436394 276.231298  L 275.164584 275.216848  L 277.637005 274.061769  L 279.938915 272.738661  L 282.070313 271.257311  L 284.116455 269.560936  L 286.077341 267.641286  L 287.952972 265.495237  L 289.828602 263.00438  L 291.661604 260.195167  L 293.494607 256.973054  L 295.327609 253.296358  L 297.203239 249.022386  L 299.121497 244.077293  L 301.082383 238.390548  L 303.128526 231.755774  L 305.302552 223.924063  L 307.647089 214.617124  L 310.290023 203.178464  L 313.572376 187.917148  L 323.589947 140.605302  L 326.275508 129.4174  L 328.662674 120.409213  L 330.879328 112.903625  L 332.968098 106.603754  L 334.971612 101.25186  L 336.932498 96.638614  L 338.850756 92.684417  L 340.769015 89.237951  L 342.644645 86.313191  L 344.562903 83.729723  L 346.481161 81.511829  L 348.442047 79.576086  L 350.488189 77.866231  L 352.619587 76.373871  L 354.878869 75.064046  L 357.308663 73.915557  L 359.951597 72.916432  L 362.892926 72.048932  L 366.175279 71.316493  L 370.011795 70.695366  L 374.572987 70.190508  L 380.242506 69.796029  L 387.787655 69.507513  L 398.487273 69.327756  L 398.487273 69.327756  " clip-path="url(#p93183a9e01)" style="fill: none; stroke: #ea4335; stroke-width: 1.5; stroke-linecap: square"/>
   </g>
   <g id="line2d_17">
    <path d="M 73.832727 243.354578  L 77.626616 253.525086  L 86.280092 276.976827  L 88.624629 282.546869  L 90.542888 286.560859  L 92.205378 289.541157  L 93.654729 291.700041  L 94.933568 293.228369  L 96.084523 294.28025  L 97.150222 294.967803  L 98.130665 295.349792  L 99.06848 295.486696  L 100.006295 295.398832  L 100.94411 295.086957  L 101.924553 294.524485  L 102.990252 293.645485  L 104.141207 292.394616  L 105.420046 290.657347  L 106.826769 288.356066  L 108.446631 285.253541  L 110.322261 281.146471  L 112.581543 275.625008  L 115.5655 267.695768  L 126.265118 238.740224  L 129.37696 231.243679  L 132.233033 224.931957  L 134.961222 219.431458  L 137.604156 214.590629  L 140.204461 210.278578  L 142.804767 206.388288  L 145.405073 202.890256  L 148.048006 199.704446  L 150.733568 196.814789  L 153.461757 194.203176  L 156.275202 191.816314  L 159.173904 189.646449  L 162.200489 187.657228  L 165.397586 185.823899  L 168.765195 184.150207  L 172.388571 182.601123  L 176.310344 181.171419  L 180.57314 179.856827  L 185.347471 178.620808  L 190.846478 177.432655  L 197.581696 176.215423  L 207.72715 174.636629  L 220.472911 172.61066  L 227.080244 171.329911  L 232.451367 170.068341  L 237.097815 168.754587  L 241.275355 167.346128  L 245.069244 165.836282  L 248.607364 164.189729  L 251.889717 162.419043  L 255.001558 160.488748  L 257.942888 158.405453  L 260.798961 156.108632  L 263.52715 153.630446  L 266.212712 150.887507  L 268.813018 147.913307  L 271.370695 144.651584  L 273.928373 141.026046  L 276.48605 137.007471  L 279.043728 132.569382  L 281.644034 127.605479  L 284.329595 121.987184  L 287.14304 115.568263  L 290.169626 108.090014  L 293.665118 98.834893  L 304.663132 69.207909  L 306.79453 64.410889  L 308.584905 60.913625  L 310.119511 58.382416  L 311.483606 56.541968  L 312.719817 55.236579  L 313.828144 54.376712  L 314.851215 53.85357  L 315.831658 53.601586  L 316.769473 53.59143  L 317.707288 53.807196  L 318.687731 54.272186  L 319.710802 55.01333  L 320.819129 56.101973  L 322.012712 57.591409  L 323.376807 59.669702  L 324.911413 62.442877  L 326.65916 66.089273  L 328.705302 70.897028  L 331.305607 77.614761  L 335.397892 88.898207  L 341.237922 104.897167  L 344.605531 113.455621  L 347.589488 120.445259  L 350.402934 126.475444  L 353.088495 131.715776  L 355.731429 136.392092  L 358.331734 140.549002  L 360.93204 144.293116  L 363.532345 147.655189  L 366.175279 150.713815  L 368.86084 153.485617  L 371.631658 156.025683  L 374.487731 158.340378  L 377.42906 160.438819  L 380.498273 162.357197  L 383.737998 164.120405  L 387.190863 165.744825  L 390.899496 167.24094  L 394.906524 168.615928  L 398.487273 169.669216  L 398.487273 169.669216  " clip-path="url(#p93183a9e01)" style="fill: none; stroke: #fbbc04; stroke-width: 1.5; stroke-linecap: square"/>
   </g>
   <g id="patch_3">
    <path d="M 57.6 307.584  L 57.6 41.472  " style="fill: none; stroke: #000000; stroke-width: 0.8; stroke-linejoin: miter; stroke-linecap: square"/>
   </g>
   <g id="patch_4">
    <path d="M 414.72 307.584  L 414.72 41.472  " style="fill: none; stroke: #000000; stroke-width: 0.8; stroke-linejoin: miter; stroke-linecap: square"/>
   </g>
   <g id="patch_5">
    <path d="M 57.6 307.584  L 414.72 307.584  " style="fill: none; stroke: #000000; stroke-width: 0.8; stroke-linejoin: miter; stroke-linecap: square"/>
   </g>
   <g id="patch_6">
    <path d="M 57.6 41.472  L 414.72 41.472  " style="fill: none; stroke: #000000; stroke-width: 0.8; stroke-linejoin: miter; stroke-linecap: square"/>
   </g>
   <g id="text_17">
    <!-- Simulated angular velocities -->
    <g transform="translate(150.741562 35.472) scale(0.12 -0.12)">
     <defs>
      <path id="DejaVuSans-53" d="M 3425 4513  L 3425 3897  Q 3066 4069 2747 4153  Q 2428 4238 2131 4238  Q 1616 4238 1336 4038  Q 1056 3838 1056 3469  Q 1056 3159 1242 3001  Q 1428 2844 1947 2747  L 2328 2669  Q 3034 2534 3370 2195  Q 3706 1856 3706 1288  Q 3706 609 3251 259  Q 2797 -91 1919 -91  Q 1588 -91 1214 -16  Q 841 59 441 206  L 441 856  Q 825 641 1194 531  Q 1563 422 1919 422  Q 2459 422 2753 634  Q 3047 847 3047 1241  Q 3047 1584 2836 1778  Q 2625 1972 2144 2069  L 1759 2144  Q 1053 2284 737 2584  Q 422 2884 422 3419  Q 422 4038 858 4394  Q 1294 4750 2059 4750  Q 2388 4750 2728 4690  Q 3069 4631 3425 4513  z " transform="scale(0.015625)"/>
     </defs>
     <use xlink:href="#DejaVuSans-53"/>
     <use xlink:href="#DejaVuSans-69" transform="translate(63.476562 0)"/>
     <use xlink:href="#DejaVuSans-6d" transform="translate(91.259766 0)"/>
     <use xlink:href="#DejaVuSans-75" transform="translate(188.671875 0)"/>
     <use xlink:href="#DejaVuSans-6c" transform="translate(252.050781 0)"/>
     <use xlink:href="#DejaVuSans-61" transform="translate(279.833984 0)"/>
     <use xlink:href="#DejaVuSans-74" transform="translate(341.113281 0)"/>
     <use xlink:href="#DejaVuSans-65" transform="translate(380.322266 0)"/>
     <use xlink:href="#DejaVuSans-64" transform="translate(441.845703 0)"/>
     <use xlink:href="#DejaVuSans-20" transform="translate(505.322266 0)"/>
     <use xlink:href="#DejaVuSans-61" transform="translate(537.109375 0)"/>
     <use xlink:href="#DejaVuSans-6e" transform="translate(598.388672 0)"/>
     <use xlink:href="#DejaVuSans-67" transform="translate(661.767578 0)"/>
     <use xlink:href="#DejaVuSans-75" transform="translate(725.244141 0)"/>
     <use xlink:href="#DejaVuSans-6c" transform="translate(788.623047 0)"/>
     <use xlink:href="#DejaVuSans-61" transform="translate(816.40625 0)"/>
     <use xlink:href="#DejaVuSans-72" transform="translate(877.685547 0)"/>
     <use xlink:href="#DejaVuSans-20" transform="translate(918.798828 0)"/>
     <use xlink:href="#DejaVuSans-76" transform="translate(950.585938 0)"/>
     <use xlink:href="#DejaVuSans-65" transform="translate(1009.765625 0)"/>
     <use xlink:href="#DejaVuSans-6c" transform="translate(1071.289062 0)"/>
     <use xlink:href="#DejaVuSans-6f" transform="translate(1099.072266 0)"/>
     <use xlink:href="#DejaVuSans-63" transform="translate(1160.253906 0)"/>
     <use xlink:href="#DejaVuSans-69" transform="translate(1215.234375 0)"/>
     <use xlink:href="#DejaVuSans-74" transform="translate(1243.017578 0)"/>
     <use xlink:href="#DejaVuSans-69" transform="translate(1282.226562 0)"/>
     <use xlink:href="#DejaVuSans-65" transform="translate(1310.009766 0)"/>
     <use xlink:href="#DejaVuSans-73" transform="translate(1371.533203 0)"/>
    </g>
   </g>
   <g id="legend_1">
    <g id="patch_7">
     <path d="M 175.938125 93.506375  L 296.381875 93.506375  Q 298.381875 93.506375 298.381875 91.506375  L 298.381875 48.472  Q 298.381875 46.472 296.381875 46.472  L 175.938125 46.472  Q 173.938125 46.472 173.938125 48.472  L 173.938125 91.506375  Q 173.938125 93.506375 175.938125 93.506375  z " style="fill: #ffffff; opacity: 0.8; stroke: #cccccc; stroke-linejoin: miter"/>
    </g>
    <g id="line2d_18">
     <path d="M 177.938125 54.570438  L 187.938125 54.570438  L 197.938125 54.570438  " style="fill: none; stroke: #4285f4; stroke-width: 1.5; stroke-linecap: square"/>
    </g>
    <g id="text_18">
     <!-- Primary Axis -->
     <g transform="translate(205.938125 58.070438) scale(0.1 -0.1)">
      <defs>
       <path id="DejaVuSans-50" d="M 1259 4147  L 1259 2394  L 2053 2394  Q 2494 2394 2734 2622  Q 2975 2850 2975 3272  Q 2975 3691 2734 3919  Q 2494 4147 2053 4147  L 1259 4147  z M 628 4666  L 2053 4666  Q 2838 4666 3239 4311  Q 3641 3956 3641 3272  Q 3641 2581 3239 2228  Q 2838 1875 2053 1875  L 1259 1875  L 1259 0  L 628 0  L 628 4666  z " transform="scale(0.015625)"/>
       <path id="DejaVuSans-78" d="M 3513 3500  L 2247 1797  L 3578 0  L 2900 0  L 1881 1375  L 863 0  L 184 0  L 1544 1831  L 300 3500  L 978 3500  L 1906 2253  L 2834 3500  L 3513 3500  z " transform="scale(0.015625)"/>
      </defs>
      <use xlink:href="#DejaVuSans-50"/>
      <use xlink:href="#DejaVuSans-72" transform="translate(58.552734 0)"/>
      <use xlink:href="#DejaVuSans-69" transform="translate(99.666016 0)"/>
      <use xlink:href="#DejaVuSans-6d" transform="translate(127.449219 0)"/>
      <use xlink:href="#DejaVuSans-61" transform="translate(224.861328 0)"/>
      <use xlink:href="#DejaVuSans-72" transform="translate(286.140625 0)"/>
      <use xlink:href="#DejaVuSans-79" transform="translate(327.253906 0)"/>
      <use xlink:href="#DejaVuSans-20" transform="translate(386.433594 0)"/>
      <use xlink:href="#DejaVuSans-41" transform="translate(418.220703 0)"/>
      <use xlink:href="#DejaVuSans-78" transform="translate(486.628906 0)"/>
      <use xlink:href="#DejaVuSans-69" transform="translate(545.808594 0)"/>
      <use xlink:href="#DejaVuSans-73" transform="translate(573.591797 0)"/>
     </g>
    </g>
    <g id="line2d_19">
     <path d="M 177.938125 69.248563  L 187.938125 69.248563  L 197.938125 69.248563  " style="fill: none; stroke: #ea4335; stroke-width: 1.5; stroke-linecap: square"/>
    </g>
    <g id="text_19">
     <!-- Intermediate Axis -->
     <g transform="translate(205.938125 72.748563) scale(0.1 -0.1)">
      <defs>
       <path id="DejaVuSans-49" d="M 628 4666  L 1259 4666  L 1259 0  L 628 0  L 628 4666  z " transform="scale(0.015625)"/>
      </defs>
      <use xlink:href="#DejaVuSans-49"/>
      <use xlink:href="#DejaVuSans-6e" transform="translate(29.492188 0)"/>
      <use xlink:href="#DejaVuSans-74" transform="translate(92.871094 0)"/>
      <use xlink:href="#DejaVuSans-65" transform="translate(132.080078 0)"/>
      <use xlink:href="#DejaVuSans-72" transform="translate(193.603516 0)"/>
      <use xlink:href="#DejaVuSans-6d" transform="translate(232.966797 0)"/>
      <use xlink:href="#DejaVuSans-65" transform="translate(330.378906 0)"/>
      <use xlink:href="#DejaVuSans-64" transform="translate(391.902344 0)"/>
      <use xlink:href="#DejaVuSans-69" transform="translate(455.378906 0)"/>
      <use xlink:href="#DejaVuSans-61" transform="translate(483.162109 0)"/>
      <use xlink:href="#DejaVuSans-74" transform="translate(544.441406 0)"/>
      <use xlink:href="#DejaVuSans-65" transform="translate(583.650391 0)"/>
      <use xlink:href="#DejaVuSans-20" transform="translate(645.173828 0)"/>
      <use xlink:href="#DejaVuSans-41" transform="translate(676.960938 0)"/>
      <use xlink:href="#DejaVuSans-78" transform="translate(745.369141 0)"/>
      <use xlink:href="#DejaVuSans-69" transform="translate(804.548828 0)"/>
      <use xlink:href="#DejaVuSans-73" transform="translate(832.332031 0)"/>
     </g>
    </g>
    <g id="line2d_20">
     <path d="M 177.938125 83.926688  L 187.938125 83.926688  L 197.938125 83.926688  " style="fill: none; stroke: #fbbc04; stroke-width: 1.5; stroke-linecap: square"/>
    </g>
    <g id="text_20">
     <!-- Tertiary Axis -->
     <g transform="translate(205.938125 87.426688) scale(0.1 -0.1)">
      <use xlink:href="#DejaVuSans-54"/>
      <use xlink:href="#DejaVuSans-65" transform="translate(44.083984 0)"/>
      <use xlink:href="#DejaVuSans-72" transform="translate(105.607422 0)"/>
      <use xlink:href="#DejaVuSans-74" transform="translate(146.720703 0)"/>
      <use xlink:href="#DejaVuSans-69" transform="translate(185.929688 0)"/>
      <use xlink:href="#DejaVuSans-61" transform="translate(213.712891 0)"/>
      <use xlink:href="#DejaVuSans-72" transform="translate(274.992188 0)"/>
      <use xlink:href="#DejaVuSans-79" transform="translate(316.105469 0)"/>
      <use xlink:href="#DejaVuSans-20" transform="translate(375.285156 0)"/>
      <use xlink:href="#DejaVuSans-41" transform="translate(407.072266 0)"/>
      <use xlink:href="#DejaVuSans-78" transform="translate(475.480469 0)"/>
      <use xlink:href="#DejaVuSans-69" transform="translate(534.660156 0)"/>
      <use xlink:href="#DejaVuSans-73" transform="translate(562.443359 0)"/>
     </g>
    </g>
   </g>
  </g>
 </g>
 <defs>
  <clipPath id="p93183a9e01">
   <rect x="57.6" y="41.472" width="357.12" height="266.112"/>
  </clipPath>
 </defs>
</svg>