<?xml version="1.0" encoding="utf-8" standalone="no"?>
<!DOCTYPE svg PUBLIC "-//W3C//DTD SVG 1.1//EN"
  "http://www.w3.org/Graphics/SVG/1.1/DTD/svg11.dtd">
<svg xmlns:xlink="http://www.w3.org/1999/xlink" width="460.8pt" height="345.6pt" viewBox="0 0 460.8 345.6" xmlns="http://www.w3.org/2000/svg" version="1.1">
 <metadata>
  <rdf:RDF xmlns:dc="http://purl.org/dc/elements/1.1/" xmlns:cc="http://creativecommons.org/ns#" xmlns:rdf="http://www.w3.org/1999/02/22-rdf-syntax-ns#">
   <cc:Work>
    <dc:type rdf:resource="http://purl.org/dc/dcmitype/StillImage"/>
    <dc:date>2025-03-19T20:17:46.351758</dc:date>
    <dc:format>image/svg+xml</dc:format>
    <dc:creator>
     <cc:Agent>
      <dc:title>Matplotlib v3.9.2, https://matplotlib.org/</dc:title>
     </cc:Agent>
    </dc:creator>
   </cc:Work>
  </rdf:RDF>
 </metadata>
 <defs>
  <style type="text/css">*{stroke-linejoin: round; stroke-linecap: butt}</style>
 </defs>
 <g id="figure_1">
  <g id="patch_1">
   <path d="M 0 345.6 
L 460.8 345.6 
L 460.8 0 
L 0 0 
z
" style="fill: #ffffff"/>
  </g>
  <g id="axes_1">
   <g id="patch_2">
    <path d="M 57.6 307.584 
L 414.72 307.584 
L 414.72 41.472 
L 57.6 41.472 
z
" style="fill: #ffffff"/>
   </g>
   <g id="matplotlib.axis_1">
    <g id="xtick_1">
     <g id="line2d_1">
      <defs>
       <path id="m1a821080ef" d="M 0 0 
L 0 3.5 
" style="stroke: #000000; stroke-width: 0.8"/>
      </defs>
      <g>
       <use xlink:href="#m1a821080ef" x="108.885688" y="307.584" style="stroke: #000000; stroke-width: 0.8"/>
      </g>
     </g>
     <g id="text_1">
      <!-- 265.8 -->
      <g transform="translate(94.571626 322.182437) scale(0.1 -0.1)">
       <defs>
        <path id="DejaVuSans-32" d="M 1228 531 
L 3431 531 
L 3431 0 
L 469 0 
L 469 531 
Q 828 903 1448 1529 
Q 2069 2156 2228 2338 
Q 2531 2678 2651 2914 
Q 2772 3150 2772 3378 
Q 2772 3750 2511 3984 
Q 2250 4219 1831 4219 
Q 1534 4219 1204 4116 
Q 875 4013 500 3803 
L 500 4441 
Q 881 4594 1212 4672 
Q 1544 4750 1819 4750 
Q 2544 4750 2975 4387 
Q 3406 4025 3406 3419 
Q 3406 3131 3298 2873 
Q 3191 2616 2906 2266 
Q 2828 2175 2409 1742 
Q 1991 1309 1228 531 
z
" transform="scale(0.015625)"/>
        <path id="DejaVuSans-36" d="M 2113 2584 
Q 1688 2584 1439 2293 
Q 1191 2003 1191 1497 
Q 1191 994 1439 701 
Q 1688 409 2113 409 
Q 2538 409 2786 701 
Q 3034 994 3034 1497 
Q 3034 2003 2786 2293 
Q 2538 2584 2113 2584 
z
M 3366 4563 
L 3366 3988 
Q 3128 4100 2886 4159 
Q 2644 4219 2406 4219 
Q 1781 4219 1451 3797 
Q 1122 3375 1075 2522 
Q 1259 2794 1537 2939 
Q 1816 3084 2150 3084 
Q 2853 3084 3261 2657 
Q 3669 2231 3669 1497 
Q 3669 778 3244 343 
Q 2819 -91 2113 -91 
Q 1303 -91 875 529 
Q 447 1150 447 2328 
Q 447 3434 972 4092 
Q 1497 4750 2381 4750 
Q 2619 4750 2861 4703 
Q 3103 4656 3366 4563 
z
" transform="scale(0.015625)"/>
        <path id="DejaVuSans-35" d="M 691 4666 
L 3169 4666 
L 3169 4134 
L 1269 4134 
L 1269 2991 
Q 1406 3038 1543 3061 
Q 1681 3084 1819 3084 
Q 2600 3084 3056 2656 
Q 3513 2228 3513 1497 
Q 3513 744 3044 326 
Q 2575 -91 1722 -91 
Q 1428 -91 1123 -41 
Q 819 9 494 109 
L 494 744 
Q 775 591 1075 516 
Q 1375 441 1709 441 
Q 2250 441 2565 725 
Q 2881 1009 2881 1497 
Q 2881 1984 2565 2268 
Q 2250 2553 1709 2553 
Q 1456 2553 1204 2497 
Q 953 2441 691 2322 
L 691 4666 
z
" transform="scale(0.015625)"/>
        <path id="DejaVuSans-2e" d="M 684 794 
L 1344 794 
L 1344 0 
L 684 0 
L 684 794 
z
" transform="scale(0.015625)"/>
        <path id="DejaVuSans-38" d="M 2034 2216 
Q 1584 2216 1326 1975 
Q 1069 1734 1069 1313 
Q 1069 891 1326 650 
Q 1584 409 2034 409 
Q 2484 409 2743 651 
Q 3003 894 3003 1313 
Q 3003 1734 2745 1975 
Q 2488 2216 2034 2216 
z
M 1403 2484 
Q 997 2584 770 2862 
Q 544 3141 544 3541 
Q 544 4100 942 4425 
Q 1341 4750 2034 4750 
Q 2731 4750 3128 4425 
Q 3525 4100 3525 3541 
Q 3525 3141 3298 2862 
Q 3072 2584 2669 2484 
Q 3125 2378 3379 2068 
Q 3634 1759 3634 1313 
Q 3634 634 3220 271 
Q 2806 -91 2034 -91 
Q 1263 -91 848 271 
Q 434 634 434 1313 
Q 434 1759 690 2068 
Q 947 2378 1403 2484 
z
M 1172 3481 
Q 1172 3119 1398 2916 
Q 1625 2713 2034 2713 
Q 2441 2713 2670 2916 
Q 2900 3119 2900 3481 
Q 2900 3844 2670 4047 
Q 2441 4250 2034 4250 
Q 1625 4250 1398 4047 
Q 1172 3844 1172 3481 
z
" transform="scale(0.015625)"/>
       </defs>
       <use xlink:href="#DejaVuSans-32"/>
       <use xlink:href="#DejaVuSans-36" x="63.623047"/>
       <use xlink:href="#DejaVuSans-35" x="127.246094"/>
       <use xlink:href="#DejaVuSans-2e" x="190.869141"/>
       <use xlink:href="#DejaVuSans-38" x="222.65625"/>
      </g>
     </g>
    </g>
    <g id="xtick_2">
     <g id="line2d_2">
      <g>
       <use xlink:href="#m1a821080ef" x="186.951948" y="307.584" style="stroke: #000000; stroke-width: 0.8"/>
      </g>
     </g>
     <g id="text_2">
      <!-- 266.0 -->
      <g transform="translate(172.637885 322.182437) scale(0.1 -0.1)">
       <defs>
        <path id="DejaVuSans-30" d="M 2034 4250 
Q 1547 4250 1301 3770 
Q 1056 3291 1056 2328 
Q 1056 1369 1301 889 
Q 1547 409 2034 409 
Q 2525 409 2770 889 
Q 3016 1369 3016 2328 
Q 3016 3291 2770 3770 
Q 2525 4250 2034 4250 
z
M 2034 4750 
Q 2819 4750 3233 4129 
Q 3647 3509 3647 2328 
Q 3647 1150 3233 529 
Q 2819 -91 2034 -91 
Q 1250 -91 836 529 
Q 422 1150 422 2328 
Q 422 3509 836 4129 
Q 1250 4750 2034 4750 
z
" transform="scale(0.015625)"/>
       </defs>
       <use xlink:href="#DejaVuSans-32"/>
       <use xlink:href="#DejaVuSans-36" x="63.623047"/>
       <use xlink:href="#DejaVuSans-36" x="127.246094"/>
       <use xlink:href="#DejaVuSans-2e" x="190.869141"/>
       <use xlink:href="#DejaVuSans-30" x="222.65625"/>
      </g>
     </g>
    </g>
    <g id="xtick_3">
     <g id="line2d_3">
      <g>
       <use xlink:href="#m1a821080ef" x="265.018208" y="307.584" style="stroke: #000000; stroke-width: 0.8"/>
      </g>
     </g>
     <g id="text_3">
      <!-- 266.2 -->
      <g transform="translate(250.704145 322.182437) scale(0.1 -0.1)">
       <use xlink:href="#DejaVuSans-32"/>
       <use xlink:href="#DejaVuSans-36" x="63.623047"/>
       <use xlink:href="#DejaVuSans-36" x="127.246094"/>
       <use xlink:href="#DejaVuSans-2e" x="190.869141"/>
       <use xlink:href="#DejaVuSans-32" x="222.65625"/>
      </g>
     </g>
    </g>
    <g id="xtick_4">
     <g id="line2d_4">
      <g>
       <use xlink:href="#m1a821080ef" x="343.084468" y="307.584" style="stroke: #000000; stroke-width: 0.8"/>
      </g>
     </g>
     <g id="text_4">
      <!-- 266.4 -->
      <g transform="translate(328.770405 322.182437) scale(0.1 -0.1)">
       <defs>
        <path id="DejaVuSans-34" d="M 2419 4116 
L 825 1625 
L 2419 1625 
L 2419 4116 
z
M 2253 4666 
L 3047 4666 
L 3047 1625 
L 3713 1625 
L 3713 1100 
L 3047 1100 
L 3047 0 
L 2419 0 
L 2419 1100 
L 313 1100 
L 313 1709 
L 2253 4666 
z
" transform="scale(0.015625)"/>
       </defs>
       <use xlink:href="#DejaVuSans-32"/>
       <use xlink:href="#DejaVuSans-36" x="63.623047"/>
       <use xlink:href="#DejaVuSans-36" x="127.246094"/>
       <use xlink:href="#DejaVuSans-2e" x="190.869141"/>
       <use xlink:href="#DejaVuSans-34" x="222.65625"/>
      </g>
     </g>
    </g>
    <g id="text_5">
     <!-- Time [s] -->
     <g transform="translate(215.831094 335.860562) scale(0.1 -0.1)">
      <defs>
       <path id="DejaVuSans-54" d="M -19 4666 
L 3928 4666 
L 3928 4134 
L 2272 4134 
L 2272 0 
L 1638 0 
L 1638 4134 
L -19 4134 
L -19 4666 
z
" transform="scale(0.015625)"/>
       <path id="DejaVuSans-69" d="M 603 3500 
L 1178 3500 
L 1178 0 
L 603 0 
L 603 3500 
z
M 603 4863 
L 1178 4863 
L 1178 4134 
L 603 4134 
L 603 4863 
z
" transform="scale(0.015625)"/>
       <path id="DejaVuSans-6d" d="M 3328 2828 
Q 3544 3216 3844 3400 
Q 4144 3584 4550 3584 
Q 5097 3584 5394 3201 
Q 5691 2819 5691 2113 
L 5691 0 
L 5113 0 
L 5113 2094 
Q 5113 2597 4934 2840 
Q 4756 3084 4391 3084 
Q 3944 3084 3684 2787 
Q 3425 2491 3425 1978 
L 3425 0 
L 2847 0 
L 2847 2094 
Q 2847 2600 2669 2842 
Q 2491 3084 2119 3084 
Q 1678 3084 1418 2786 
Q 1159 2488 1159 1978 
L 1159 0 
L 581 0 
L 581 3500 
L 1159 3500 
L 1159 2956 
Q 1356 3278 1631 3431 
Q 1906 3584 2284 3584 
Q 2666 3584 2933 3390 
Q 3200 3197 3328 2828 
z
" transform="scale(0.015625)"/>
       <path id="DejaVuSans-65" d="M 3597 1894 
L 3597 1613 
L 953 1613 
Q 991 1019 1311 708 
Q 1631 397 2203 397 
Q 2534 397 2845 478 
Q 3156 559 3463 722 
L 3463 178 
Q 3153 47 2828 -22 
Q 2503 -91 2169 -91 
Q 1331 -91 842 396 
Q 353 884 353 1716 
Q 353 2575 817 3079 
Q 1281 3584 2069 3584 
Q 2775 3584 3186 3129 
Q 3597 2675 3597 1894 
z
M 3022 2063 
Q 3016 2534 2758 2815 
Q 2500 3097 2075 3097 
Q 1594 3097 1305 2825 
Q 1016 2553 972 2059 
L 3022 2063 
z
" transform="scale(0.015625)"/>
       <path id="DejaVuSans-20" transform="scale(0.015625)"/>
       <path id="DejaVuSans-5b" d="M 550 4863 
L 1875 4863 
L 1875 4416 
L 1125 4416 
L 1125 -397 
L 1875 -397 
L 1875 -844 
L 550 -844 
L 550 4863 
z
" transform="scale(0.015625)"/>
       <path id="DejaVuSans-73" d="M 2834 3397 
L 2834 2853 
Q 2591 2978 2328 3040 
Q 2066 3103 1784 3103 
Q 1356 3103 1142 2972 
Q 928 2841 928 2578 
Q 928 2378 1081 2264 
Q 1234 2150 1697 2047 
L 1894 2003 
Q 2506 1872 2764 1633 
Q 3022 1394 3022 966 
Q 3022 478 2636 193 
Q 2250 -91 1575 -91 
Q 1294 -91 989 -36 
Q 684 19 347 128 
L 347 722 
Q 666 556 975 473 
Q 1284 391 1588 391 
Q 1994 391 2212 530 
Q 2431 669 2431 922 
Q 2431 1156 2273 1281 
Q 2116 1406 1581 1522 
L 1381 1569 
Q 847 1681 609 1914 
Q 372 2147 372 2553 
Q 372 3047 722 3315 
Q 1072 3584 1716 3584 
Q 2034 3584 2315 3537 
Q 2597 3491 2834 3397 
z
" transform="scale(0.015625)"/>
       <path id="DejaVuSans-5d" d="M 1947 4863 
L 1947 -844 
L 622 -844 
L 622 -397 
L 1369 -397 
L 1369 4416 
L 622 4416 
L 622 4863 
L 1947 4863 
z
" transform="scale(0.015625)"/>
      </defs>
      <use xlink:href="#DejaVuSans-54"/>
      <use xlink:href="#DejaVuSans-69" x="57.958984"/>
      <use xlink:href="#DejaVuSans-6d" x="85.742188"/>
      <use xlink:href="#DejaVuSans-65" x="183.154297"/>
      <use xlink:href="#DejaVuSans-20" x="244.677734"/>
      <use xlink:href="#DejaVuSans-5b" x="276.464844"/>
      <use xlink:href="#DejaVuSans-73" x="315.478516"/>
      <use xlink:href="#DejaVuSans-5d" x="367.578125"/>
     </g>
    </g>
   </g>
   <g id="matplotlib.axis_2">
    <g id="ytick_1">
     <g id="line2d_5">
      <defs>
       <path id="m3a9fde9c0a" d="M 0 0 
L -3.5 0 
" style="stroke: #000000; stroke-width: 0.8"/>
      </defs>
      <g>
       <use xlink:href="#m3a9fde9c0a" x="57.6" y="250.638071" style="stroke: #000000; stroke-width: 0.8"/>
      </g>
     </g>
     <g id="text_6">
      <!-- −10 -->
      <g transform="translate(29.495313 254.43729) scale(0.1 -0.1)">
       <defs>
        <path id="DejaVuSans-2212" d="M 678 2272 
L 4684 2272 
L 4684 1741 
L 678 1741 
L 678 2272 
z
" transform="scale(0.015625)"/>
        <path id="DejaVuSans-31" d="M 794 531 
L 1825 531 
L 1825 4091 
L 703 3866 
L 703 4441 
L 1819 4666 
L 2450 4666 
L 2450 531 
L 3481 531 
L 3481 0 
L 794 0 
L 794 531 
z
" transform="scale(0.015625)"/>
       </defs>
       <use xlink:href="#DejaVuSans-2212"/>
       <use xlink:href="#DejaVuSans-31" x="83.789062"/>
       <use xlink:href="#DejaVuSans-30" x="147.412109"/>
      </g>
     </g>
    </g>
    <g id="ytick_2">
     <g id="line2d_6">
      <g>
       <use xlink:href="#m3a9fde9c0a" x="57.6" y="192.508869" style="stroke: #000000; stroke-width: 0.8"/>
      </g>
     </g>
     <g id="text_7">
      <!-- 0 -->
      <g transform="translate(44.2375 196.308088) scale(0.1 -0.1)">
       <use xlink:href="#DejaVuSans-30"/>
      </g>
     </g>
    </g>
    <g id="ytick_3">
     <g id="line2d_7">
      <g>
       <use xlink:href="#m3a9fde9c0a" x="57.6" y="134.379667" style="stroke: #000000; stroke-width: 0.8"/>
      </g>
     </g>
     <g id="text_8">
      <!-- 10 -->
      <g transform="translate(37.875 138.178886) scale(0.1 -0.1)">
       <use xlink:href="#DejaVuSans-31"/>
       <use xlink:href="#DejaVuSans-30" x="63.623047"/>
      </g>
     </g>
    </g>
    <g id="ytick_4">
     <g id="line2d_8">
      <g>
       <use xlink:href="#m3a9fde9c0a" x="57.6" y="76.250465" style="stroke: #000000; stroke-width: 0.8"/>
      </g>
     </g>
     <g id="text_9">
      <!-- 20 -->
      <g transform="translate(37.875 80.049684) scale(0.1 -0.1)">
       <use xlink:href="#DejaVuSans-32"/>
       <use xlink:href="#DejaVuSans-30" x="63.623047"/>
      </g>
     </g>
    </g>
    <g id="text_10">
     <!-- Angular Velocity [rad/s] -->
     <g transform="translate(23.415625 233.24675) rotate(-90) scale(0.1 -0.1)">
      <defs>
       <path id="DejaVuSans-41" d="M 2188 4044 
L 1331 1722 
L 3047 1722 
L 2188 4044 
z
M 1831 4666 
L 2547 4666 
L 4325 0 
L 3669 0 
L 3244 1197 
L 1141 1197 
L 716 0 
L 50 0 
L 1831 4666 
z
" transform="scale(0.015625)"/>
       <path id="DejaVuSans-6e" d="M 3513 2113 
L 3513 0 
L 2938 0 
L 2938 2094 
Q 2938 2591 2744 2837 
Q 2550 3084 2163 3084 
Q 1697 3084 1428 2787 
Q 1159 2491 1159 1978 
L 1159 0 
L 581 0 
L 581 3500 
L 1159 3500 
L 1159 2956 
Q 1366 3272 1645 3428 
Q 1925 3584 2291 3584 
Q 2894 3584 3203 3211 
Q 3513 2838 3513 2113 
z
" transform="scale(0.015625)"/>
       <path id="DejaVuSans-67" d="M 2906 1791 
Q 2906 2416 2648 2759 
Q 2391 3103 1925 3103 
Q 1463 3103 1205 2759 
Q 947 2416 947 1791 
Q 947 1169 1205 825 
Q 1463 481 1925 481 
Q 2391 481 2648 825 
Q 2906 1169 2906 1791 
z
M 3481 434 
Q 3481 -459 3084 -895 
Q 2688 -1331 1869 -1331 
Q 1566 -1331 1297 -1286 
Q 1028 -1241 775 -1147 
L 775 -588 
Q 1028 -725 1275 -790 
Q 1522 -856 1778 -856 
Q 2344 -856 2625 -561 
Q 2906 -266 2906 331 
L 2906 616 
Q 2728 306 2450 153 
Q 2172 0 1784 0 
Q 1141 0 747 490 
Q 353 981 353 1791 
Q 353 2603 747 3093 
Q 1141 3584 1784 3584 
Q 2172 3584 2450 3431 
Q 2728 3278 2906 2969 
L 2906 3500 
L 3481 3500 
L 3481 434 
z
" transform="scale(0.015625)"/>
       <path id="DejaVuSans-75" d="M 544 1381 
L 544 3500 
L 1119 3500 
L 1119 1403 
Q 1119 906 1312 657 
Q 1506 409 1894 409 
Q 2359 409 2629 706 
Q 2900 1003 2900 1516 
L 2900 3500 
L 3475 3500 
L 3475 0 
L 2900 0 
L 2900 538 
Q 2691 219 2414 64 
Q 2138 -91 1772 -91 
Q 1169 -91 856 284 
Q 544 659 544 1381 
z
M 1991 3584 
L 1991 3584 
z
" transform="scale(0.015625)"/>
       <path id="DejaVuSans-6c" d="M 603 4863 
L 1178 4863 
L 1178 0 
L 603 0 
L 603 4863 
z
" transform="scale(0.015625)"/>
       <path id="DejaVuSans-61" d="M 2194 1759 
Q 1497 1759 1228 1600 
Q 959 1441 959 1056 
Q 959 750 1161 570 
Q 1363 391 1709 391 
Q 2188 391 2477 730 
Q 2766 1069 2766 1631 
L 2766 1759 
L 2194 1759 
z
M 3341 1997 
L 3341 0 
L 2766 0 
L 2766 531 
Q 2569 213 2275 61 
Q 1981 -91 1556 -91 
Q 1019 -91 701 211 
Q 384 513 384 1019 
Q 384 1609 779 1909 
Q 1175 2209 1959 2209 
L 2766 2209 
L 2766 2266 
Q 2766 2663 2505 2880 
Q 2244 3097 1772 3097 
Q 1472 3097 1187 3025 
Q 903 2953 641 2809 
L 641 3341 
Q 956 3463 1253 3523 
Q 1550 3584 1831 3584 
Q 2591 3584 2966 3190 
Q 3341 2797 3341 1997 
z
" transform="scale(0.015625)"/>
       <path id="DejaVuSans-72" d="M 2631 2963 
Q 2534 3019 2420 3045 
Q 2306 3072 2169 3072 
Q 1681 3072 1420 2755 
Q 1159 2438 1159 1844 
L 1159 0 
L 581 0 
L 581 3500 
L 1159 3500 
L 1159 2956 
Q 1341 3275 1631 3429 
Q 1922 3584 2338 3584 
Q 2397 3584 2469 3576 
Q 2541 3569 2628 3553 
L 2631 2963 
z
" transform="scale(0.015625)"/>
       <path id="DejaVuSans-56" d="M 1831 0 
L 50 4666 
L 709 4666 
L 2188 738 
L 3669 4666 
L 4325 4666 
L 2547 0 
L 1831 0 
z
" transform="scale(0.015625)"/>
       <path id="DejaVuSans-6f" d="M 1959 3097 
Q 1497 3097 1228 2736 
Q 959 2375 959 1747 
Q 959 1119 1226 758 
Q 1494 397 1959 397 
Q 2419 397 2687 759 
Q 2956 1122 2956 1747 
Q 2956 2369 2687 2733 
Q 2419 3097 1959 3097 
z
M 1959 3584 
Q 2709 3584 3137 3096 
Q 3566 2609 3566 1747 
Q 3566 888 3137 398 
Q 2709 -91 1959 -91 
Q 1206 -91 779 398 
Q 353 888 353 1747 
Q 353 2609 779 3096 
Q 1206 3584 1959 3584 
z
" transform="scale(0.015625)"/>
       <path id="DejaVuSans-63" d="M 3122 3366 
L 3122 2828 
Q 2878 2963 2633 3030 
Q 2388 3097 2138 3097 
Q 1578 3097 1268 2742 
Q 959 2388 959 1747 
Q 959 1106 1268 751 
Q 1578 397 2138 397 
Q 2388 397 2633 464 
Q 2878 531 3122 666 
L 3122 134 
Q 2881 22 2623 -34 
Q 2366 -91 2075 -91 
Q 1284 -91 818 406 
Q 353 903 353 1747 
Q 353 2603 823 3093 
Q 1294 3584 2113 3584 
Q 2378 3584 2631 3529 
Q 2884 3475 3122 3366 
z
" transform="scale(0.015625)"/>
       <path id="DejaVuSans-74" d="M 1172 4494 
L 1172 3500 
L 2356 3500 
L 2356 3053 
L 1172 3053 
L 1172 1153 
Q 1172 725 1289 603 
Q 1406 481 1766 481 
L 2356 481 
L 2356 0 
L 1766 0 
Q 1100 0 847 248 
Q 594 497 594 1153 
L 594 3053 
L 172 3053 
L 172 3500 
L 594 3500 
L 594 4494 
L 1172 4494 
z
" transform="scale(0.015625)"/>
       <path id="DejaVuSans-79" d="M 2059 -325 
Q 1816 -950 1584 -1140 
Q 1353 -1331 966 -1331 
L 506 -1331 
L 506 -850 
L 844 -850 
Q 1081 -850 1212 -737 
Q 1344 -625 1503 -206 
L 1606 56 
L 191 3500 
L 800 3500 
L 1894 763 
L 2988 3500 
L 3597 3500 
L 2059 -325 
z
" transform="scale(0.015625)"/>
       <path id="DejaVuSans-64" d="M 2906 2969 
L 2906 4863 
L 3481 4863 
L 3481 0 
L 2906 0 
L 2906 525 
Q 2725 213 2448 61 
Q 2172 -91 1784 -91 
Q 1150 -91 751 415 
Q 353 922 353 1747 
Q 353 2572 751 3078 
Q 1150 3584 1784 3584 
Q 2172 3584 2448 3432 
Q 2725 3281 2906 2969 
z
M 947 1747 
Q 947 1113 1208 752 
Q 1469 391 1925 391 
Q 2381 391 2643 752 
Q 2906 1113 2906 1747 
Q 2906 2381 2643 2742 
Q 2381 3103 1925 3103 
Q 1469 3103 1208 2742 
Q 947 2381 947 1747 
z
" transform="scale(0.015625)"/>
       <path id="DejaVuSans-2f" d="M 1625 4666 
L 2156 4666 
L 531 -594 
L 0 -594 
L 1625 4666 
z
" transform="scale(0.015625)"/>
      </defs>
      <use xlink:href="#DejaVuSans-41"/>
      <use xlink:href="#DejaVuSans-6e" x="68.408203"/>
      <use xlink:href="#DejaVuSans-67" x="131.787109"/>
      <use xlink:href="#DejaVuSans-75" x="195.263672"/>
      <use xlink:href="#DejaVuSans-6c" x="258.642578"/>
      <use xlink:href="#DejaVuSans-61" x="286.425781"/>
      <use xlink:href="#DejaVuSans-72" x="347.705078"/>
      <use xlink:href="#DejaVuSans-20" x="388.818359"/>
      <use xlink:href="#DejaVuSans-56" x="420.605469"/>
      <use xlink:href="#DejaVuSans-65" x="481.263672"/>
      <use xlink:href="#DejaVuSans-6c" x="542.787109"/>
      <use xlink:href="#DejaVuSans-6f" x="570.570312"/>
      <use xlink:href="#DejaVuSans-63" x="631.751953"/>
      <use xlink:href="#DejaVuSans-69" x="686.732422"/>
      <use xlink:href="#DejaVuSans-74" x="714.515625"/>
      <use xlink:href="#DejaVuSans-79" x="753.724609"/>
      <use xlink:href="#DejaVuSans-20" x="812.904297"/>
      <use xlink:href="#DejaVuSans-5b" x="844.691406"/>
      <use xlink:href="#DejaVuSans-72" x="883.705078"/>
      <use xlink:href="#DejaVuSans-61" x="924.818359"/>
      <use xlink:href="#DejaVuSans-64" x="986.097656"/>
      <use xlink:href="#DejaVuSans-2f" x="1049.574219"/>
      <use xlink:href="#DejaVuSans-73" x="1083.265625"/>
      <use xlink:href="#DejaVuSans-5d" x="1135.365234"/>
     </g>
    </g>
   </g>
   <g id="line2d_9">
    <path d="M 73.832727 226.304869 
L 77.744237 232.751449 
L 81.655747 239.66873 
L 85.567257 247.431468 
L 89.478767 255.417065 
L 93.390277 263.296308 
L 97.301787 270.766275 
L 101.213297 277.270032 
L 105.124807 282.217192 
L 109.036317 285.16126 
L 112.947827 285.689917 
L 116.859337 283.703889 
L 120.770847 279.555666 
L 124.682357 273.683496 
L 128.593867 266.60217 
L 132.505377 258.910701 
L 136.416496 251.058334 
L 140.328006 243.447963 
L 144.239516 236.249387 
L 148.151026 229.60003 
L 152.062536 223.557511 
L 155.974046 218.054164 
L 159.885556 213.075081 
L 163.797066 208.507953 
L 167.708576 204.319415 
L 171.620086 200.375018 
L 175.531596 196.613914 
L 179.443106 192.96228 
L 183.354616 189.329491 
L 187.266126 185.643559 
L 191.177636 181.789159 
L 195.089145 177.69907 
L 199.000655 173.346541 
L 202.912165 168.627349 
L 206.823675 163.521142 
L 210.735185 157.930544 
L 214.646695 151.869496 
L 218.558205 145.407006 
L 222.469715 138.613162 
L 226.381225 131.616216 
L 230.292735 124.670998 
L 234.204245 118.170961 
L 238.115755 112.485373 
L 242.027265 108.077503 
L 245.938775 105.376019 
L 249.850285 104.615033 
L 253.761795 105.90252 
L 257.673305 109.065195 
L 261.584815 113.790482 
L 265.496325 119.653196 
L 269.407835 126.197282 
L 273.319345 133.047704 
L 277.230855 139.856854 
L 281.142364 146.411052 
L 285.053874 152.569626 
L 288.965384 158.231366 
L 292.876894 163.426964 
L 296.788404 168.173128 
L 300.699914 172.532913 
L 304.611424 176.501895 
L 308.522934 180.167138 
L 312.434444 183.581867 
L 316.345954 186.772229 
L 320.257464 189.850867 
L 324.168974 192.838743 
L 328.080484 195.844304 
L 331.991604 198.84276 
L 335.903113 201.928182 
L 339.814623 205.129847 
L 343.726133 208.544493 
L 347.637643 212.201175 
L 351.549153 216.116299 
L 355.460663 220.390157 
L 359.372173 224.972612 
L 363.283683 229.901074 
L 367.195193 235.080775 
L 371.106703 240.434073 
L 375.018213 245.948252 
L 378.929723 251.416087 
L 382.841233 256.662442 
L 386.752743 261.443814 
L 390.664253 265.422363 
L 394.575763 268.416529 
L 398.487273 270.081548 
" clip-path="url(#pf789043f60)" style="fill: none; stroke: #4285f4; stroke-width: 1.5; stroke-linecap: square"/>
   </g>
   <g id="line2d_10">
    <path d="M 73.832727 96.006087 
L 77.744237 99.227249 
L 81.655747 104.098267 
L 85.567257 109.384143 
L 89.478767 116.37366 
L 93.390277 125.310611 
L 97.301787 136.510534 
L 101.213297 149.522103 
L 105.124807 163.884516 
L 109.036317 179.944233 
L 112.947827 196.650856 
L 116.859337 212.918068 
L 120.770847 227.915045 
L 124.682357 241.380809 
L 128.593867 253.096966 
L 132.505377 262.705251 
L 136.416496 270.194544 
L 140.328006 275.939682 
L 144.239516 280.384439 
L 148.151026 283.737223 
L 152.062536 286.096942 
L 155.974046 287.734454 
L 159.885556 288.897785 
L 163.797066 289.69905 
L 167.708576 290.19382 
L 171.620086 290.347301 
L 175.531596 290.388335 
L 179.443106 290.306644 
L 183.354616 290.058167 
L 187.266126 289.602314 
L 191.177636 288.976771 
L 195.089145 288.179308 
L 199.000655 287.133812 
L 202.912165 285.691891 
L 206.823675 283.784737 
L 210.735185 281.294127 
L 214.646695 278.105269 
L 218.558205 273.942101 
L 222.469715 268.653375 
L 226.381225 261.996864 
L 230.292735 253.865613 
L 234.204245 244.115716 
L 238.115755 232.714894 
L 242.027265 219.873859 
L 245.938775 206.038925 
L 249.850285 191.723866 
L 253.761795 177.502278 
L 257.673305 164.012607 
L 261.584815 151.737081 
L 265.496325 141.027176 
L 269.407835 131.952471 
L 273.319345 124.542025 
L 277.230855 118.5661 
L 281.142364 113.998513 
L 285.053874 110.46305 
L 288.965384 107.844432 
L 292.876894 105.925709 
L 296.788404 104.554181 
L 300.699914 103.558439 
L 304.611424 102.945213 
L 308.522934 102.535445 
L 312.434444 102.375455 
L 316.345954 102.368897 
L 320.257464 102.506374 
L 324.168974 102.706832 
L 328.080484 102.976308 
L 331.991604 103.382656 
L 335.903113 103.939098 
L 339.814623 104.610643 
L 343.726133 105.453846 
L 347.637643 106.596139 
L 351.549153 108.03067 
L 355.460663 109.817566 
L 359.372173 112.099974 
L 363.283683 115.022444 
L 367.195193 118.645014 
L 371.106703 123.034401 
L 375.018213 128.446317 
L 378.929723 134.898878 
L 382.841233 142.482324 
L 386.752743 151.265988 
L 390.664253 161.068902 
L 394.575763 171.78051 
L 398.487273 183.050146 
" clip-path="url(#pf789043f60)" style="fill: none; stroke: #ea4335; stroke-width: 1.5; stroke-linecap: square"/>
   </g>
   <g id="line2d_11">
    <path d="M 73.832727 238.405184 
L 77.744237 243.487888 
L 81.655747 249.485866 
L 85.567257 257.474363 
L 89.478767 264.915647 
L 93.390277 272.874912 
L 97.301787 280.192973 
L 101.213297 286.645606 
L 105.124807 292.119589 
L 109.036317 294.928936 
L 112.947827 295.488 
L 116.859337 293.314397 
L 120.770847 289.045068 
L 124.682357 283.096706 
L 128.593867 275.700408 
L 132.505377 267.872277 
L 136.416496 260.036696 
L 140.328006 252.600329 
L 144.239516 245.678915 
L 148.151026 239.400124 
L 152.062536 234.071246 
L 155.974046 229.578237 
L 159.885556 225.823177 
L 163.797066 222.766302 
L 167.708576 220.421118 
L 171.620086 218.848187 
L 175.531596 217.869437 
L 179.443106 217.470533 
L 183.354616 217.65015 
L 187.266126 218.478554 
L 191.177636 219.933592 
L 195.089145 221.937271 
L 199.000655 224.607204 
L 202.912165 227.943708 
L 206.823675 231.956301 
L 210.735185 236.617728 
L 214.646695 241.893451 
L 218.558205 247.802985 
L 222.469715 254.211081 
L 226.381225 260.918655 
L 230.292735 267.645072 
L 234.204245 274.037473 
L 238.115755 279.711392 
L 242.027265 284.140034 
L 245.938775 286.887708 
L 249.850285 287.620188 
L 253.761795 286.348667 
L 257.673305 283.195699 
L 261.584815 278.428158 
L 265.496325 272.49198 
L 269.407835 265.913279 
L 273.319345 259.126138 
L 277.230855 252.432911 
L 281.142364 246.089487 
L 285.053874 240.295094 
L 288.965384 235.098548 
L 292.876894 230.647288 
L 296.788404 226.826342 
L 300.699914 223.618059 
L 304.611424 220.911752 
L 308.522934 218.768567 
L 312.434444 217.079738 
L 316.345954 215.873374 
L 320.257464 215.14441 
L 324.168974 214.882526 
L 328.080484 215.056473 
L 331.991604 215.664098 
L 335.903113 216.752647 
L 339.814623 218.316251 
L 343.726133 220.371103 
L 347.637643 222.872413 
L 351.549153 225.884363 
L 355.460663 229.374905 
L 359.372173 233.365891 
L 363.283683 237.837643 
L 367.195193 242.707106 
L 371.106703 247.868201 
L 375.018213 253.322986 
L 378.929723 258.869002 
L 382.841233 264.316209 
L 386.752743 269.203442 
L 390.664253 273.310697 
L 394.575763 276.423702 
L 398.487273 278.163072 
" clip-path="url(#pf789043f60)" style="fill: none; stroke: #fbbc04; stroke-width: 1.5; stroke-linecap: square"/>
   </g>
   <g id="line2d_12">
    <path d="M 73.832727 80.431092 
L 77.744237 78.843631 
L 81.655747 77.240204 
L 85.567257 73.568854 
L 89.478767 70.04764 
L 93.390277 66.076404 
L 97.301787 62.322322 
L 101.213297 58.740255 
L 105.124807 55.435049 
L 109.036317 53.828641 
L 112.947827 53.568 
L 116.859337 55.050434 
L 120.770847 57.787008 
L 124.682357 61.421331 
L 128.593867 65.695752 
L 132.505377 69.967535 
L 136.416496 74.089651 
L 140.328006 77.763607 
L 144.239516 80.873739 
L 148.151026 83.434782 
L 152.062536 85.503371 
L 155.974046 87.177905 
L 159.885556 88.472168 
L 163.797066 89.468032 
L 167.708576 90.230171 
L 171.620086 90.882128 
L 175.531596 91.31401 
L 179.443106 91.574757 
L 183.354616 91.721678 
L 187.266126 91.768142 
L 191.177636 91.647164 
L 195.089145 91.324909 
L 199.000655 90.767149 
L 202.912165 89.995307 
L 206.823675 88.934392 
L 210.735185 87.513279 
L 214.646695 85.657855 
L 218.558205 83.387854 
L 222.469715 80.661223 
L 226.381225 77.546287 
L 230.292735 74.136256 
L 234.204245 70.7045 
L 238.115755 67.510611 
L 242.027265 64.940187 
L 245.938775 63.34788 
L 249.850285 63.001705 
L 253.761795 63.932957 
L 257.673305 66.021776 
L 261.584815 69.054233 
L 265.496325 72.693962 
L 269.407835 76.523907 
L 273.319345 80.290411 
L 277.230855 83.740038 
L 281.142364 86.869069 
L 285.053874 89.503127 
L 288.965384 91.727448 
L 292.876894 93.529377 
L 296.788404 95.010436 
L 300.699914 96.181305 
L 304.611424 97.195725 
L 308.522934 97.972595 
L 312.434444 98.660847 
L 316.345954 99.213512 
L 320.257464 99.66555 
L 324.168974 99.961069 
L 328.080484 100.120563 
L 331.991604 100.206298 
L 335.903113 100.199127 
L 339.814623 100.035044 
L 343.726133 99.707886 
L 347.637643 99.28479 
L 351.549153 98.658987 
L 355.460663 97.775969 
L 359.372173 96.650738 
L 363.283683 95.261654 
L 367.195193 93.574046 
L 371.106703 91.572343 
L 375.018213 89.270626 
L 378.929723 86.713602 
L 382.841233 83.997901 
L 386.752743 81.445557 
L 390.664253 79.222575 
L 394.575763 77.472628 
L 398.487273 76.562199 
" clip-path="url(#pf789043f60)" style="fill: none; stroke: #000000; stroke-width: 1.5; stroke-linecap: square"/>
   </g>
   <g id="patch_3">
    <path d="M 57.6 307.584 
L 57.6 41.472 
" style="fill: none; stroke: #000000; stroke-width: 0.8; stroke-linejoin: miter; stroke-linecap: square"/>
   </g>
   <g id="patch_4">
    <path d="M 414.72 307.584 
L 414.72 41.472 
" style="fill: none; stroke: #000000; stroke-width: 0.8; stroke-linejoin: miter; stroke-linecap: square"/>
   </g>
   <g id="patch_5">
    <path d="M 57.6 307.584 
L 414.72 307.584 
" style="fill: none; stroke: #000000; stroke-width: 0.8; stroke-linejoin: miter; stroke-linecap: square"/>
   </g>
   <g id="patch_6">
    <path d="M 57.6 41.472 
L 414.72 41.472 
" style="fill: none; stroke: #000000; stroke-width: 0.8; stroke-linejoin: miter; stroke-linecap: square"/>
   </g>
   <g id="text_11">
    <!-- Trial 33: Intermediate axis rotation -->
    <g transform="translate(132.362813 35.472) scale(0.12 -0.12)">
     <defs>
      <path id="DejaVuSans-33" d="M 2597 2516 
Q 3050 2419 3304 2112 
Q 3559 1806 3559 1356 
Q 3559 666 3084 287 
Q 2609 -91 1734 -91 
Q 1441 -91 1130 -33 
Q 819 25 488 141 
L 488 750 
Q 750 597 1062 519 
Q 1375 441 1716 441 
Q 2309 441 2620 675 
Q 2931 909 2931 1356 
Q 2931 1769 2642 2001 
Q 2353 2234 1838 2234 
L 1294 2234 
L 1294 2753 
L 1863 2753 
Q 2328 2753 2575 2939 
Q 2822 3125 2822 3475 
Q 2822 3834 2567 4026 
Q 2313 4219 1838 4219 
Q 1578 4219 1281 4162 
Q 984 4106 628 3988 
L 628 4550 
Q 988 4650 1302 4700 
Q 1616 4750 1894 4750 
Q 2613 4750 3031 4423 
Q 3450 4097 3450 3541 
Q 3450 3153 3228 2886 
Q 3006 2619 2597 2516 
z
" transform="scale(0.015625)"/>
      <path id="DejaVuSans-3a" d="M 750 794 
L 1409 794 
L 1409 0 
L 750 0 
L 750 794 
z
M 750 3309 
L 1409 3309 
L 1409 2516 
L 750 2516 
L 750 3309 
z
" transform="scale(0.015625)"/>
      <path id="DejaVuSans-49" d="M 628 4666 
L 1259 4666 
L 1259 0 
L 628 0 
L 628 4666 
z
" transform="scale(0.015625)"/>
      <path id="DejaVuSans-78" d="M 3513 3500 
L 2247 1797 
L 3578 0 
L 2900 0 
L 1881 1375 
L 863 0 
L 184 0 
L 1544 1831 
L 300 3500 
L 978 3500 
L 1906 2253 
L 2834 3500 
L 3513 3500 
z
" transform="scale(0.015625)"/>
     </defs>
     <use xlink:href="#DejaVuSans-54"/>
     <use xlink:href="#DejaVuSans-72" x="46.333984"/>
     <use xlink:href="#DejaVuSans-69" x="87.447266"/>
     <use xlink:href="#DejaVuSans-61" x="115.230469"/>
     <use xlink:href="#DejaVuSans-6c" x="176.509766"/>
     <use xlink:href="#DejaVuSans-20" x="204.292969"/>
     <use xlink:href="#DejaVuSans-33" x="236.080078"/>
     <use xlink:href="#DejaVuSans-33" x="299.703125"/>
     <use xlink:href="#DejaVuSans-3a" x="363.326172"/>
     <use xlink:href="#DejaVuSans-20" x="397.017578"/>
     <use xlink:href="#DejaVuSans-49" x="428.804688"/>
     <use xlink:href="#DejaVuSans-6e" x="458.296875"/>
     <use xlink:href="#DejaVuSans-74" x="521.675781"/>
     <use xlink:href="#DejaVuSans-65" x="560.884766"/>
     <use xlink:href="#DejaVuSans-72" x="622.408203"/>
     <use xlink:href="#DejaVuSans-6d" x="661.771484"/>
     <use xlink:href="#DejaVuSans-65" x="759.183594"/>
     <use xlink:href="#DejaVuSans-64" x="820.707031"/>
     <use xlink:href="#DejaVuSans-69" x="884.183594"/>
     <use xlink:href="#DejaVuSans-61" x="911.966797"/>
     <use xlink:href="#DejaVuSans-74" x="973.246094"/>
     <use xlink:href="#DejaVuSans-65" x="1012.455078"/>
     <use xlink:href="#DejaVuSans-20" x="1073.978516"/>
     <use xlink:href="#DejaVuSans-61" x="1105.765625"/>
     <use xlink:href="#DejaVuSans-78" x="1167.044922"/>
     <use xlink:href="#DejaVuSans-69" x="1226.224609"/>
     <use xlink:href="#DejaVuSans-73" x="1254.007812"/>
     <use xlink:href="#DejaVuSans-20" x="1306.107422"/>
     <use xlink:href="#DejaVuSans-72" x="1337.894531"/>
     <use xlink:href="#DejaVuSans-6f" x="1376.757812"/>
     <use xlink:href="#DejaVuSans-74" x="1437.939453"/>
     <use xlink:href="#DejaVuSans-61" x="1477.148438"/>
     <use xlink:href="#DejaVuSans-74" x="1538.427734"/>
     <use xlink:href="#DejaVuSans-69" x="1577.636719"/>
     <use xlink:href="#DejaVuSans-6f" x="1605.419922"/>
     <use xlink:href="#DejaVuSans-6e" x="1666.601562"/>
    </g>
   </g>
   <g id="legend_1">
    <g id="patch_7">
     <path d="M 64.6 205.38425 
L 185.04375 205.38425 
Q 187.04375 205.38425 187.04375 203.38425 
L 187.04375 145.67175 
Q 187.04375 143.67175 185.04375 143.67175 
L 64.6 143.67175 
Q 62.6 143.67175 62.6 145.67175 
L 62.6 203.38425 
Q 62.6 205.38425 64.6 205.38425 
z
" style="fill: #ffffff; opacity: 0.8; stroke: #cccccc; stroke-linejoin: miter"/>
    </g>
    <g id="line2d_13">
     <path d="M 66.6 151.770188 
L 76.6 151.770188 
L 86.6 151.770188 
" style="fill: none; stroke: #4285f4; stroke-width: 1.5; stroke-linecap: square"/>
    </g>
    <g id="text_12">
     <!-- Primary Axis -->
     <g transform="translate(94.6 155.270188) scale(0.1 -0.1)">
      <defs>
       <path id="DejaVuSans-50" d="M 1259 4147 
L 1259 2394 
L 2053 2394 
Q 2494 2394 2734 2622 
Q 2975 2850 2975 3272 
Q 2975 3691 2734 3919 
Q 2494 4147 2053 4147 
L 1259 4147 
z
M 628 4666 
L 2053 4666 
Q 2838 4666 3239 4311 
Q 3641 3956 3641 3272 
Q 3641 2581 3239 2228 
Q 2838 1875 2053 1875 
L 1259 1875 
L 1259 0 
L 628 0 
L 628 4666 
z
" transform="scale(0.015625)"/>
      </defs>
      <use xlink:href="#DejaVuSans-50"/>
      <use xlink:href="#DejaVuSans-72" x="58.552734"/>
      <use xlink:href="#DejaVuSans-69" x="99.666016"/>
      <use xlink:href="#DejaVuSans-6d" x="127.449219"/>
      <use xlink:href="#DejaVuSans-61" x="224.861328"/>
      <use xlink:href="#DejaVuSans-72" x="286.140625"/>
      <use xlink:href="#DejaVuSans-79" x="327.253906"/>
      <use xlink:href="#DejaVuSans-20" x="386.433594"/>
      <use xlink:href="#DejaVuSans-41" x="418.220703"/>
      <use xlink:href="#DejaVuSans-78" x="486.628906"/>
      <use xlink:href="#DejaVuSans-69" x="545.808594"/>
      <use xlink:href="#DejaVuSans-73" x="573.591797"/>
     </g>
    </g>
    <g id="line2d_14">
     <path d="M 66.6 166.448313 
L 76.6 166.448313 
L 86.6 166.448313 
" style="fill: none; stroke: #ea4335; stroke-width: 1.5; stroke-linecap: square"/>
    </g>
    <g id="text_13">
     <!-- Intermediate Axis -->
     <g transform="translate(94.6 169.948313) scale(0.1 -0.1)">
      <use xlink:href="#DejaVuSans-49"/>
      <use xlink:href="#DejaVuSans-6e" x="29.492188"/>
      <use xlink:href="#DejaVuSans-74" x="92.871094"/>
      <use xlink:href="#DejaVuSans-65" x="132.080078"/>
      <use xlink:href="#DejaVuSans-72" x="193.603516"/>
      <use xlink:href="#DejaVuSans-6d" x="232.966797"/>
      <use xlink:href="#DejaVuSans-65" x="330.378906"/>
      <use xlink:href="#DejaVuSans-64" x="391.902344"/>
      <use xlink:href="#DejaVuSans-69" x="455.378906"/>
      <use xlink:href="#DejaVuSans-61" x="483.162109"/>
      <use xlink:href="#DejaVuSans-74" x="544.441406"/>
      <use xlink:href="#DejaVuSans-65" x="583.650391"/>
      <use xlink:href="#DejaVuSans-20" x="645.173828"/>
      <use xlink:href="#DejaVuSans-41" x="676.960938"/>
      <use xlink:href="#DejaVuSans-78" x="745.369141"/>
      <use xlink:href="#DejaVuSans-69" x="804.548828"/>
      <use xlink:href="#DejaVuSans-73" x="832.332031"/>
     </g>
    </g>
    <g id="line2d_15">
     <path d="M 66.6 181.126438 
L 76.6 181.126438 
L 86.6 181.126438 
" style="fill: none; stroke: #fbbc04; stroke-width: 1.5; stroke-linecap: square"/>
    </g>
    <g id="text_14">
     <!-- Tertiary Axis -->
     <g transform="translate(94.6 184.626438) scale(0.1 -0.1)">
      <use xlink:href="#DejaVuSans-54"/>
      <use xlink:href="#DejaVuSans-65" x="44.083984"/>
      <use xlink:href="#DejaVuSans-72" x="105.607422"/>
      <use xlink:href="#DejaVuSans-74" x="146.720703"/>
      <use xlink:href="#DejaVuSans-69" x="185.929688"/>
      <use xlink:href="#DejaVuSans-61" x="213.712891"/>
      <use xlink:href="#DejaVuSans-72" x="274.992188"/>
      <use xlink:href="#DejaVuSans-79" x="316.105469"/>
      <use xlink:href="#DejaVuSans-20" x="375.285156"/>
      <use xlink:href="#DejaVuSans-41" x="407.072266"/>
      <use xlink:href="#DejaVuSans-78" x="475.480469"/>
      <use xlink:href="#DejaVuSans-69" x="534.660156"/>
      <use xlink:href="#DejaVuSans-73" x="562.443359"/>
     </g>
    </g>
    <g id="line2d_16">
     <path d="M 66.6 195.804563 
L 76.6 195.804563 
L 86.6 195.804563 
" style="fill: none; stroke: #000000; stroke-width: 1.5; stroke-linecap: square"/>
    </g>
    <g id="text_15">
     <!-- Absolute -->
     <g transform="translate(94.6 199.304563) scale(0.1 -0.1)">
      <defs>
       <path id="DejaVuSans-62" d="M 3116 1747 
Q 3116 2381 2855 2742 
Q 2594 3103 2138 3103 
Q 1681 3103 1420 2742 
Q 1159 2381 1159 1747 
Q 1159 1113 1420 752 
Q 1681 391 2138 391 
Q 2594 391 2855 752 
Q 3116 1113 3116 1747 
z
M 1159 2969 
Q 1341 3281 1617 3432 
Q 1894 3584 2278 3584 
Q 2916 3584 3314 3078 
Q 3713 2572 3713 1747 
Q 3713 922 3314 415 
Q 2916 -91 2278 -91 
Q 1894 -91 1617 61 
Q 1341 213 1159 525 
L 1159 0 
L 581 0 
L 581 4863 
L 1159 4863 
L 1159 2969 
z
" transform="scale(0.015625)"/>
      </defs>
      <use xlink:href="#DejaVuSans-41"/>
      <use xlink:href="#DejaVuSans-62" x="68.408203"/>
      <use xlink:href="#DejaVuSans-73" x="131.884766"/>
      <use xlink:href="#DejaVuSans-6f" x="183.984375"/>
      <use xlink:href="#DejaVuSans-6c" x="245.166016"/>
      <use xlink:href="#DejaVuSans-75" x="272.949219"/>
      <use xlink:href="#DejaVuSans-74" x="336.328125"/>
      <use xlink:href="#DejaVuSans-65" x="375.537109"/>
     </g>
    </g>
   </g>
  </g>
 </g>
 <defs>
  <clipPath id="pf789043f60">
   <rect x="57.6" y="41.472" width="357.12" height="266.112"/>
  </clipPath>
 </defs>
</svg>
