<?xml version="1.0" encoding="UTF-8" standalone="no"?>
<!DOCTYPE svg PUBLIC "-//W3C//DTD SVG 1.1//EN" "http://www.w3.org/Graphics/SVG/1.1/DTD/svg11.dtd">
<svg xmlns:xlink="http://www.w3.org/1999/xlink" width="460.8pt" height="345.6pt" viewBox="0 0 460.8 345.6" xmlns="http://www.w3.org/2000/svg" version="1.1">
 <metadata>
  <rdf:RDF xmlns:dc="http://purl.org/dc/elements/1.1/" xmlns:cc="http://creativecommons.org/ns#" xmlns:rdf="http://www.w3.org/1999/02/22-rdf-syntax-ns#">
   <cc:Work>
    <dc:type rdf:resource="http://purl.org/dc/dcmitype/StillImage"/>
    <dc:date>2025-03-10T22:53:36.910889</dc:date>
    <dc:format>image/svg+xml</dc:format>
    <dc:creator>
     <cc:Agent>
      <dc:title>Matplotlib v3.10.0, https://matplotlib.org/</dc:title>
     </cc:Agent>
    </dc:creator>
   </cc:Work>
  </rdf:RDF>
 </metadata>
 <defs>
  <style type="text/css">*{stroke-linejoin: round; stroke-linecap: butt}</style>
 </defs>
 <g id="figure_1">
  <g id="patch_1">
   <path d="M 0 345.6  L 460.8 345.6  L 460.8 0  L 0 0  z " style="fill: #ffffff"/>
  </g>
  <g id="axes_1">
   <g id="patch_2">
    <path d="M 57.6 307.584  L 414.72 307.584  L 414.72 41.472  L 57.6 41.472  z " style="fill: #ffffff"/>
   </g>
   <g id="matplotlib.axis_1">
    <g id="xtick_1">
     <g id="line2d_1">
      <defs>
       <path id="m45066c6aef" d="M 0 0  L 0 3.5  " style="stroke: #000000; stroke-width: 0.8"/>
      </defs>
      <g>
       <use xlink:href="#m45066c6aef" x="109.642792" y="307.584" style="stroke: #000000; stroke-width: 0.8"/>
      </g>
     </g>
     <g id="text_1">
      <!-- 34.8 -->
      <g transform="translate(98.50998 322.182437) scale(0.1 -0.1)">
       <defs>
        <path id="DejaVuSans-33" d="M 2597 2516  Q 3050 2419 3304 2112  Q 3559 1806 3559 1356  Q 3559 666 3084 287  Q 2609 -91 1734 -91  Q 1441 -91 1130 -33  Q 819 25 488 141  L 488 750  Q 750 597 1062 519  Q 1375 441 1716 441  Q 2309 441 2620 675  Q 2931 909 2931 1356  Q 2931 1769 2642 2001  Q 2353 2234 1838 2234  L 1294 2234  L 1294 2753  L 1863 2753  Q 2328 2753 2575 2939  Q 2822 3125 2822 3475  Q 2822 3834 2567 4026  Q 2313 4219 1838 4219  Q 1578 4219 1281 4162  Q 984 4106 628 3988  L 628 4550  Q 988 4650 1302 4700  Q 1616 4750 1894 4750  Q 2613 4750 3031 4423  Q 3450 4097 3450 3541  Q 3450 3153 3228 2886  Q 3006 2619 2597 2516  z " transform="scale(0.015625)"/>
        <path id="DejaVuSans-34" d="M 2419 4116  L 825 1625  L 2419 1625  L 2419 4116  z M 2253 4666  L 3047 4666  L 3047 1625  L 3713 1625  L 3713 1100  L 3047 1100  L 3047 0  L 2419 0  L 2419 1100  L 313 1100  L 313 1709  L 2253 4666  z " transform="scale(0.015625)"/>
        <path id="DejaVuSans-2e" d="M 684 794  L 1344 794  L 1344 0  L 684 0  L 684 794  z " transform="scale(0.015625)"/>
        <path id="DejaVuSans-38" d="M 2034 2216  Q 1584 2216 1326 1975  Q 1069 1734 1069 1313  Q 1069 891 1326 650  Q 1584 409 2034 409  Q 2484 409 2743 651  Q 3003 894 3003 1313  Q 3003 1734 2745 1975  Q 2488 2216 2034 2216  z M 1403 2484  Q 997 2584 770 2862  Q 544 3141 544 3541  Q 544 4100 942 4425  Q 1341 4750 2034 4750  Q 2731 4750 3128 4425  Q 3525 4100 3525 3541  Q 3525 3141 3298 2862  Q 3072 2584 2669 2484  Q 3125 2378 3379 2068  Q 3634 1759 3634 1313  Q 3634 634 3220 271  Q 2806 -91 2034 -91  Q 1263 -91 848 271  Q 434 634 434 1313  Q 434 1759 690 2068  Q 947 2378 1403 2484  z M 1172 3481  Q 1172 3119 1398 2916  Q 1625 2713 2034 2713  Q 2441 2713 2670 2916  Q 2900 3119 2900 3481  Q 2900 3844 2670 4047  Q 2441 4250 2034 4250  Q 1625 4250 1398 4047  Q 1172 3844 1172 3481  z " transform="scale(0.015625)"/>
       </defs>
       <use xlink:href="#DejaVuSans-33"/>
       <use xlink:href="#DejaVuSans-34" transform="translate(63.623047 0)"/>
       <use xlink:href="#DejaVuSans-2e" transform="translate(127.246094 0)"/>
       <use xlink:href="#DejaVuSans-38" transform="translate(159.033203 0)"/>
      </g>
     </g>
    </g>
    <g id="xtick_2">
     <g id="line2d_2">
      <g>
       <use xlink:href="#m45066c6aef" x="186.792288" y="307.584" style="stroke: #000000; stroke-width: 0.8"/>
      </g>
     </g>
     <g id="text_2">
      <!-- 35.0 -->
      <g transform="translate(175.659476 322.182437) scale(0.1 -0.1)">
       <defs>
        <path id="DejaVuSans-35" d="M 691 4666  L 3169 4666  L 3169 4134  L 1269 4134  L 1269 2991  Q 1406 3038 1543 3061  Q 1681 3084 1819 3084  Q 2600 3084 3056 2656  Q 3513 2228 3513 1497  Q 3513 744 3044 326  Q 2575 -91 1722 -91  Q 1428 -91 1123 -41  Q 819 9 494 109  L 494 744  Q 775 591 1075 516  Q 1375 441 1709 441  Q 2250 441 2565 725  Q 2881 1009 2881 1497  Q 2881 1984 2565 2268  Q 2250 2553 1709 2553  Q 1456 2553 1204 2497  Q 953 2441 691 2322  L 691 4666  z " transform="scale(0.015625)"/>
        <path id="DejaVuSans-30" d="M 2034 4250  Q 1547 4250 1301 3770  Q 1056 3291 1056 2328  Q 1056 1369 1301 889  Q 1547 409 2034 409  Q 2525 409 2770 889  Q 3016 1369 3016 2328  Q 3016 3291 2770 3770  Q 2525 4250 2034 4250  z M 2034 4750  Q 2819 4750 3233 4129  Q 3647 3509 3647 2328  Q 3647 1150 3233 529  Q 2819 -91 2034 -91  Q 1250 -91 836 529  Q 422 1150 422 2328  Q 422 3509 836 4129  Q 1250 4750 2034 4750  z " transform="scale(0.015625)"/>
       </defs>
       <use xlink:href="#DejaVuSans-33"/>
       <use xlink:href="#DejaVuSans-35" transform="translate(63.623047 0)"/>
       <use xlink:href="#DejaVuSans-2e" transform="translate(127.246094 0)"/>
       <use xlink:href="#DejaVuSans-30" transform="translate(159.033203 0)"/>
      </g>
     </g>
    </g>
    <g id="xtick_3">
     <g id="line2d_3">
      <g>
       <use xlink:href="#m45066c6aef" x="263.941784" y="307.584" style="stroke: #000000; stroke-width: 0.8"/>
      </g>
     </g>
     <g id="text_3">
      <!-- 35.2 -->
      <g transform="translate(252.808972 322.182437) scale(0.1 -0.1)">
       <defs>
        <path id="DejaVuSans-32" d="M 1228 531  L 3431 531  L 3431 0  L 469 0  L 469 531  Q 828 903 1448 1529  Q 2069 2156 2228 2338  Q 2531 2678 2651 2914  Q 2772 3150 2772 3378  Q 2772 3750 2511 3984  Q 2250 4219 1831 4219  Q 1534 4219 1204 4116  Q 875 4013 500 3803  L 500 4441  Q 881 4594 1212 4672  Q 1544 4750 1819 4750  Q 2544 4750 2975 4387  Q 3406 4025 3406 3419  Q 3406 3131 3298 2873  Q 3191 2616 2906 2266  Q 2828 2175 2409 1742  Q 1991 1309 1228 531  z " transform="scale(0.015625)"/>
       </defs>
       <use xlink:href="#DejaVuSans-33"/>
       <use xlink:href="#DejaVuSans-35" transform="translate(63.623047 0)"/>
       <use xlink:href="#DejaVuSans-2e" transform="translate(127.246094 0)"/>
       <use xlink:href="#DejaVuSans-32" transform="translate(159.033203 0)"/>
      </g>
     </g>
    </g>
    <g id="xtick_4">
     <g id="line2d_4">
      <g>
       <use xlink:href="#m45066c6aef" x="341.09128" y="307.584" style="stroke: #000000; stroke-width: 0.8"/>
      </g>
     </g>
     <g id="text_4">
      <!-- 35.4 -->
      <g transform="translate(329.958468 322.182437) scale(0.1 -0.1)">
       <use xlink:href="#DejaVuSans-33"/>
       <use xlink:href="#DejaVuSans-35" transform="translate(63.623047 0)"/>
       <use xlink:href="#DejaVuSans-2e" transform="translate(127.246094 0)"/>
       <use xlink:href="#DejaVuSans-34" transform="translate(159.033203 0)"/>
      </g>
     </g>
    </g>
    <g id="text_5">
     <!-- Time [s] -->
     <g transform="translate(215.831094 335.860562) scale(0.1 -0.1)">
      <defs>
       <path id="DejaVuSans-54" d="M -19 4666  L 3928 4666  L 3928 4134  L 2272 4134  L 2272 0  L 1638 0  L 1638 4134  L -19 4134  L -19 4666  z " transform="scale(0.015625)"/>
       <path id="DejaVuSans-69" d="M 603 3500  L 1178 3500  L 1178 0  L 603 0  L 603 3500  z M 603 4863  L 1178 4863  L 1178 4134  L 603 4134  L 603 4863  z " transform="scale(0.015625)"/>
       <path id="DejaVuSans-6d" d="M 3328 2828  Q 3544 3216 3844 3400  Q 4144 3584 4550 3584  Q 5097 3584 5394 3201  Q 5691 2819 5691 2113  L 5691 0  L 5113 0  L 5113 2094  Q 5113 2597 4934 2840  Q 4756 3084 4391 3084  Q 3944 3084 3684 2787  Q 3425 2491 3425 1978  L 3425 0  L 2847 0  L 2847 2094  Q 2847 2600 2669 2842  Q 2491 3084 2119 3084  Q 1678 3084 1418 2786  Q 1159 2488 1159 1978  L 1159 0  L 581 0  L 581 3500  L 1159 3500  L 1159 2956  Q 1356 3278 1631 3431  Q 1906 3584 2284 3584  Q 2666 3584 2933 3390  Q 3200 3197 3328 2828  z " transform="scale(0.015625)"/>
       <path id="DejaVuSans-65" d="M 3597 1894  L 3597 1613  L 953 1613  Q 991 1019 1311 708  Q 1631 397 2203 397  Q 2534 397 2845 478  Q 3156 559 3463 722  L 3463 178  Q 3153 47 2828 -22  Q 2503 -91 2169 -91  Q 1331 -91 842 396  Q 353 884 353 1716  Q 353 2575 817 3079  Q 1281 3584 2069 3584  Q 2775 3584 3186 3129  Q 3597 2675 3597 1894  z M 3022 2063  Q 3016 2534 2758 2815  Q 2500 3097 2075 3097  Q 1594 3097 1305 2825  Q 1016 2553 972 2059  L 3022 2063  z " transform="scale(0.015625)"/>
       <path id="DejaVuSans-20" transform="scale(0.015625)"/>
       <path id="DejaVuSans-5b" d="M 550 4863  L 1875 4863  L 1875 4416  L 1125 4416  L 1125 -397  L 1875 -397  L 1875 -844  L 550 -844  L 550 4863  z " transform="scale(0.015625)"/>
       <path id="DejaVuSans-73" d="M 2834 3397  L 2834 2853  Q 2591 2978 2328 3040  Q 2066 3103 1784 3103  Q 1356 3103 1142 2972  Q 928 2841 928 2578  Q 928 2378 1081 2264  Q 1234 2150 1697 2047  L 1894 2003  Q 2506 1872 2764 1633  Q 3022 1394 3022 966  Q 3022 478 2636 193  Q 2250 -91 1575 -91  Q 1294 -91 989 -36  Q 684 19 347 128  L 347 722  Q 666 556 975 473  Q 1284 391 1588 391  Q 1994 391 2212 530  Q 2431 669 2431 922  Q 2431 1156 2273 1281  Q 2116 1406 1581 1522  L 1381 1569  Q 847 1681 609 1914  Q 372 2147 372 2553  Q 372 3047 722 3315  Q 1072 3584 1716 3584  Q 2034 3584 2315 3537  Q 2597 3491 2834 3397  z " transform="scale(0.015625)"/>
       <path id="DejaVuSans-5d" d="M 1947 4863  L 1947 -844  L 622 -844  L 622 -397  L 1369 -397  L 1369 4416  L 622 4416  L 622 4863  L 1947 4863  z " transform="scale(0.015625)"/>
      </defs>
      <use xlink:href="#DejaVuSans-54"/>
      <use xlink:href="#DejaVuSans-69" transform="translate(57.958984 0)"/>
      <use xlink:href="#DejaVuSans-6d" transform="translate(85.742188 0)"/>
      <use xlink:href="#DejaVuSans-65" transform="translate(183.154297 0)"/>
      <use xlink:href="#DejaVuSans-20" transform="translate(244.677734 0)"/>
      <use xlink:href="#DejaVuSans-5b" transform="translate(276.464844 0)"/>
      <use xlink:href="#DejaVuSans-73" transform="translate(315.478516 0)"/>
      <use xlink:href="#DejaVuSans-5d" transform="translate(367.578125 0)"/>
     </g>
    </g>
   </g>
   <g id="matplotlib.axis_2">
    <g id="ytick_1">
     <g id="line2d_5">
      <defs>
       <path id="m9570e0f41f" d="M 0 0  L -3.5 0  " style="stroke: #000000; stroke-width: 0.8"/>
      </defs>
      <g>
       <use xlink:href="#m9570e0f41f" x="57.6" y="280.365765" style="stroke: #000000; stroke-width: 0.8"/>
      </g>
     </g>
     <g id="text_6">
      <!-- −10 -->
      <g transform="translate(29.495313 284.164984) scale(0.1 -0.1)">
       <defs>
        <path id="DejaVuSans-2212" d="M 678 2272  L 4684 2272  L 4684 1741  L 678 1741  L 678 2272  z " transform="scale(0.015625)"/>
        <path id="DejaVuSans-31" d="M 794 531  L 1825 531  L 1825 4091  L 703 3866  L 703 4441  L 1819 4666  L 2450 4666  L 2450 531  L 3481 531  L 3481 0  L 794 0  L 794 531  z " transform="scale(0.015625)"/>
       </defs>
       <use xlink:href="#DejaVuSans-2212"/>
       <use xlink:href="#DejaVuSans-31" transform="translate(83.789062 0)"/>
       <use xlink:href="#DejaVuSans-30" transform="translate(147.412109 0)"/>
      </g>
     </g>
    </g>
    <g id="ytick_2">
     <g id="line2d_6">
      <g>
       <use xlink:href="#m9570e0f41f" x="57.6" y="221.790902" style="stroke: #000000; stroke-width: 0.8"/>
      </g>
     </g>
     <g id="text_7">
      <!-- −5 -->
      <g transform="translate(35.857813 225.590121) scale(0.1 -0.1)">
       <use xlink:href="#DejaVuSans-2212"/>
       <use xlink:href="#DejaVuSans-35" transform="translate(83.789062 0)"/>
      </g>
     </g>
    </g>
    <g id="ytick_3">
     <g id="line2d_7">
      <g>
       <use xlink:href="#m9570e0f41f" x="57.6" y="163.216039" style="stroke: #000000; stroke-width: 0.8"/>
      </g>
     </g>
     <g id="text_8">
      <!-- 0 -->
      <g transform="translate(44.2375 167.015258) scale(0.1 -0.1)">
       <use xlink:href="#DejaVuSans-30"/>
      </g>
     </g>
    </g>
    <g id="ytick_4">
     <g id="line2d_8">
      <g>
       <use xlink:href="#m9570e0f41f" x="57.6" y="104.641176" style="stroke: #000000; stroke-width: 0.8"/>
      </g>
     </g>
     <g id="text_9">
      <!-- 5 -->
      <g transform="translate(44.2375 108.440395) scale(0.1 -0.1)">
       <use xlink:href="#DejaVuSans-35"/>
      </g>
     </g>
    </g>
    <g id="ytick_5">
     <g id="line2d_9">
      <g>
       <use xlink:href="#m9570e0f41f" x="57.6" y="46.066313" style="stroke: #000000; stroke-width: 0.8"/>
      </g>
     </g>
     <g id="text_10">
      <!-- 10 -->
      <g transform="translate(37.875 49.865532) scale(0.1 -0.1)">
       <use xlink:href="#DejaVuSans-31"/>
       <use xlink:href="#DejaVuSans-30" transform="translate(63.623047 0)"/>
      </g>
     </g>
    </g>
    <g id="text_11">
     <!-- Angular Velocity [rad/s] -->
     <g transform="translate(23.415625 233.24675) rotate(-90) scale(0.1 -0.1)">
      <defs>
       <path id="DejaVuSans-41" d="M 2188 4044  L 1331 1722  L 3047 1722  L 2188 4044  z M 1831 4666  L 2547 4666  L 4325 0  L 3669 0  L 3244 1197  L 1141 1197  L 716 0  L 50 0  L 1831 4666  z " transform="scale(0.015625)"/>
       <path id="DejaVuSans-6e" d="M 3513 2113  L 3513 0  L 2938 0  L 2938 2094  Q 2938 2591 2744 2837  Q 2550 3084 2163 3084  Q 1697 3084 1428 2787  Q 1159 2491 1159 1978  L 1159 0  L 581 0  L 581 3500  L 1159 3500  L 1159 2956  Q 1366 3272 1645 3428  Q 1925 3584 2291 3584  Q 2894 3584 3203 3211  Q 3513 2838 3513 2113  z " transform="scale(0.015625)"/>
       <path id="DejaVuSans-67" d="M 2906 1791  Q 2906 2416 2648 2759  Q 2391 3103 1925 3103  Q 1463 3103 1205 2759  Q 947 2416 947 1791  Q 947 1169 1205 825  Q 1463 481 1925 481  Q 2391 481 2648 825  Q 2906 1169 2906 1791  z M 3481 434  Q 3481 -459 3084 -895  Q 2688 -1331 1869 -1331  Q 1566 -1331 1297 -1286  Q 1028 -1241 775 -1147  L 775 -588  Q 1028 -725 1275 -790  Q 1522 -856 1778 -856  Q 2344 -856 2625 -561  Q 2906 -266 2906 331  L 2906 616  Q 2728 306 2450 153  Q 2172 0 1784 0  Q 1141 0 747 490  Q 353 981 353 1791  Q 353 2603 747 3093  Q 1141 3584 1784 3584  Q 2172 3584 2450 3431  Q 2728 3278 2906 2969  L 2906 3500  L 3481 3500  L 3481 434  z " transform="scale(0.015625)"/>
       <path id="DejaVuSans-75" d="M 544 1381  L 544 3500  L 1119 3500  L 1119 1403  Q 1119 906 1312 657  Q 1506 409 1894 409  Q 2359 409 2629 706  Q 2900 1003 2900 1516  L 2900 3500  L 3475 3500  L 3475 0  L 2900 0  L 2900 538  Q 2691 219 2414 64  Q 2138 -91 1772 -91  Q 1169 -91 856 284  Q 544 659 544 1381  z M 1991 3584  L 1991 3584  z " transform="scale(0.015625)"/>
       <path id="DejaVuSans-6c" d="M 603 4863  L 1178 4863  L 1178 0  L 603 0  L 603 4863  z " transform="scale(0.015625)"/>
       <path id="DejaVuSans-61" d="M 2194 1759  Q 1497 1759 1228 1600  Q 959 1441 959 1056  Q 959 750 1161 570  Q 1363 391 1709 391  Q 2188 391 2477 730  Q 2766 1069 2766 1631  L 2766 1759  L 2194 1759  z M 3341 1997  L 3341 0  L 2766 0  L 2766 531  Q 2569 213 2275 61  Q 1981 -91 1556 -91  Q 1019 -91 701 211  Q 384 513 384 1019  Q 384 1609 779 1909  Q 1175 2209 1959 2209  L 2766 2209  L 2766 2266  Q 2766 2663 2505 2880  Q 2244 3097 1772 3097  Q 1472 3097 1187 3025  Q 903 2953 641 2809  L 641 3341  Q 956 3463 1253 3523  Q 1550 3584 1831 3584  Q 2591 3584 2966 3190  Q 3341 2797 3341 1997  z " transform="scale(0.015625)"/>
       <path id="DejaVuSans-72" d="M 2631 2963  Q 2534 3019 2420 3045  Q 2306 3072 2169 3072  Q 1681 3072 1420 2755  Q 1159 2438 1159 1844  L 1159 0  L 581 0  L 581 3500  L 1159 3500  L 1159 2956  Q 1341 3275 1631 3429  Q 1922 3584 2338 3584  Q 2397 3584 2469 3576  Q 2541 3569 2628 3553  L 2631 2963  z " transform="scale(0.015625)"/>
       <path id="DejaVuSans-56" d="M 1831 0  L 50 4666  L 709 4666  L 2188 738  L 3669 4666  L 4325 4666  L 2547 0  L 1831 0  z " transform="scale(0.015625)"/>
       <path id="DejaVuSans-6f" d="M 1959 3097  Q 1497 3097 1228 2736  Q 959 2375 959 1747  Q 959 1119 1226 758  Q 1494 397 1959 397  Q 2419 397 2687 759  Q 2956 1122 2956 1747  Q 2956 2369 2687 2733  Q 2419 3097 1959 3097  z M 1959 3584  Q 2709 3584 3137 3096  Q 3566 2609 3566 1747  Q 3566 888 3137 398  Q 2709 -91 1959 -91  Q 1206 -91 779 398  Q 353 888 353 1747  Q 353 2609 779 3096  Q 1206 3584 1959 3584  z " transform="scale(0.015625)"/>
       <path id="DejaVuSans-63" d="M 3122 3366  L 3122 2828  Q 2878 2963 2633 3030  Q 2388 3097 2138 3097  Q 1578 3097 1268 2742  Q 959 2388 959 1747  Q 959 1106 1268 751  Q 1578 397 2138 397  Q 2388 397 2633 464  Q 2878 531 3122 666  L 3122 134  Q 2881 22 2623 -34  Q 2366 -91 2075 -91  Q 1284 -91 818 406  Q 353 903 353 1747  Q 353 2603 823 3093  Q 1294 3584 2113 3584  Q 2378 3584 2631 3529  Q 2884 3475 3122 3366  z " transform="scale(0.015625)"/>
       <path id="DejaVuSans-74" d="M 1172 4494  L 1172 3500  L 2356 3500  L 2356 3053  L 1172 3053  L 1172 1153  Q 1172 725 1289 603  Q 1406 481 1766 481  L 2356 481  L 2356 0  L 1766 0  Q 1100 0 847 248  Q 594 497 594 1153  L 594 3053  L 172 3053  L 172 3500  L 594 3500  L 594 4494  L 1172 4494  z " transform="scale(0.015625)"/>
       <path id="DejaVuSans-79" d="M 2059 -325  Q 1816 -950 1584 -1140  Q 1353 -1331 966 -1331  L 506 -1331  L 506 -850  L 844 -850  Q 1081 -850 1212 -737  Q 1344 -625 1503 -206  L 1606 56  L 191 3500  L 800 3500  L 1894 763  L 2988 3500  L 3597 3500  L 2059 -325  z " transform="scale(0.015625)"/>
       <path id="DejaVuSans-64" d="M 2906 2969  L 2906 4863  L 3481 4863  L 3481 0  L 2906 0  L 2906 525  Q 2725 213 2448 61  Q 2172 -91 1784 -91  Q 1150 -91 751 415  Q 353 922 353 1747  Q 353 2572 751 3078  Q 1150 3584 1784 3584  Q 2172 3584 2448 3432  Q 2725 3281 2906 2969  z M 947 1747  Q 947 1113 1208 752  Q 1469 391 1925 391  Q 2381 391 2643 752  Q 2906 1113 2906 1747  Q 2906 2381 2643 2742  Q 2381 3103 1925 3103  Q 1469 3103 1208 2742  Q 947 2381 947 1747  z " transform="scale(0.015625)"/>
       <path id="DejaVuSans-2f" d="M 1625 4666  L 2156 4666  L 531 -594  L 0 -594  L 1625 4666  z " transform="scale(0.015625)"/>
      </defs>
      <use xlink:href="#DejaVuSans-41"/>
      <use xlink:href="#DejaVuSans-6e" transform="translate(68.408203 0)"/>
      <use xlink:href="#DejaVuSans-67" transform="translate(131.787109 0)"/>
      <use xlink:href="#DejaVuSans-75" transform="translate(195.263672 0)"/>
      <use xlink:href="#DejaVuSans-6c" transform="translate(258.642578 0)"/>
      <use xlink:href="#DejaVuSans-61" transform="translate(286.425781 0)"/>
      <use xlink:href="#DejaVuSans-72" transform="translate(347.705078 0)"/>
      <use xlink:href="#DejaVuSans-20" transform="translate(388.818359 0)"/>
      <use xlink:href="#DejaVuSans-56" transform="translate(420.605469 0)"/>
      <use xlink:href="#DejaVuSans-65" transform="translate(481.263672 0)"/>
      <use xlink:href="#DejaVuSans-6c" transform="translate(542.787109 0)"/>
      <use xlink:href="#DejaVuSans-6f" transform="translate(570.570312 0)"/>
      <use xlink:href="#DejaVuSans-63" transform="translate(631.751953 0)"/>
      <use xlink:href="#DejaVuSans-69" transform="translate(686.732422 0)"/>
      <use xlink:href="#DejaVuSans-74" transform="translate(714.515625 0)"/>
      <use xlink:href="#DejaVuSans-79" transform="translate(753.724609 0)"/>
      <use xlink:href="#DejaVuSans-20" transform="translate(812.904297 0)"/>
      <use xlink:href="#DejaVuSans-5b" transform="translate(844.691406 0)"/>
      <use xlink:href="#DejaVuSans-72" transform="translate(883.705078 0)"/>
      <use xlink:href="#DejaVuSans-61" transform="translate(924.818359 0)"/>
      <use xlink:href="#DejaVuSans-64" transform="translate(986.097656 0)"/>
      <use xlink:href="#DejaVuSans-2f" transform="translate(1049.574219 0)"/>
      <use xlink:href="#DejaVuSans-73" transform="translate(1083.265625 0)"/>
      <use xlink:href="#DejaVuSans-5d" transform="translate(1135.365234 0)"/>
     </g>
    </g>
   </g>
   <g id="line2d_10">
    <path d="M 73.832727 229.90174  L 77.697531 236.80928  L 81.562335 243.289598  L 85.427525 249.687235  L 89.292329 256.106564  L 93.157133 262.377374  L 97.022323 268.238703  L 100.887127 273.406816  L 104.752317 277.573949  L 108.617121 280.598416  L 112.481925 282.446868  L 116.347114 283.120668  L 120.211918 282.547229  L 124.076722 280.603533  L 127.941912 277.511597  L 131.806716 273.38284  L 135.67152 268.307457  L 139.53671 262.572062  L 143.401514 256.447055  L 147.266318 250.12206  L 151.131508 243.714149  L 154.996312 237.277314  L 158.861116 230.996561  L 162.726128 224.786796  L 166.590932 218.884185  L 170.45574 213.299028  L 174.320929 208.036848  L 178.185733 203.021667  L 182.050923 198.244008  L 185.915723 193.719767  L 189.780531 189.431703  L 193.645721 185.336675  L 197.510525 181.423081  L 201.375329 177.662818  L 205.240515 174.027939  L 209.105319 170.47539  L 212.970127 167.0008  L 216.835317 163.567783  L 220.700121 160.10553  L 224.564925 156.632281  L 228.43011 153.116163  L 232.294918 149.462868  L 236.159722 145.732295  L 240.024912 141.839571  L 243.889716 137.78375  L 247.754902 133.578558  L 251.619706 129.190044  L 255.484514 124.602087  L 259.349704 119.866045  L 263.214508 114.82585  L 267.079312 109.647419  L 270.944497 104.310628  L 274.809305 98.917271  L 278.674109 93.290716  L 282.539299 87.735657  L 286.404103 82.268781  L 290.268907 76.895959  L 294.134093 71.812052  L 297.998901 67.197374  L 301.863705 63.043123  L 305.728895 59.545164  L 309.593699 56.912541  L 313.458499 55.161244  L 317.323692 54.286701  L 321.188496 54.484238  L 325.053686 55.603677  L 328.91849 57.669429  L 332.783294 60.5829  L 336.64848 64.210535  L 340.513288 68.445339  L 344.378092 73.108013  L 348.243282 78.144013  L 352.108086 83.338582  L 355.972886 88.654068  L 359.838079 93.986564  L 363.702883 99.230218  L 367.567687 104.422708  L 371.432877 109.402965  L 375.297681 114.173434  L 379.162481 118.723829  L 383.027675 123.064442  L 386.892479 127.178384  L 390.757669 131.061259  L 394.622473 134.720761  L 398.487273 138.208804  " clip-path="url(#pcbe48b5547)" style="fill: none; stroke: #4285f4; stroke-width: 1.5; stroke-linecap: square"/>
   </g>
   <g id="line2d_11">
    <path d="M 73.832727 53.568  L 77.697531 58.542441  L 81.562335 64.100131  L 85.427525 71.531628  L 89.292329 79.959306  L 93.157133 88.599737  L 97.022323 98.619139  L 100.887127 110.212747  L 104.752317 122.198022  L 108.617121 134.664271  L 112.481925 148.171478  L 116.347114 162.026885  L 120.211918 175.2991  L 124.076722 188.300307  L 127.941912 201.153879  L 131.806716 212.961833  L 135.67152 223.592877  L 139.53671 233.546648  L 143.401514 242.50064  L 147.266318 250.058557  L 151.131508 256.546807  L 154.996312 262.444999  L 158.861116 267.409955  L 162.726128 271.354012  L 166.590932 274.739545  L 170.45574 277.684264  L 174.320929 279.964558  L 178.185733 281.730748  L 182.050923 283.298575  L 185.915723 284.59648  L 189.780531 285.390817  L 193.645721 286.038864  L 197.510525 286.685873  L 201.375329 286.99511  L 205.240515 287.077371  L 209.105319 287.19201  L 212.970127 287.276975  L 216.835317 287.118172  L 220.700121 286.867656  L 224.564925 286.590551  L 228.43011 286.170127  L 232.294918 285.5156  L 236.159722 284.79243  L 240.024912 283.897565  L 243.889716 282.728141  L 247.754902 281.258128  L 251.619706 279.68076  L 255.484514 277.817482  L 259.349704 275.488142  L 263.214508 272.703455  L 267.079312 269.4986  L 270.944497 265.757376  L 274.809305 261.370663  L 278.674109 256.3335  L 282.539299 250.639286  L 286.404103 244.248106  L 290.268907 236.97249  L 294.134093 229.040464  L 297.998901 220.344819  L 301.863705 210.861161  L 305.728895 200.783915  L 309.593699 190.192788  L 313.458499 179.206354  L 317.323692 168.003656  L 321.188496 156.742123  L 325.053686 145.664478  L 328.91849 134.879789  L 332.783294 124.650159  L 336.64848 115.11205  L 340.513288 106.238917  L 344.378092 98.130894  L 348.243282 90.9486  L 352.108086 84.504201  L 355.972886 78.831571  L 359.838079 73.956088  L 363.702883 69.714352  L 367.567687 66.161292  L 371.432877 63.275372  L 375.297681 60.841839  L 379.162481 58.905596  L 383.027675 57.357879  L 386.892479 56.228497  L 390.757669 55.419681  L 394.622473 54.873681  L 398.487273 54.568856  " clip-path="url(#pcbe48b5547)" style="fill: none; stroke: #ea4335; stroke-width: 1.5; stroke-linecap: square"/>
   </g>
   <g id="line2d_12">
    <path d="M 73.832727 244.421767  L 77.697531 250.239246  L 81.562335 256.949863  L 85.427525 263.05095  L 89.292329 269.159231  L 93.157133 275.628879  L 97.022323 281.264652  L 100.887127 285.860275  L 104.752317 289.949192  L 108.617121 293.473361  L 112.481925 295.164943  L 116.347114 295.488  L 120.211918 294.745312  L 124.076722 292.906111  L 127.941912 289.378769  L 131.806716 285.148412  L 135.67152 280.290274  L 139.53671 274.687504  L 143.401514 268.413225  L 147.266318 262.285895  L 151.131508 256.129819  L 154.996312 249.873818  L 158.861116 243.818376  L 162.726128 238.371303  L 166.590932 233.098511  L 170.45574 228.105541  L 174.320929 223.661821  L 178.185733 219.754019  L 182.050923 216.083543  L 185.915723 212.859103  L 189.780531 210.208069  L 193.645721 207.981285  L 197.510525 205.970668  L 201.375329 204.437003  L 205.240515 203.407409  L 209.105319 202.563244  L 212.970127 202.017462  L 216.835317 202.004792  L 220.700121 202.373519  L 224.564925 202.880497  L 228.43011 203.795475  L 232.294918 205.120551  L 236.159722 206.810661  L 240.024912 208.709446  L 243.889716 211.028555  L 247.754902 213.75122  L 251.619706 216.859301  L 255.484514 220.245978  L 259.349704 224.051873  L 263.214508 228.13451  L 267.079312 232.52148  L 270.944497 237.204823  L 274.809305 242.176756  L 278.674109 247.236565  L 282.539299 252.397924  L 286.404103 257.551278  L 290.268907 262.634168  L 294.134093 267.450433  L 297.998901 271.958957  L 301.863705 275.991621  L 305.728895 279.298623  L 309.593699 281.854503  L 313.458499 283.486448  L 317.323692 284.186435  L 321.188496 283.806187  L 325.053686 282.452901  L 328.91849 280.178607  L 332.783294 277.134164  L 336.64848 273.25894  L 340.513288 268.879232  L 344.378092 264.060711  L 348.243282 258.93789  L 352.108086 253.740244  L 355.972886 248.463419  L 359.838079 243.260823  L 363.702883 238.092661  L 367.567687 233.129174  L 371.432877 228.523445  L 375.297681 224.141352  L 379.162481 220.001546  L 383.027675 216.241396  L 386.892479 212.798472  L 390.757669 209.694517  L 394.622473 206.899729  L 398.487273 204.274137  " clip-path="url(#pcbe48b5547)" style="fill: none; stroke: #fbbc04; stroke-width: 1.5; stroke-linecap: square"/>
   </g>
   <g id="patch_3">
    <path d="M 57.6 307.584  L 57.6 41.472  " style="fill: none; stroke: #000000; stroke-width: 0.8; stroke-linejoin: miter; stroke-linecap: square"/>
   </g>
   <g id="patch_4">
    <path d="M 414.72 307.584  L 414.72 41.472  " style="fill: none; stroke: #000000; stroke-width: 0.8; stroke-linejoin: miter; stroke-linecap: square"/>
   </g>
   <g id="patch_5">
    <path d="M 57.6 307.584  L 414.72 307.584  " style="fill: none; stroke: #000000; stroke-width: 0.8; stroke-linejoin: miter; stroke-linecap: square"/>
   </g>
   <g id="patch_6">
    <path d="M 57.6 41.472  L 414.72 41.472  " style="fill: none; stroke: #000000; stroke-width: 0.8; stroke-linejoin: miter; stroke-linecap: square"/>
   </g>
   <g id="text_12">
    <!-- Trial 52: Intermediate axis rotation -->
    <g transform="translate(132.362813 35.472) scale(0.12 -0.12)">
     <defs>
      <path id="DejaVuSans-3a" d="M 750 794  L 1409 794  L 1409 0  L 750 0  L 750 794  z M 750 3309  L 1409 3309  L 1409 2516  L 750 2516  L 750 3309  z " transform="scale(0.015625)"/>
      <path id="DejaVuSans-49" d="M 628 4666  L 1259 4666  L 1259 0  L 628 0  L 628 4666  z " transform="scale(0.015625)"/>
      <path id="DejaVuSans-78" d="M 3513 3500  L 2247 1797  L 3578 0  L 2900 0  L 1881 1375  L 863 0  L 184 0  L 1544 1831  L 300 3500  L 978 3500  L 1906 2253  L 2834 3500  L 3513 3500  z " transform="scale(0.015625)"/>
     </defs>
     <use xlink:href="#DejaVuSans-54"/>
     <use xlink:href="#DejaVuSans-72" transform="translate(46.333984 0)"/>
     <use xlink:href="#DejaVuSans-69" transform="translate(87.447266 0)"/>
     <use xlink:href="#DejaVuSans-61" transform="translate(115.230469 0)"/>
     <use xlink:href="#DejaVuSans-6c" transform="translate(176.509766 0)"/>
     <use xlink:href="#DejaVuSans-20" transform="translate(204.292969 0)"/>
     <use xlink:href="#DejaVuSans-35" transform="translate(236.080078 0)"/>
     <use xlink:href="#DejaVuSans-32" transform="translate(299.703125 0)"/>
     <use xlink:href="#DejaVuSans-3a" transform="translate(363.326172 0)"/>
     <use xlink:href="#DejaVuSans-20" transform="translate(397.017578 0)"/>
     <use xlink:href="#DejaVuSans-49" transform="translate(428.804688 0)"/>
     <use xlink:href="#DejaVuSans-6e" transform="translate(458.296875 0)"/>
     <use xlink:href="#DejaVuSans-74" transform="translate(521.675781 0)"/>
     <use xlink:href="#DejaVuSans-65" transform="translate(560.884766 0)"/>
     <use xlink:href="#DejaVuSans-72" transform="translate(622.408203 0)"/>
     <use xlink:href="#DejaVuSans-6d" transform="translate(661.771484 0)"/>
     <use xlink:href="#DejaVuSans-65" transform="translate(759.183594 0)"/>
     <use xlink:href="#DejaVuSans-64" transform="translate(820.707031 0)"/>
     <use xlink:href="#DejaVuSans-69" transform="translate(884.183594 0)"/>
     <use xlink:href="#DejaVuSans-61" transform="translate(911.966797 0)"/>
     <use xlink:href="#DejaVuSans-74" transform="translate(973.246094 0)"/>
     <use xlink:href="#DejaVuSans-65" transform="translate(1012.455078 0)"/>
     <use xlink:href="#DejaVuSans-20" transform="translate(1073.978516 0)"/>
     <use xlink:href="#DejaVuSans-61" transform="translate(1105.765625 0)"/>
     <use xlink:href="#DejaVuSans-78" transform="translate(1167.044922 0)"/>
     <use xlink:href="#DejaVuSans-69" transform="translate(1226.224609 0)"/>
     <use xlink:href="#DejaVuSans-73" transform="translate(1254.007812 0)"/>
     <use xlink:href="#DejaVuSans-20" transform="translate(1306.107422 0)"/>
     <use xlink:href="#DejaVuSans-72" transform="translate(1337.894531 0)"/>
     <use xlink:href="#DejaVuSans-6f" transform="translate(1376.757812 0)"/>
     <use xlink:href="#DejaVuSans-74" transform="translate(1437.939453 0)"/>
     <use xlink:href="#DejaVuSans-61" transform="translate(1477.148438 0)"/>
     <use xlink:href="#DejaVuSans-74" transform="translate(1538.427734 0)"/>
     <use xlink:href="#DejaVuSans-69" transform="translate(1577.636719 0)"/>
     <use xlink:href="#DejaVuSans-6f" transform="translate(1605.419922 0)"/>
     <use xlink:href="#DejaVuSans-6e" transform="translate(1666.601562 0)"/>
    </g>
   </g>
   <g id="legend_1">
    <g id="patch_7">
     <path d="M 287.27625 198.045187  L 407.72 198.045187  Q 409.72 198.045187 409.72 196.045187  L 409.72 153.010812  Q 409.72 151.010812 407.72 151.010812  L 287.27625 151.010812  Q 285.27625 151.010812 285.27625 153.010812  L 285.27625 196.045187  Q 285.27625 198.045187 287.27625 198.045187  z " style="fill: #ffffff; opacity: 0.8; stroke: #cccccc; stroke-linejoin: miter"/>
    </g>
    <g id="line2d_13">
     <path d="M 289.27625 159.10925  L 299.27625 159.10925  L 309.27625 159.10925  " style="fill: none; stroke: #4285f4; stroke-width: 1.5; stroke-linecap: square"/>
    </g>
    <g id="text_13">
     <!-- Primary Axis -->
     <g transform="translate(317.27625 162.60925) scale(0.1 -0.1)">
      <defs>
       <path id="DejaVuSans-50" d="M 1259 4147  L 1259 2394  L 2053 2394  Q 2494 2394 2734 2622  Q 2975 2850 2975 3272  Q 2975 3691 2734 3919  Q 2494 4147 2053 4147  L 1259 4147  z M 628 4666  L 2053 4666  Q 2838 4666 3239 4311  Q 3641 3956 3641 3272  Q 3641 2581 3239 2228  Q 2838 1875 2053 1875  L 1259 1875  L 1259 0  L 628 0  L 628 4666  z " transform="scale(0.015625)"/>
      </defs>
      <use xlink:href="#DejaVuSans-50"/>
      <use xlink:href="#DejaVuSans-72" transform="translate(58.552734 0)"/>
      <use xlink:href="#DejaVuSans-69" transform="translate(99.666016 0)"/>
      <use xlink:href="#DejaVuSans-6d" transform="translate(127.449219 0)"/>
      <use xlink:href="#DejaVuSans-61" transform="translate(224.861328 0)"/>
      <use xlink:href="#DejaVuSans-72" transform="translate(286.140625 0)"/>
      <use xlink:href="#DejaVuSans-79" transform="translate(327.253906 0)"/>
      <use xlink:href="#DejaVuSans-20" transform="translate(386.433594 0)"/>
      <use xlink:href="#DejaVuSans-41" transform="translate(418.220703 0)"/>
      <use xlink:href="#DejaVuSans-78" transform="translate(486.628906 0)"/>
      <use xlink:href="#DejaVuSans-69" transform="translate(545.808594 0)"/>
      <use xlink:href="#DejaVuSans-73" transform="translate(573.591797 0)"/>
     </g>
    </g>
    <g id="line2d_14">
     <path d="M 289.27625 173.787375  L 299.27625 173.787375  L 309.27625 173.787375  " style="fill: none; stroke: #ea4335; stroke-width: 1.5; stroke-linecap: square"/>
    </g>
    <g id="text_14">
     <!-- Intermediate Axis -->
     <g transform="translate(317.27625 177.287375) scale(0.1 -0.1)">
      <use xlink:href="#DejaVuSans-49"/>
      <use xlink:href="#DejaVuSans-6e" transform="translate(29.492188 0)"/>
      <use xlink:href="#DejaVuSans-74" transform="translate(92.871094 0)"/>
      <use xlink:href="#DejaVuSans-65" transform="translate(132.080078 0)"/>
      <use xlink:href="#DejaVuSans-72" transform="translate(193.603516 0)"/>
      <use xlink:href="#DejaVuSans-6d" transform="translate(232.966797 0)"/>
      <use xlink:href="#DejaVuSans-65" transform="translate(330.378906 0)"/>
      <use xlink:href="#DejaVuSans-64" transform="translate(391.902344 0)"/>
      <use xlink:href="#DejaVuSans-69" transform="translate(455.378906 0)"/>
      <use xlink:href="#DejaVuSans-61" transform="translate(483.162109 0)"/>
      <use xlink:href="#DejaVuSans-74" transform="translate(544.441406 0)"/>
      <use xlink:href="#DejaVuSans-65" transform="translate(583.650391 0)"/>
      <use xlink:href="#DejaVuSans-20" transform="translate(645.173828 0)"/>
      <use xlink:href="#DejaVuSans-41" transform="translate(676.960938 0)"/>
      <use xlink:href="#DejaVuSans-78" transform="translate(745.369141 0)"/>
      <use xlink:href="#DejaVuSans-69" transform="translate(804.548828 0)"/>
      <use xlink:href="#DejaVuSans-73" transform="translate(832.332031 0)"/>
     </g>
    </g>
    <g id="line2d_15">
     <path d="M 289.27625 188.4655  L 299.27625 188.4655  L 309.27625 188.4655  " style="fill: none; stroke: #fbbc04; stroke-width: 1.5; stroke-linecap: square"/>
    </g>
    <g id="text_15">
     <!-- Tertiary Axis -->
     <g transform="translate(317.27625 191.9655) scale(0.1 -0.1)">
      <use xlink:href="#DejaVuSans-54"/>
      <use xlink:href="#DejaVuSans-65" transform="translate(44.083984 0)"/>
      <use xlink:href="#DejaVuSans-72" transform="translate(105.607422 0)"/>
      <use xlink:href="#DejaVuSans-74" transform="translate(146.720703 0)"/>
      <use xlink:href="#DejaVuSans-69" transform="translate(185.929688 0)"/>
      <use xlink:href="#DejaVuSans-61" transform="translate(213.712891 0)"/>
      <use xlink:href="#DejaVuSans-72" transform="translate(274.992188 0)"/>
      <use xlink:href="#DejaVuSans-79" transform="translate(316.105469 0)"/>
      <use xlink:href="#DejaVuSans-20" transform="translate(375.285156 0)"/>
      <use xlink:href="#DejaVuSans-41" transform="translate(407.072266 0)"/>
      <use xlink:href="#DejaVuSans-78" transform="translate(475.480469 0)"/>
      <use xlink:href="#DejaVuSans-69" transform="translate(534.660156 0)"/>
      <use xlink:href="#DejaVuSans-73" transform="translate(562.443359 0)"/>
     </g>
    </g>
   </g>
  </g>
 </g>
 <defs>
  <clipPath id="pcbe48b5547">
   <rect x="57.6" y="41.472" width="357.12" height="266.112"/>
  </clipPath>
 </defs>
</svg>