<?xml version="1.0" encoding="UTF-8" standalone="no"?>
<!DOCTYPE svg PUBLIC "-//W3C//DTD SVG 1.1//EN" "http://www.w3.org/Graphics/SVG/1.1/DTD/svg11.dtd">
<svg xmlns:xlink="http://www.w3.org/1999/xlink" width="460.8pt" height="345.6pt" viewBox="0 0 460.8 345.6" xmlns="http://www.w3.org/2000/svg" version="1.1">
 <metadata>
  <rdf:RDF xmlns:dc="http://purl.org/dc/elements/1.1/" xmlns:cc="http://creativecommons.org/ns#" xmlns:rdf="http://www.w3.org/1999/02/22-rdf-syntax-ns#">
   <cc:Work>
    <dc:type rdf:resource="http://purl.org/dc/dcmitype/StillImage"/>
    <dc:date>2025-03-11T00:09:11.308344</dc:date>
    <dc:format>image/svg+xml</dc:format>
    <dc:creator>
     <cc:Agent>
      <dc:title>Matplotlib v3.10.0, https://matplotlib.org/</dc:title>
     </cc:Agent>
    </dc:creator>
   </cc:Work>
  </rdf:RDF>
 </metadata>
 <defs>
  <style type="text/css">*{stroke-linejoin: round; stroke-linecap: butt}</style>
 </defs>
 <g id="figure_1">
  <g id="patch_1">
   <path d="M 0 345.6  L 460.8 345.6  L 460.8 0  L 0 0  z " style="fill: #ffffff"/>
  </g>
  <g id="axes_1">
   <g id="patch_2">
    <path d="M 57.6 307.584  L 414.72 307.584  L 414.72 41.472  L 57.6 41.472  z " style="fill: #ffffff"/>
   </g>
   <g id="matplotlib.axis_1">
    <g id="xtick_1">
     <g id="line2d_1">
      <defs>
       <path id="mfb9701c1a6" d="M 0 0  L 0 3.5  " style="stroke: #000000; stroke-width: 0.8"/>
      </defs>
      <g>
       <use xlink:href="#mfb9701c1a6" x="89.703854" y="307.584" style="stroke: #000000; stroke-width: 0.8"/>
      </g>
     </g>
     <g id="text_1">
      <!-- 275.8 -->
      <g transform="translate(75.389791 322.182437) scale(0.1 -0.1)">
       <defs>
        <path id="DejaVuSans-32" d="M 1228 531  L 3431 531  L 3431 0  L 469 0  L 469 531  Q 828 903 1448 1529  Q 2069 2156 2228 2338  Q 2531 2678 2651 2914  Q 2772 3150 2772 3378  Q 2772 3750 2511 3984  Q 2250 4219 1831 4219  Q 1534 4219 1204 4116  Q 875 4013 500 3803  L 500 4441  Q 881 4594 1212 4672  Q 1544 4750 1819 4750  Q 2544 4750 2975 4387  Q 3406 4025 3406 3419  Q 3406 3131 3298 2873  Q 3191 2616 2906 2266  Q 2828 2175 2409 1742  Q 1991 1309 1228 531  z " transform="scale(0.015625)"/>
        <path id="DejaVuSans-37" d="M 525 4666  L 3525 4666  L 3525 4397  L 1831 0  L 1172 0  L 2766 4134  L 525 4134  L 525 4666  z " transform="scale(0.015625)"/>
        <path id="DejaVuSans-35" d="M 691 4666  L 3169 4666  L 3169 4134  L 1269 4134  L 1269 2991  Q 1406 3038 1543 3061  Q 1681 3084 1819 3084  Q 2600 3084 3056 2656  Q 3513 2228 3513 1497  Q 3513 744 3044 326  Q 2575 -91 1722 -91  Q 1428 -91 1123 -41  Q 819 9 494 109  L 494 744  Q 775 591 1075 516  Q 1375 441 1709 441  Q 2250 441 2565 725  Q 2881 1009 2881 1497  Q 2881 1984 2565 2268  Q 2250 2553 1709 2553  Q 1456 2553 1204 2497  Q 953 2441 691 2322  L 691 4666  z " transform="scale(0.015625)"/>
        <path id="DejaVuSans-2e" d="M 684 794  L 1344 794  L 1344 0  L 684 0  L 684 794  z " transform="scale(0.015625)"/>
        <path id="DejaVuSans-38" d="M 2034 2216  Q 1584 2216 1326 1975  Q 1069 1734 1069 1313  Q 1069 891 1326 650  Q 1584 409 2034 409  Q 2484 409 2743 651  Q 3003 894 3003 1313  Q 3003 1734 2745 1975  Q 2488 2216 2034 2216  z M 1403 2484  Q 997 2584 770 2862  Q 544 3141 544 3541  Q 544 4100 942 4425  Q 1341 4750 2034 4750  Q 2731 4750 3128 4425  Q 3525 4100 3525 3541  Q 3525 3141 3298 2862  Q 3072 2584 2669 2484  Q 3125 2378 3379 2068  Q 3634 1759 3634 1313  Q 3634 634 3220 271  Q 2806 -91 2034 -91  Q 1263 -91 848 271  Q 434 634 434 1313  Q 434 1759 690 2068  Q 947 2378 1403 2484  z M 1172 3481  Q 1172 3119 1398 2916  Q 1625 2713 2034 2713  Q 2441 2713 2670 2916  Q 2900 3119 2900 3481  Q 2900 3844 2670 4047  Q 2441 4250 2034 4250  Q 1625 4250 1398 4047  Q 1172 3844 1172 3481  z " transform="scale(0.015625)"/>
       </defs>
       <use xlink:href="#DejaVuSans-32"/>
       <use xlink:href="#DejaVuSans-37" transform="translate(63.623047 0)"/>
       <use xlink:href="#DejaVuSans-35" transform="translate(127.246094 0)"/>
       <use xlink:href="#DejaVuSans-2e" transform="translate(190.869141 0)"/>
       <use xlink:href="#DejaVuSans-38" transform="translate(222.65625 0)"/>
      </g>
     </g>
    </g>
    <g id="xtick_2">
     <g id="line2d_2">
      <g>
       <use xlink:href="#mfb9701c1a6" x="130.713774" y="307.584" style="stroke: #000000; stroke-width: 0.8"/>
      </g>
     </g>
     <g id="text_2">
      <!-- 275.9 -->
      <g transform="translate(116.399712 322.182437) scale(0.1 -0.1)">
       <defs>
        <path id="DejaVuSans-39" d="M 703 97  L 703 672  Q 941 559 1184 500  Q 1428 441 1663 441  Q 2288 441 2617 861  Q 2947 1281 2994 2138  Q 2813 1869 2534 1725  Q 2256 1581 1919 1581  Q 1219 1581 811 2004  Q 403 2428 403 3163  Q 403 3881 828 4315  Q 1253 4750 1959 4750  Q 2769 4750 3195 4129  Q 3622 3509 3622 2328  Q 3622 1225 3098 567  Q 2575 -91 1691 -91  Q 1453 -91 1209 -44  Q 966 3 703 97  z M 1959 2075  Q 2384 2075 2632 2365  Q 2881 2656 2881 3163  Q 2881 3666 2632 3958  Q 2384 4250 1959 4250  Q 1534 4250 1286 3958  Q 1038 3666 1038 3163  Q 1038 2656 1286 2365  Q 1534 2075 1959 2075  z " transform="scale(0.015625)"/>
       </defs>
       <use xlink:href="#DejaVuSans-32"/>
       <use xlink:href="#DejaVuSans-37" transform="translate(63.623047 0)"/>
       <use xlink:href="#DejaVuSans-35" transform="translate(127.246094 0)"/>
       <use xlink:href="#DejaVuSans-2e" transform="translate(190.869141 0)"/>
       <use xlink:href="#DejaVuSans-39" transform="translate(222.65625 0)"/>
      </g>
     </g>
    </g>
    <g id="xtick_3">
     <g id="line2d_3">
      <g>
       <use xlink:href="#mfb9701c1a6" x="171.723695" y="307.584" style="stroke: #000000; stroke-width: 0.8"/>
      </g>
     </g>
     <g id="text_3">
      <!-- 276.0 -->
      <g transform="translate(157.409633 322.182437) scale(0.1 -0.1)">
       <defs>
        <path id="DejaVuSans-36" d="M 2113 2584  Q 1688 2584 1439 2293  Q 1191 2003 1191 1497  Q 1191 994 1439 701  Q 1688 409 2113 409  Q 2538 409 2786 701  Q 3034 994 3034 1497  Q 3034 2003 2786 2293  Q 2538 2584 2113 2584  z M 3366 4563  L 3366 3988  Q 3128 4100 2886 4159  Q 2644 4219 2406 4219  Q 1781 4219 1451 3797  Q 1122 3375 1075 2522  Q 1259 2794 1537 2939  Q 1816 3084 2150 3084  Q 2853 3084 3261 2657  Q 3669 2231 3669 1497  Q 3669 778 3244 343  Q 2819 -91 2113 -91  Q 1303 -91 875 529  Q 447 1150 447 2328  Q 447 3434 972 4092  Q 1497 4750 2381 4750  Q 2619 4750 2861 4703  Q 3103 4656 3366 4563  z " transform="scale(0.015625)"/>
        <path id="DejaVuSans-30" d="M 2034 4250  Q 1547 4250 1301 3770  Q 1056 3291 1056 2328  Q 1056 1369 1301 889  Q 1547 409 2034 409  Q 2525 409 2770 889  Q 3016 1369 3016 2328  Q 3016 3291 2770 3770  Q 2525 4250 2034 4250  z M 2034 4750  Q 2819 4750 3233 4129  Q 3647 3509 3647 2328  Q 3647 1150 3233 529  Q 2819 -91 2034 -91  Q 1250 -91 836 529  Q 422 1150 422 2328  Q 422 3509 836 4129  Q 1250 4750 2034 4750  z " transform="scale(0.015625)"/>
       </defs>
       <use xlink:href="#DejaVuSans-32"/>
       <use xlink:href="#DejaVuSans-37" transform="translate(63.623047 0)"/>
       <use xlink:href="#DejaVuSans-36" transform="translate(127.246094 0)"/>
       <use xlink:href="#DejaVuSans-2e" transform="translate(190.869141 0)"/>
       <use xlink:href="#DejaVuSans-30" transform="translate(222.65625 0)"/>
      </g>
     </g>
    </g>
    <g id="xtick_4">
     <g id="line2d_4">
      <g>
       <use xlink:href="#mfb9701c1a6" x="212.733616" y="307.584" style="stroke: #000000; stroke-width: 0.8"/>
      </g>
     </g>
     <g id="text_4">
      <!-- 276.1 -->
      <g transform="translate(198.419553 322.182437) scale(0.1 -0.1)">
       <defs>
        <path id="DejaVuSans-31" d="M 794 531  L 1825 531  L 1825 4091  L 703 3866  L 703 4441  L 1819 4666  L 2450 4666  L 2450 531  L 3481 531  L 3481 0  L 794 0  L 794 531  z " transform="scale(0.015625)"/>
       </defs>
       <use xlink:href="#DejaVuSans-32"/>
       <use xlink:href="#DejaVuSans-37" transform="translate(63.623047 0)"/>
       <use xlink:href="#DejaVuSans-36" transform="translate(127.246094 0)"/>
       <use xlink:href="#DejaVuSans-2e" transform="translate(190.869141 0)"/>
       <use xlink:href="#DejaVuSans-31" transform="translate(222.65625 0)"/>
      </g>
     </g>
    </g>
    <g id="xtick_5">
     <g id="line2d_5">
      <g>
       <use xlink:href="#mfb9701c1a6" x="253.743537" y="307.584" style="stroke: #000000; stroke-width: 0.8"/>
      </g>
     </g>
     <g id="text_5">
      <!-- 276.2 -->
      <g transform="translate(239.429474 322.182437) scale(0.1 -0.1)">
       <use xlink:href="#DejaVuSans-32"/>
       <use xlink:href="#DejaVuSans-37" transform="translate(63.623047 0)"/>
       <use xlink:href="#DejaVuSans-36" transform="translate(127.246094 0)"/>
       <use xlink:href="#DejaVuSans-2e" transform="translate(190.869141 0)"/>
       <use xlink:href="#DejaVuSans-32" transform="translate(222.65625 0)"/>
      </g>
     </g>
    </g>
    <g id="xtick_6">
     <g id="line2d_6">
      <g>
       <use xlink:href="#mfb9701c1a6" x="294.753457" y="307.584" style="stroke: #000000; stroke-width: 0.8"/>
      </g>
     </g>
     <g id="text_6">
      <!-- 276.3 -->
      <g transform="translate(280.439395 322.182437) scale(0.1 -0.1)">
       <defs>
        <path id="DejaVuSans-33" d="M 2597 2516  Q 3050 2419 3304 2112  Q 3559 1806 3559 1356  Q 3559 666 3084 287  Q 2609 -91 1734 -91  Q 1441 -91 1130 -33  Q 819 25 488 141  L 488 750  Q 750 597 1062 519  Q 1375 441 1716 441  Q 2309 441 2620 675  Q 2931 909 2931 1356  Q 2931 1769 2642 2001  Q 2353 2234 1838 2234  L 1294 2234  L 1294 2753  L 1863 2753  Q 2328 2753 2575 2939  Q 2822 3125 2822 3475  Q 2822 3834 2567 4026  Q 2313 4219 1838 4219  Q 1578 4219 1281 4162  Q 984 4106 628 3988  L 628 4550  Q 988 4650 1302 4700  Q 1616 4750 1894 4750  Q 2613 4750 3031 4423  Q 3450 4097 3450 3541  Q 3450 3153 3228 2886  Q 3006 2619 2597 2516  z " transform="scale(0.015625)"/>
       </defs>
       <use xlink:href="#DejaVuSans-32"/>
       <use xlink:href="#DejaVuSans-37" transform="translate(63.623047 0)"/>
       <use xlink:href="#DejaVuSans-36" transform="translate(127.246094 0)"/>
       <use xlink:href="#DejaVuSans-2e" transform="translate(190.869141 0)"/>
       <use xlink:href="#DejaVuSans-33" transform="translate(222.65625 0)"/>
      </g>
     </g>
    </g>
    <g id="xtick_7">
     <g id="line2d_7">
      <g>
       <use xlink:href="#mfb9701c1a6" x="335.763378" y="307.584" style="stroke: #000000; stroke-width: 0.8"/>
      </g>
     </g>
     <g id="text_7">
      <!-- 276.4 -->
      <g transform="translate(321.449316 322.182437) scale(0.1 -0.1)">
       <defs>
        <path id="DejaVuSans-34" d="M 2419 4116  L 825 1625  L 2419 1625  L 2419 4116  z M 2253 4666  L 3047 4666  L 3047 1625  L 3713 1625  L 3713 1100  L 3047 1100  L 3047 0  L 2419 0  L 2419 1100  L 313 1100  L 313 1709  L 2253 4666  z " transform="scale(0.015625)"/>
       </defs>
       <use xlink:href="#DejaVuSans-32"/>
       <use xlink:href="#DejaVuSans-37" transform="translate(63.623047 0)"/>
       <use xlink:href="#DejaVuSans-36" transform="translate(127.246094 0)"/>
       <use xlink:href="#DejaVuSans-2e" transform="translate(190.869141 0)"/>
       <use xlink:href="#DejaVuSans-34" transform="translate(222.65625 0)"/>
      </g>
     </g>
    </g>
    <g id="xtick_8">
     <g id="line2d_8">
      <g>
       <use xlink:href="#mfb9701c1a6" x="376.773299" y="307.584" style="stroke: #000000; stroke-width: 0.8"/>
      </g>
     </g>
     <g id="text_8">
      <!-- 276.5 -->
      <g transform="translate(362.459236 322.182437) scale(0.1 -0.1)">
       <use xlink:href="#DejaVuSans-32"/>
       <use xlink:href="#DejaVuSans-37" transform="translate(63.623047 0)"/>
       <use xlink:href="#DejaVuSans-36" transform="translate(127.246094 0)"/>
       <use xlink:href="#DejaVuSans-2e" transform="translate(190.869141 0)"/>
       <use xlink:href="#DejaVuSans-35" transform="translate(222.65625 0)"/>
      </g>
     </g>
    </g>
    <g id="text_9">
     <!-- Time [s] -->
     <g transform="translate(215.831094 335.860562) scale(0.1 -0.1)">
      <defs>
       <path id="DejaVuSans-54" d="M -19 4666  L 3928 4666  L 3928 4134  L 2272 4134  L 2272 0  L 1638 0  L 1638 4134  L -19 4134  L -19 4666  z " transform="scale(0.015625)"/>
       <path id="DejaVuSans-69" d="M 603 3500  L 1178 3500  L 1178 0  L 603 0  L 603 3500  z M 603 4863  L 1178 4863  L 1178 4134  L 603 4134  L 603 4863  z " transform="scale(0.015625)"/>
       <path id="DejaVuSans-6d" d="M 3328 2828  Q 3544 3216 3844 3400  Q 4144 3584 4550 3584  Q 5097 3584 5394 3201  Q 5691 2819 5691 2113  L 5691 0  L 5113 0  L 5113 2094  Q 5113 2597 4934 2840  Q 4756 3084 4391 3084  Q 3944 3084 3684 2787  Q 3425 2491 3425 1978  L 3425 0  L 2847 0  L 2847 2094  Q 2847 2600 2669 2842  Q 2491 3084 2119 3084  Q 1678 3084 1418 2786  Q 1159 2488 1159 1978  L 1159 0  L 581 0  L 581 3500  L 1159 3500  L 1159 2956  Q 1356 3278 1631 3431  Q 1906 3584 2284 3584  Q 2666 3584 2933 3390  Q 3200 3197 3328 2828  z " transform="scale(0.015625)"/>
       <path id="DejaVuSans-65" d="M 3597 1894  L 3597 1613  L 953 1613  Q 991 1019 1311 708  Q 1631 397 2203 397  Q 2534 397 2845 478  Q 3156 559 3463 722  L 3463 178  Q 3153 47 2828 -22  Q 2503 -91 2169 -91  Q 1331 -91 842 396  Q 353 884 353 1716  Q 353 2575 817 3079  Q 1281 3584 2069 3584  Q 2775 3584 3186 3129  Q 3597 2675 3597 1894  z M 3022 2063  Q 3016 2534 2758 2815  Q 2500 3097 2075 3097  Q 1594 3097 1305 2825  Q 1016 2553 972 2059  L 3022 2063  z " transform="scale(0.015625)"/>
       <path id="DejaVuSans-20" transform="scale(0.015625)"/>
       <path id="DejaVuSans-5b" d="M 550 4863  L 1875 4863  L 1875 4416  L 1125 4416  L 1125 -397  L 1875 -397  L 1875 -844  L 550 -844  L 550 4863  z " transform="scale(0.015625)"/>
       <path id="DejaVuSans-73" d="M 2834 3397  L 2834 2853  Q 2591 2978 2328 3040  Q 2066 3103 1784 3103  Q 1356 3103 1142 2972  Q 928 2841 928 2578  Q 928 2378 1081 2264  Q 1234 2150 1697 2047  L 1894 2003  Q 2506 1872 2764 1633  Q 3022 1394 3022 966  Q 3022 478 2636 193  Q 2250 -91 1575 -91  Q 1294 -91 989 -36  Q 684 19 347 128  L 347 722  Q 666 556 975 473  Q 1284 391 1588 391  Q 1994 391 2212 530  Q 2431 669 2431 922  Q 2431 1156 2273 1281  Q 2116 1406 1581 1522  L 1381 1569  Q 847 1681 609 1914  Q 372 2147 372 2553  Q 372 3047 722 3315  Q 1072 3584 1716 3584  Q 2034 3584 2315 3537  Q 2597 3491 2834 3397  z " transform="scale(0.015625)"/>
       <path id="DejaVuSans-5d" d="M 1947 4863  L 1947 -844  L 622 -844  L 622 -397  L 1369 -397  L 1369 4416  L 622 4416  L 622 4863  L 1947 4863  z " transform="scale(0.015625)"/>
      </defs>
      <use xlink:href="#DejaVuSans-54"/>
      <use xlink:href="#DejaVuSans-69" transform="translate(57.958984 0)"/>
      <use xlink:href="#DejaVuSans-6d" transform="translate(85.742188 0)"/>
      <use xlink:href="#DejaVuSans-65" transform="translate(183.154297 0)"/>
      <use xlink:href="#DejaVuSans-20" transform="translate(244.677734 0)"/>
      <use xlink:href="#DejaVuSans-5b" transform="translate(276.464844 0)"/>
      <use xlink:href="#DejaVuSans-73" transform="translate(315.478516 0)"/>
      <use xlink:href="#DejaVuSans-5d" transform="translate(367.578125 0)"/>
     </g>
    </g>
   </g>
   <g id="matplotlib.axis_2">
    <g id="ytick_1">
     <g id="line2d_9">
      <defs>
       <path id="mc3a002d687" d="M 0 0  L -3.5 0  " style="stroke: #000000; stroke-width: 0.8"/>
      </defs>
      <g>
       <use xlink:href="#mc3a002d687" x="57.6" y="292.913352" style="stroke: #000000; stroke-width: 0.8"/>
      </g>
     </g>
     <g id="text_10">
      <!-- −15 -->
      <g transform="translate(29.495313 296.712571) scale(0.1 -0.1)">
       <defs>
        <path id="DejaVuSans-2212" d="M 678 2272  L 4684 2272  L 4684 1741  L 678 1741  L 678 2272  z " transform="scale(0.015625)"/>
       </defs>
       <use xlink:href="#DejaVuSans-2212"/>
       <use xlink:href="#DejaVuSans-31" transform="translate(83.789062 0)"/>
       <use xlink:href="#DejaVuSans-35" transform="translate(147.412109 0)"/>
      </g>
     </g>
    </g>
    <g id="ytick_2">
     <g id="line2d_10">
      <g>
       <use xlink:href="#mc3a002d687" x="57.6" y="260.497674" style="stroke: #000000; stroke-width: 0.8"/>
      </g>
     </g>
     <g id="text_11">
      <!-- −10 -->
      <g transform="translate(29.495313 264.296893) scale(0.1 -0.1)">
       <use xlink:href="#DejaVuSans-2212"/>
       <use xlink:href="#DejaVuSans-31" transform="translate(83.789062 0)"/>
       <use xlink:href="#DejaVuSans-30" transform="translate(147.412109 0)"/>
      </g>
     </g>
    </g>
    <g id="ytick_3">
     <g id="line2d_11">
      <g>
       <use xlink:href="#mc3a002d687" x="57.6" y="228.081996" style="stroke: #000000; stroke-width: 0.8"/>
      </g>
     </g>
     <g id="text_12">
      <!-- −5 -->
      <g transform="translate(35.857813 231.881215) scale(0.1 -0.1)">
       <use xlink:href="#DejaVuSans-2212"/>
       <use xlink:href="#DejaVuSans-35" transform="translate(83.789062 0)"/>
      </g>
     </g>
    </g>
    <g id="ytick_4">
     <g id="line2d_12">
      <g>
       <use xlink:href="#mc3a002d687" x="57.6" y="195.666318" style="stroke: #000000; stroke-width: 0.8"/>
      </g>
     </g>
     <g id="text_13">
      <!-- 0 -->
      <g transform="translate(44.2375 199.465537) scale(0.1 -0.1)">
       <use xlink:href="#DejaVuSans-30"/>
      </g>
     </g>
    </g>
    <g id="ytick_5">
     <g id="line2d_13">
      <g>
       <use xlink:href="#mc3a002d687" x="57.6" y="163.250641" style="stroke: #000000; stroke-width: 0.8"/>
      </g>
     </g>
     <g id="text_14">
      <!-- 5 -->
      <g transform="translate(44.2375 167.049859) scale(0.1 -0.1)">
       <use xlink:href="#DejaVuSans-35"/>
      </g>
     </g>
    </g>
    <g id="ytick_6">
     <g id="line2d_14">
      <g>
       <use xlink:href="#mc3a002d687" x="57.6" y="130.834963" style="stroke: #000000; stroke-width: 0.8"/>
      </g>
     </g>
     <g id="text_15">
      <!-- 10 -->
      <g transform="translate(37.875 134.634181) scale(0.1 -0.1)">
       <use xlink:href="#DejaVuSans-31"/>
       <use xlink:href="#DejaVuSans-30" transform="translate(63.623047 0)"/>
      </g>
     </g>
    </g>
    <g id="ytick_7">
     <g id="line2d_15">
      <g>
       <use xlink:href="#mc3a002d687" x="57.6" y="98.419285" style="stroke: #000000; stroke-width: 0.8"/>
      </g>
     </g>
     <g id="text_16">
      <!-- 15 -->
      <g transform="translate(37.875 102.218503) scale(0.1 -0.1)">
       <use xlink:href="#DejaVuSans-31"/>
       <use xlink:href="#DejaVuSans-35" transform="translate(63.623047 0)"/>
      </g>
     </g>
    </g>
    <g id="ytick_8">
     <g id="line2d_16">
      <g>
       <use xlink:href="#mc3a002d687" x="57.6" y="66.003607" style="stroke: #000000; stroke-width: 0.8"/>
      </g>
     </g>
     <g id="text_17">
      <!-- 20 -->
      <g transform="translate(37.875 69.802826) scale(0.1 -0.1)">
       <use xlink:href="#DejaVuSans-32"/>
       <use xlink:href="#DejaVuSans-30" transform="translate(63.623047 0)"/>
      </g>
     </g>
    </g>
    <g id="text_18">
     <!-- Angular Velocity [rad/s] -->
     <g transform="translate(23.415625 233.24675) rotate(-90) scale(0.1 -0.1)">
      <defs>
       <path id="DejaVuSans-41" d="M 2188 4044  L 1331 1722  L 3047 1722  L 2188 4044  z M 1831 4666  L 2547 4666  L 4325 0  L 3669 0  L 3244 1197  L 1141 1197  L 716 0  L 50 0  L 1831 4666  z " transform="scale(0.015625)"/>
       <path id="DejaVuSans-6e" d="M 3513 2113  L 3513 0  L 2938 0  L 2938 2094  Q 2938 2591 2744 2837  Q 2550 3084 2163 3084  Q 1697 3084 1428 2787  Q 1159 2491 1159 1978  L 1159 0  L 581 0  L 581 3500  L 1159 3500  L 1159 2956  Q 1366 3272 1645 3428  Q 1925 3584 2291 3584  Q 2894 3584 3203 3211  Q 3513 2838 3513 2113  z " transform="scale(0.015625)"/>
       <path id="DejaVuSans-67" d="M 2906 1791  Q 2906 2416 2648 2759  Q 2391 3103 1925 3103  Q 1463 3103 1205 2759  Q 947 2416 947 1791  Q 947 1169 1205 825  Q 1463 481 1925 481  Q 2391 481 2648 825  Q 2906 1169 2906 1791  z M 3481 434  Q 3481 -459 3084 -895  Q 2688 -1331 1869 -1331  Q 1566 -1331 1297 -1286  Q 1028 -1241 775 -1147  L 775 -588  Q 1028 -725 1275 -790  Q 1522 -856 1778 -856  Q 2344 -856 2625 -561  Q 2906 -266 2906 331  L 2906 616  Q 2728 306 2450 153  Q 2172 0 1784 0  Q 1141 0 747 490  Q 353 981 353 1791  Q 353 2603 747 3093  Q 1141 3584 1784 3584  Q 2172 3584 2450 3431  Q 2728 3278 2906 2969  L 2906 3500  L 3481 3500  L 3481 434  z " transform="scale(0.015625)"/>
       <path id="DejaVuSans-75" d="M 544 1381  L 544 3500  L 1119 3500  L 1119 1403  Q 1119 906 1312 657  Q 1506 409 1894 409  Q 2359 409 2629 706  Q 2900 1003 2900 1516  L 2900 3500  L 3475 3500  L 3475 0  L 2900 0  L 2900 538  Q 2691 219 2414 64  Q 2138 -91 1772 -91  Q 1169 -91 856 284  Q 544 659 544 1381  z M 1991 3584  L 1991 3584  z " transform="scale(0.015625)"/>
       <path id="DejaVuSans-6c" d="M 603 4863  L 1178 4863  L 1178 0  L 603 0  L 603 4863  z " transform="scale(0.015625)"/>
       <path id="DejaVuSans-61" d="M 2194 1759  Q 1497 1759 1228 1600  Q 959 1441 959 1056  Q 959 750 1161 570  Q 1363 391 1709 391  Q 2188 391 2477 730  Q 2766 1069 2766 1631  L 2766 1759  L 2194 1759  z M 3341 1997  L 3341 0  L 2766 0  L 2766 531  Q 2569 213 2275 61  Q 1981 -91 1556 -91  Q 1019 -91 701 211  Q 384 513 384 1019  Q 384 1609 779 1909  Q 1175 2209 1959 2209  L 2766 2209  L 2766 2266  Q 2766 2663 2505 2880  Q 2244 3097 1772 3097  Q 1472 3097 1187 3025  Q 903 2953 641 2809  L 641 3341  Q 956 3463 1253 3523  Q 1550 3584 1831 3584  Q 2591 3584 2966 3190  Q 3341 2797 3341 1997  z " transform="scale(0.015625)"/>
       <path id="DejaVuSans-72" d="M 2631 2963  Q 2534 3019 2420 3045  Q 2306 3072 2169 3072  Q 1681 3072 1420 2755  Q 1159 2438 1159 1844  L 1159 0  L 581 0  L 581 3500  L 1159 3500  L 1159 2956  Q 1341 3275 1631 3429  Q 1922 3584 2338 3584  Q 2397 3584 2469 3576  Q 2541 3569 2628 3553  L 2631 2963  z " transform="scale(0.015625)"/>
       <path id="DejaVuSans-56" d="M 1831 0  L 50 4666  L 709 4666  L 2188 738  L 3669 4666  L 4325 4666  L 2547 0  L 1831 0  z " transform="scale(0.015625)"/>
       <path id="DejaVuSans-6f" d="M 1959 3097  Q 1497 3097 1228 2736  Q 959 2375 959 1747  Q 959 1119 1226 758  Q 1494 397 1959 397  Q 2419 397 2687 759  Q 2956 1122 2956 1747  Q 2956 2369 2687 2733  Q 2419 3097 1959 3097  z M 1959 3584  Q 2709 3584 3137 3096  Q 3566 2609 3566 1747  Q 3566 888 3137 398  Q 2709 -91 1959 -91  Q 1206 -91 779 398  Q 353 888 353 1747  Q 353 2609 779 3096  Q 1206 3584 1959 3584  z " transform="scale(0.015625)"/>
       <path id="DejaVuSans-63" d="M 3122 3366  L 3122 2828  Q 2878 2963 2633 3030  Q 2388 3097 2138 3097  Q 1578 3097 1268 2742  Q 959 2388 959 1747  Q 959 1106 1268 751  Q 1578 397 2138 397  Q 2388 397 2633 464  Q 2878 531 3122 666  L 3122 134  Q 2881 22 2623 -34  Q 2366 -91 2075 -91  Q 1284 -91 818 406  Q 353 903 353 1747  Q 353 2603 823 3093  Q 1294 3584 2113 3584  Q 2378 3584 2631 3529  Q 2884 3475 3122 3366  z " transform="scale(0.015625)"/>
       <path id="DejaVuSans-74" d="M 1172 4494  L 1172 3500  L 2356 3500  L 2356 3053  L 1172 3053  L 1172 1153  Q 1172 725 1289 603  Q 1406 481 1766 481  L 2356 481  L 2356 0  L 1766 0  Q 1100 0 847 248  Q 594 497 594 1153  L 594 3053  L 172 3053  L 172 3500  L 594 3500  L 594 4494  L 1172 4494  z " transform="scale(0.015625)"/>
       <path id="DejaVuSans-79" d="M 2059 -325  Q 1816 -950 1584 -1140  Q 1353 -1331 966 -1331  L 506 -1331  L 506 -850  L 844 -850  Q 1081 -850 1212 -737  Q 1344 -625 1503 -206  L 1606 56  L 191 3500  L 800 3500  L 1894 763  L 2988 3500  L 3597 3500  L 2059 -325  z " transform="scale(0.015625)"/>
       <path id="DejaVuSans-64" d="M 2906 2969  L 2906 4863  L 3481 4863  L 3481 0  L 2906 0  L 2906 525  Q 2725 213 2448 61  Q 2172 -91 1784 -91  Q 1150 -91 751 415  Q 353 922 353 1747  Q 353 2572 751 3078  Q 1150 3584 1784 3584  Q 2172 3584 2448 3432  Q 2725 3281 2906 2969  z M 947 1747  Q 947 1113 1208 752  Q 1469 391 1925 391  Q 2381 391 2643 752  Q 2906 1113 2906 1747  Q 2906 2381 2643 2742  Q 2381 3103 1925 3103  Q 1469 3103 1208 2742  Q 947 2381 947 1747  z " transform="scale(0.015625)"/>
       <path id="DejaVuSans-2f" d="M 1625 4666  L 2156 4666  L 531 -594  L 0 -594  L 1625 4666  z " transform="scale(0.015625)"/>
      </defs>
      <use xlink:href="#DejaVuSans-41"/>
      <use xlink:href="#DejaVuSans-6e" transform="translate(68.408203 0)"/>
      <use xlink:href="#DejaVuSans-67" transform="translate(131.787109 0)"/>
      <use xlink:href="#DejaVuSans-75" transform="translate(195.263672 0)"/>
      <use xlink:href="#DejaVuSans-6c" transform="translate(258.642578 0)"/>
      <use xlink:href="#DejaVuSans-61" transform="translate(286.425781 0)"/>
      <use xlink:href="#DejaVuSans-72" transform="translate(347.705078 0)"/>
      <use xlink:href="#DejaVuSans-20" transform="translate(388.818359 0)"/>
      <use xlink:href="#DejaVuSans-56" transform="translate(420.605469 0)"/>
      <use xlink:href="#DejaVuSans-65" transform="translate(481.263672 0)"/>
      <use xlink:href="#DejaVuSans-6c" transform="translate(542.787109 0)"/>
      <use xlink:href="#DejaVuSans-6f" transform="translate(570.570312 0)"/>
      <use xlink:href="#DejaVuSans-63" transform="translate(631.751953 0)"/>
      <use xlink:href="#DejaVuSans-69" transform="translate(686.732422 0)"/>
      <use xlink:href="#DejaVuSans-74" transform="translate(714.515625 0)"/>
      <use xlink:href="#DejaVuSans-79" transform="translate(753.724609 0)"/>
      <use xlink:href="#DejaVuSans-20" transform="translate(812.904297 0)"/>
      <use xlink:href="#DejaVuSans-5b" transform="translate(844.691406 0)"/>
      <use xlink:href="#DejaVuSans-72" transform="translate(883.705078 0)"/>
      <use xlink:href="#DejaVuSans-61" transform="translate(924.818359 0)"/>
      <use xlink:href="#DejaVuSans-64" transform="translate(986.097656 0)"/>
      <use xlink:href="#DejaVuSans-2f" transform="translate(1049.574219 0)"/>
      <use xlink:href="#DejaVuSans-73" transform="translate(1083.265625 0)"/>
      <use xlink:href="#DejaVuSans-5d" transform="translate(1135.365234 0)"/>
     </g>
    </g>
   </g>
   <g id="line2d_17">
    <path d="M 73.832727 171.860662  L 77.942331 171.447886  L 82.051936 170.418608  L 86.16154 168.863791  L 90.271144 166.863084  L 94.380748 164.167581  L 98.490352 160.692532  L 102.599546 156.656465  L 106.70915 152.070132  L 110.818755 146.725856  L 114.928359 140.654387  L 119.037963 134.136219  L 123.147567 127.317314  L 127.257171 120.285301  L 131.366365 113.448404  L 135.475969 107.291343  L 139.585574 102.28688  L 143.695178 98.805481  L 147.804782 97.242562  L 151.914386 97.762467  L 156.02399 100.282904  L 160.133184 104.545592  L 164.242788 110.019275  L 168.352393 116.423851  L 172.461997 123.18295  L 176.571601 129.978305  L 180.681205 136.490333  L 184.790809 142.5485  L 188.900413 148.031076  L 193.009607 152.910106  L 197.119212 157.15568  L 201.228816 160.780522  L 205.33842 163.787221  L 209.448024 166.181516  L 213.557628 168.064504  L 217.667232 169.418333  L 221.776426 170.262059  L 225.886031 170.548901  L 229.995635 170.43295  L 234.105239 169.857423  L 238.214843 168.724045  L 242.324447 167.114952  L 246.434051 165.000664  L 250.543245 162.356818  L 254.65285 159.194047  L 258.762454 155.482976  L 262.872058 151.211208  L 266.981662 146.415263  L 271.091266 141.174094  L 275.20087 135.549354  L 279.310475 129.651569  L 283.419669 123.694614  L 287.529273 117.985849  L 291.638877 112.767022  L 295.748399 108.413911  L 299.858003 105.251798  L 303.967607 103.539941  L 308.077212 103.428515  L 312.186816 104.91141  L 316.29601 107.896763  L 320.405614 112.145416  L 324.515218 117.274277  L 328.624822 122.987697  L 332.734426 128.912835  L 336.844031 134.782631  L 340.953635 140.4346  L 345.062829 145.663954  L 349.172433 150.466008  L 353.282037 154.742338  L 357.391641 158.501007  L 361.501245 161.713643  L 365.61085 164.445185  L 369.720454 166.653573  L 373.829648 168.455569  L 377.939252 169.856369  L 382.048856 170.721723  L 386.15846 171.330934  L 390.268064 171.457412  L 394.377669 171.271486  L 398.487273 170.729578  " clip-path="url(#pe95ab834af)" style="fill: none; stroke: #4285f4; stroke-width: 1.5; stroke-linecap: square"/>
   </g>
   <g id="line2d_18">
    <path d="M 73.832727 89.745942  L 77.942331 88.325913  L 82.051936 88.630379  L 86.16154 90.434644  L 90.271144 91.165995  L 94.380748 92.137863  L 98.490352 93.790612  L 102.599546 95.952799  L 106.70915 98.729327  L 110.818755 101.863896  L 114.928359 106.102885  L 119.037963 111.869057  L 123.147567 118.570717  L 127.257171 126.80408  L 131.366365 137.107728  L 135.475969 148.987812  L 139.585574 162.32451  L 143.695178 177.022906  L 147.804782 192.493337  L 151.914386 207.989333  L 156.02399 222.881699  L 160.133184 236.633993  L 164.242788 248.863333  L 168.352393 259.292288  L 172.461997 267.9196  L 176.571601 274.944231  L 180.681205 280.471958  L 184.790809 284.744025  L 188.900413 287.984498  L 193.009607 290.481367  L 197.119212 292.299567  L 201.228816 293.604979  L 205.33842 294.494072  L 209.448024 295.066049  L 213.557628 295.371547  L 217.667232 295.488  L 221.776426 295.431452  L 225.886031 295.212785  L 229.995635 294.85634  L 234.105239 294.349784  L 238.214843 293.703724  L 242.324447 292.883477  L 246.434051 291.812752  L 250.543245 290.502827  L 254.65285 288.840161  L 258.762454 286.73689  L 262.872058 284.106102  L 266.981662 280.797705  L 271.091266 276.695027  L 275.20087 271.638134  L 279.310475 265.468843  L 283.419669 258.07048  L 287.529273 249.307647  L 291.638877 239.269458  L 295.748399 227.974181  L 299.858003 215.679634  L 303.967607 202.719338  L 308.077212 189.587723  L 312.186816 176.669779  L 316.29601 164.543084  L 320.405614 153.434843  L 324.515218 143.670356  L 328.624822 135.30496  L 332.734426 128.351388  L 336.844031 122.658185  L 340.953635 118.099959  L 345.062829 114.542265  L 349.172433 111.757853  L 353.282037 109.660437  L 357.391641 108.089345  L 361.501245 106.937303  L 365.61085 106.152156  L 369.720454 105.655368  L 373.829648 105.380549  L 377.939252 105.30092  L 382.048856 105.401953  L 386.15846 105.663072  L 390.268064 106.107145  L 394.377669 106.631644  L 398.487273 107.372436  " clip-path="url(#pe95ab834af)" style="fill: none; stroke: #ea4335; stroke-width: 1.5; stroke-linecap: square"/>
   </g>
   <g id="line2d_19">
    <path d="M 73.832727 191.224502  L 77.942331 188.915955  L 82.051936 184.62681  L 86.16154 180.030344  L 90.271144 175.976401  L 94.380748 171.119318  L 98.490352 166.147854  L 102.599546 160.629115  L 106.70915 154.179051  L 110.818755 147.826014  L 114.928359 140.817204  L 119.037963 132.919018  L 123.147567 125.231108  L 127.257171 117.585  L 131.366365 110.030645  L 135.475969 103.397768  L 139.585574 98.173679  L 143.695178 94.644939  L 147.804782 93.223025  L 151.914386 94.042295  L 156.02399 97.218338  L 160.133184 102.400328  L 164.242788 108.980403  L 168.352393 116.456113  L 172.461997 124.377381  L 176.571601 132.340066  L 180.681205 140.115123  L 184.790809 147.497751  L 188.900413 154.4031  L 193.009607 160.699772  L 197.119212 166.449661  L 201.228816 171.684743  L 205.33842 176.51296  L 209.448024 180.922951  L 213.557628 185.091513  L 217.667232 189.020454  L 221.776426 192.775373  L 225.886031 196.420018  L 229.995635 200.048957  L 234.105239 203.764981  L 238.214843 207.491749  L 242.324447 211.43009  L 246.434051 215.538402  L 250.543245 219.935348  L 254.65285 224.662822  L 258.762454 229.732121  L 262.872058 235.155546  L 266.981662 240.995893  L 271.091266 247.146258  L 275.20087 253.514814  L 279.310475 260.016331  L 283.419669 266.497198  L 287.529273 272.630115  L 291.638877 278.156085  L 295.748399 282.796536  L 299.858003 286.059416  L 303.967607 287.730682  L 308.077212 287.731387  L 312.186816 285.97306  L 316.29601 282.70001  L 320.405614 278.032348  L 324.515218 272.377454  L 328.624822 266.029833  L 332.734426 259.316475  L 336.844031 252.599889  L 340.953635 246.047661  L 345.062829 239.743604  L 349.172433 233.79201  L 353.282037 228.304497  L 357.391641 223.230295  L 361.501245 218.552478  L 365.61085 214.243617  L 369.720454 210.223756  L 373.829648 206.451255  L 377.939252 202.903805  L 382.048856 199.502947  L 386.15846 196.234933  L 390.268064 193.038526  L 394.377669 189.880994  L 398.487273 186.674266  " clip-path="url(#pe95ab834af)" style="fill: none; stroke: #fbbc04; stroke-width: 1.5; stroke-linecap: square"/>
   </g>
   <g id="line2d_20">
    <path d="M 73.832727 87.012901  L 77.942331 85.420854  L 82.051936 85.140258  L 86.16154 85.95504  L 90.271144 85.495375  L 94.380748 84.702961  L 98.490352 83.982994  L 102.599546 83.00683  L 106.70915 81.567234  L 110.818755 79.551039  L 114.928359 77.106854  L 119.037963 74.236677  L 123.147567 70.860722  L 127.257171 67.132284  L 131.366365 63.294257  L 135.475969 59.642406  L 139.585574 56.611615  L 143.695178 54.47525  L 147.804782 53.568  L 151.914386 54.017235  L 156.02399 55.914118  L 160.133184 58.991953  L 164.242788 62.700961  L 168.352393 66.818  L 172.461997 70.940667  L 176.571601 74.794002  L 180.681205 78.279228  L 184.790809 81.313569  L 188.900413 83.887895  L 193.009607 85.936439  L 197.119212 87.616945  L 201.228816 88.969946  L 205.33842 90.072508  L 209.448024 90.942745  L 213.557628 91.671995  L 217.667232 92.237636  L 221.776426 92.676922  L 225.886031 92.997181  L 229.995635 93.223208  L 234.105239 93.342745  L 238.214843 93.308808  L 242.324447 93.124362  L 246.434051 92.810017  L 250.543245 92.261909  L 254.65285 91.49152  L 258.762454 90.456866  L 262.872058 89.095913  L 266.981662 87.371398  L 271.091266 85.279551  L 275.20087 82.829203  L 279.310475 80.032138  L 283.419669 76.959878  L 287.529273 73.867003  L 291.638877 70.854105  L 295.748399 68.196889  L 299.858003 66.259092  L 303.967607 65.232958  L 308.077212 65.202766  L 312.186816 66.234369  L 316.29601 68.202543  L 320.405614 70.993139  L 324.515218 74.284728  L 328.624822 77.866914  L 332.734426 81.479323  L 336.844031 84.858185  L 340.953635 87.938131  L 345.062829 90.670339  L 349.172433 93.015128  L 353.282037 94.983477  L 357.391641 96.61704  L 361.501245 97.945294  L 365.61085 99.060623  L 369.720454 99.981264  L 373.829648 100.754465  L 377.939252 101.409012  L 382.048856 101.940078  L 386.15846 102.429423  L 390.268064 102.85564  L 394.377669 103.169016  L 398.487273 103.478968  " clip-path="url(#pe95ab834af)" style="fill: none; stroke: #000000; stroke-width: 1.5; stroke-linecap: square"/>
   </g>
   <g id="patch_3">
    <path d="M 57.6 307.584  L 57.6 41.472  " style="fill: none; stroke: #000000; stroke-width: 0.8; stroke-linejoin: miter; stroke-linecap: square"/>
   </g>
   <g id="patch_4">
    <path d="M 414.72 307.584  L 414.72 41.472  " style="fill: none; stroke: #000000; stroke-width: 0.8; stroke-linejoin: miter; stroke-linecap: square"/>
   </g>
   <g id="patch_5">
    <path d="M 57.6 307.584  L 414.72 307.584  " style="fill: none; stroke: #000000; stroke-width: 0.8; stroke-linejoin: miter; stroke-linecap: square"/>
   </g>
   <g id="patch_6">
    <path d="M 57.6 41.472  L 414.72 41.472  " style="fill: none; stroke: #000000; stroke-width: 0.8; stroke-linejoin: miter; stroke-linecap: square"/>
   </g>
   <g id="text_19">
    <!-- Trial 19: Intermediate axis rotation -->
    <g transform="translate(132.362813 35.472) scale(0.12 -0.12)">
     <defs>
      <path id="DejaVuSans-3a" d="M 750 794  L 1409 794  L 1409 0  L 750 0  L 750 794  z M 750 3309  L 1409 3309  L 1409 2516  L 750 2516  L 750 3309  z " transform="scale(0.015625)"/>
      <path id="DejaVuSans-49" d="M 628 4666  L 1259 4666  L 1259 0  L 628 0  L 628 4666  z " transform="scale(0.015625)"/>
      <path id="DejaVuSans-78" d="M 3513 3500  L 2247 1797  L 3578 0  L 2900 0  L 1881 1375  L 863 0  L 184 0  L 1544 1831  L 300 3500  L 978 3500  L 1906 2253  L 2834 3500  L 3513 3500  z " transform="scale(0.015625)"/>
     </defs>
     <use xlink:href="#DejaVuSans-54"/>
     <use xlink:href="#DejaVuSans-72" transform="translate(46.333984 0)"/>
     <use xlink:href="#DejaVuSans-69" transform="translate(87.447266 0)"/>
     <use xlink:href="#DejaVuSans-61" transform="translate(115.230469 0)"/>
     <use xlink:href="#DejaVuSans-6c" transform="translate(176.509766 0)"/>
     <use xlink:href="#DejaVuSans-20" transform="translate(204.292969 0)"/>
     <use xlink:href="#DejaVuSans-31" transform="translate(236.080078 0)"/>
     <use xlink:href="#DejaVuSans-39" transform="translate(299.703125 0)"/>
     <use xlink:href="#DejaVuSans-3a" transform="translate(363.326172 0)"/>
     <use xlink:href="#DejaVuSans-20" transform="translate(397.017578 0)"/>
     <use xlink:href="#DejaVuSans-49" transform="translate(428.804688 0)"/>
     <use xlink:href="#DejaVuSans-6e" transform="translate(458.296875 0)"/>
     <use xlink:href="#DejaVuSans-74" transform="translate(521.675781 0)"/>
     <use xlink:href="#DejaVuSans-65" transform="translate(560.884766 0)"/>
     <use xlink:href="#DejaVuSans-72" transform="translate(622.408203 0)"/>
     <use xlink:href="#DejaVuSans-6d" transform="translate(661.771484 0)"/>
     <use xlink:href="#DejaVuSans-65" transform="translate(759.183594 0)"/>
     <use xlink:href="#DejaVuSans-64" transform="translate(820.707031 0)"/>
     <use xlink:href="#DejaVuSans-69" transform="translate(884.183594 0)"/>
     <use xlink:href="#DejaVuSans-61" transform="translate(911.966797 0)"/>
     <use xlink:href="#DejaVuSans-74" transform="translate(973.246094 0)"/>
     <use xlink:href="#DejaVuSans-65" transform="translate(1012.455078 0)"/>
     <use xlink:href="#DejaVuSans-20" transform="translate(1073.978516 0)"/>
     <use xlink:href="#DejaVuSans-61" transform="translate(1105.765625 0)"/>
     <use xlink:href="#DejaVuSans-78" transform="translate(1167.044922 0)"/>
     <use xlink:href="#DejaVuSans-69" transform="translate(1226.224609 0)"/>
     <use xlink:href="#DejaVuSans-73" transform="translate(1254.007812 0)"/>
     <use xlink:href="#DejaVuSans-20" transform="translate(1306.107422 0)"/>
     <use xlink:href="#DejaVuSans-72" transform="translate(1337.894531 0)"/>
     <use xlink:href="#DejaVuSans-6f" transform="translate(1376.757812 0)"/>
     <use xlink:href="#DejaVuSans-74" transform="translate(1437.939453 0)"/>
     <use xlink:href="#DejaVuSans-61" transform="translate(1477.148438 0)"/>
     <use xlink:href="#DejaVuSans-74" transform="translate(1538.427734 0)"/>
     <use xlink:href="#DejaVuSans-69" transform="translate(1577.636719 0)"/>
     <use xlink:href="#DejaVuSans-6f" transform="translate(1605.419922 0)"/>
     <use xlink:href="#DejaVuSans-6e" transform="translate(1666.601562 0)"/>
    </g>
   </g>
   <g id="legend_1">
    <g id="patch_7">
     <path d="M 64.6 302.584  L 185.04375 302.584  Q 187.04375 302.584 187.04375 300.584  L 187.04375 242.8715  Q 187.04375 240.8715 185.04375 240.8715  L 64.6 240.8715  Q 62.6 240.8715 62.6 242.8715  L 62.6 300.584  Q 62.6 302.584 64.6 302.584  z " style="fill: #ffffff; opacity: 0.8; stroke: #cccccc; stroke-linejoin: miter"/>
    </g>
    <g id="line2d_21">
     <path d="M 66.6 248.969937  L 76.6 248.969937  L 86.6 248.969937  " style="fill: none; stroke: #4285f4; stroke-width: 1.5; stroke-linecap: square"/>
    </g>
    <g id="text_20">
     <!-- Primary Axis -->
     <g transform="translate(94.6 252.469937) scale(0.1 -0.1)">
      <defs>
       <path id="DejaVuSans-50" d="M 1259 4147  L 1259 2394  L 2053 2394  Q 2494 2394 2734 2622  Q 2975 2850 2975 3272  Q 2975 3691 2734 3919  Q 2494 4147 2053 4147  L 1259 4147  z M 628 4666  L 2053 4666  Q 2838 4666 3239 4311  Q 3641 3956 3641 3272  Q 3641 2581 3239 2228  Q 2838 1875 2053 1875  L 1259 1875  L 1259 0  L 628 0  L 628 4666  z " transform="scale(0.015625)"/>
      </defs>
      <use xlink:href="#DejaVuSans-50"/>
      <use xlink:href="#DejaVuSans-72" transform="translate(58.552734 0)"/>
      <use xlink:href="#DejaVuSans-69" transform="translate(99.666016 0)"/>
      <use xlink:href="#DejaVuSans-6d" transform="translate(127.449219 0)"/>
      <use xlink:href="#DejaVuSans-61" transform="translate(224.861328 0)"/>
      <use xlink:href="#DejaVuSans-72" transform="translate(286.140625 0)"/>
      <use xlink:href="#DejaVuSans-79" transform="translate(327.253906 0)"/>
      <use xlink:href="#DejaVuSans-20" transform="translate(386.433594 0)"/>
      <use xlink:href="#DejaVuSans-41" transform="translate(418.220703 0)"/>
      <use xlink:href="#DejaVuSans-78" transform="translate(486.628906 0)"/>
      <use xlink:href="#DejaVuSans-69" transform="translate(545.808594 0)"/>
      <use xlink:href="#DejaVuSans-73" transform="translate(573.591797 0)"/>
     </g>
    </g>
    <g id="line2d_22">
     <path d="M 66.6 263.648062  L 76.6 263.648062  L 86.6 263.648062  " style="fill: none; stroke: #ea4335; stroke-width: 1.5; stroke-linecap: square"/>
    </g>
    <g id="text_21">
     <!-- Intermediate Axis -->
     <g transform="translate(94.6 267.148062) scale(0.1 -0.1)">
      <use xlink:href="#DejaVuSans-49"/>
      <use xlink:href="#DejaVuSans-6e" transform="translate(29.492188 0)"/>
      <use xlink:href="#DejaVuSans-74" transform="translate(92.871094 0)"/>
      <use xlink:href="#DejaVuSans-65" transform="translate(132.080078 0)"/>
      <use xlink:href="#DejaVuSans-72" transform="translate(193.603516 0)"/>
      <use xlink:href="#DejaVuSans-6d" transform="translate(232.966797 0)"/>
      <use xlink:href="#DejaVuSans-65" transform="translate(330.378906 0)"/>
      <use xlink:href="#DejaVuSans-64" transform="translate(391.902344 0)"/>
      <use xlink:href="#DejaVuSans-69" transform="translate(455.378906 0)"/>
      <use xlink:href="#DejaVuSans-61" transform="translate(483.162109 0)"/>
      <use xlink:href="#DejaVuSans-74" transform="translate(544.441406 0)"/>
      <use xlink:href="#DejaVuSans-65" transform="translate(583.650391 0)"/>
      <use xlink:href="#DejaVuSans-20" transform="translate(645.173828 0)"/>
      <use xlink:href="#DejaVuSans-41" transform="translate(676.960938 0)"/>
      <use xlink:href="#DejaVuSans-78" transform="translate(745.369141 0)"/>
      <use xlink:href="#DejaVuSans-69" transform="translate(804.548828 0)"/>
      <use xlink:href="#DejaVuSans-73" transform="translate(832.332031 0)"/>
     </g>
    </g>
    <g id="line2d_23">
     <path d="M 66.6 278.326187  L 76.6 278.326187  L 86.6 278.326187  " style="fill: none; stroke: #fbbc04; stroke-width: 1.5; stroke-linecap: square"/>
    </g>
    <g id="text_22">
     <!-- Tertiary Axis -->
     <g transform="translate(94.6 281.826187) scale(0.1 -0.1)">
      <use xlink:href="#DejaVuSans-54"/>
      <use xlink:href="#DejaVuSans-65" transform="translate(44.083984 0)"/>
      <use xlink:href="#DejaVuSans-72" transform="translate(105.607422 0)"/>
      <use xlink:href="#DejaVuSans-74" transform="translate(146.720703 0)"/>
      <use xlink:href="#DejaVuSans-69" transform="translate(185.929688 0)"/>
      <use xlink:href="#DejaVuSans-61" transform="translate(213.712891 0)"/>
      <use xlink:href="#DejaVuSans-72" transform="translate(274.992188 0)"/>
      <use xlink:href="#DejaVuSans-79" transform="translate(316.105469 0)"/>
      <use xlink:href="#DejaVuSans-20" transform="translate(375.285156 0)"/>
      <use xlink:href="#DejaVuSans-41" transform="translate(407.072266 0)"/>
      <use xlink:href="#DejaVuSans-78" transform="translate(475.480469 0)"/>
      <use xlink:href="#DejaVuSans-69" transform="translate(534.660156 0)"/>
      <use xlink:href="#DejaVuSans-73" transform="translate(562.443359 0)"/>
     </g>
    </g>
    <g id="line2d_24">
     <path d="M 66.6 293.004312  L 76.6 293.004312  L 86.6 293.004312  " style="fill: none; stroke: #000000; stroke-width: 1.5; stroke-linecap: square"/>
    </g>
    <g id="text_23">
     <!-- Absolute -->
     <g transform="translate(94.6 296.504312) scale(0.1 -0.1)">
      <defs>
       <path id="DejaVuSans-62" d="M 3116 1747  Q 3116 2381 2855 2742  Q 2594 3103 2138 3103  Q 1681 3103 1420 2742  Q 1159 2381 1159 1747  Q 1159 1113 1420 752  Q 1681 391 2138 391  Q 2594 391 2855 752  Q 3116 1113 3116 1747  z M 1159 2969  Q 1341 3281 1617 3432  Q 1894 3584 2278 3584  Q 2916 3584 3314 3078  Q 3713 2572 3713 1747  Q 3713 922 3314 415  Q 2916 -91 2278 -91  Q 1894 -91 1617 61  Q 1341 213 1159 525  L 1159 0  L 581 0  L 581 4863  L 1159 4863  L 1159 2969  z " transform="scale(0.015625)"/>
      </defs>
      <use xlink:href="#DejaVuSans-41"/>
      <use xlink:href="#DejaVuSans-62" transform="translate(68.408203 0)"/>
      <use xlink:href="#DejaVuSans-73" transform="translate(131.884766 0)"/>
      <use xlink:href="#DejaVuSans-6f" transform="translate(183.984375 0)"/>
      <use xlink:href="#DejaVuSans-6c" transform="translate(245.166016 0)"/>
      <use xlink:href="#DejaVuSans-75" transform="translate(272.949219 0)"/>
      <use xlink:href="#DejaVuSans-74" transform="translate(336.328125 0)"/>
      <use xlink:href="#DejaVuSans-65" transform="translate(375.537109 0)"/>
     </g>
    </g>
   </g>
  </g>
 </g>
 <defs>
  <clipPath id="pe95ab834af">
   <rect x="57.6" y="41.472" width="357.12" height="266.112"/>
  </clipPath>
 </defs>
</svg>