<?xml version="1.0" encoding="UTF-8" standalone="no"?>
<!DOCTYPE svg PUBLIC "-//W3C//DTD SVG 1.1//EN" "http://www.w3.org/Graphics/SVG/1.1/DTD/svg11.dtd">
<svg xmlns:xlink="http://www.w3.org/1999/xlink" width="460.8pt" height="345.6pt" viewBox="0 0 460.8 345.6" xmlns="http://www.w3.org/2000/svg" version="1.1">
 <metadata>
  <rdf:RDF xmlns:dc="http://purl.org/dc/elements/1.1/" xmlns:cc="http://creativecommons.org/ns#" xmlns:rdf="http://www.w3.org/1999/02/22-rdf-syntax-ns#">
   <cc:Work>
    <dc:type rdf:resource="http://purl.org/dc/dcmitype/StillImage"/>
    <dc:date>2025-03-22T22:32:38.154901</dc:date>
    <dc:format>image/svg+xml</dc:format>
    <dc:creator>
     <cc:Agent>
      <dc:title>Matplotlib v3.10.0, https://matplotlib.org/</dc:title>
     </cc:Agent>
    </dc:creator>
   </cc:Work>
  </rdf:RDF>
 </metadata>
 <defs>
  <style type="text/css">*{stroke-linejoin: round; stroke-linecap: butt}</style>
 </defs>
 <g id="figure_1">
  <g id="patch_1">
   <path d="M 0 345.6  L 460.8 345.6  L 460.8 0  L 0 0  z " style="fill: #ffffff"/>
  </g>
  <g id="axes_1">
   <g id="patch_2">
    <path d="M 57.6 307.584  L 414.72 307.584  L 414.72 41.472  L 57.6 41.472  z " style="fill: #ffffff"/>
   </g>
   <g id="matplotlib.axis_1">
    <g id="xtick_1">
     <g id="line2d_1">
      <defs>
       <path id="m7e7cfc7aac" d="M 0 0  L 0 3.5  " style="stroke: #000000; stroke-width: 0.8"/>
      </defs>
      <g>
       <use xlink:href="#m7e7cfc7aac" x="63.912734" y="307.584" style="stroke: #000000; stroke-width: 0.8"/>
      </g>
     </g>
     <g id="text_1">
      <!-- 163.4 -->
      <g transform="translate(49.598672 322.182437) scale(0.1 -0.1)">
       <defs>
        <path id="DejaVuSans-31" d="M 794 531  L 1825 531  L 1825 4091  L 703 3866  L 703 4441  L 1819 4666  L 2450 4666  L 2450 531  L 3481 531  L 3481 0  L 794 0  L 794 531  z " transform="scale(0.015625)"/>
        <path id="DejaVuSans-36" d="M 2113 2584  Q 1688 2584 1439 2293  Q 1191 2003 1191 1497  Q 1191 994 1439 701  Q 1688 409 2113 409  Q 2538 409 2786 701  Q 3034 994 3034 1497  Q 3034 2003 2786 2293  Q 2538 2584 2113 2584  z M 3366 4563  L 3366 3988  Q 3128 4100 2886 4159  Q 2644 4219 2406 4219  Q 1781 4219 1451 3797  Q 1122 3375 1075 2522  Q 1259 2794 1537 2939  Q 1816 3084 2150 3084  Q 2853 3084 3261 2657  Q 3669 2231 3669 1497  Q 3669 778 3244 343  Q 2819 -91 2113 -91  Q 1303 -91 875 529  Q 447 1150 447 2328  Q 447 3434 972 4092  Q 1497 4750 2381 4750  Q 2619 4750 2861 4703  Q 3103 4656 3366 4563  z " transform="scale(0.015625)"/>
        <path id="DejaVuSans-33" d="M 2597 2516  Q 3050 2419 3304 2112  Q 3559 1806 3559 1356  Q 3559 666 3084 287  Q 2609 -91 1734 -91  Q 1441 -91 1130 -33  Q 819 25 488 141  L 488 750  Q 750 597 1062 519  Q 1375 441 1716 441  Q 2309 441 2620 675  Q 2931 909 2931 1356  Q 2931 1769 2642 2001  Q 2353 2234 1838 2234  L 1294 2234  L 1294 2753  L 1863 2753  Q 2328 2753 2575 2939  Q 2822 3125 2822 3475  Q 2822 3834 2567 4026  Q 2313 4219 1838 4219  Q 1578 4219 1281 4162  Q 984 4106 628 3988  L 628 4550  Q 988 4650 1302 4700  Q 1616 4750 1894 4750  Q 2613 4750 3031 4423  Q 3450 4097 3450 3541  Q 3450 3153 3228 2886  Q 3006 2619 2597 2516  z " transform="scale(0.015625)"/>
        <path id="DejaVuSans-2e" d="M 684 794  L 1344 794  L 1344 0  L 684 0  L 684 794  z " transform="scale(0.015625)"/>
        <path id="DejaVuSans-34" d="M 2419 4116  L 825 1625  L 2419 1625  L 2419 4116  z M 2253 4666  L 3047 4666  L 3047 1625  L 3713 1625  L 3713 1100  L 3047 1100  L 3047 0  L 2419 0  L 2419 1100  L 313 1100  L 313 1709  L 2253 4666  z " transform="scale(0.015625)"/>
       </defs>
       <use xlink:href="#DejaVuSans-31"/>
       <use xlink:href="#DejaVuSans-36" transform="translate(63.623047 0)"/>
       <use xlink:href="#DejaVuSans-33" transform="translate(127.246094 0)"/>
       <use xlink:href="#DejaVuSans-2e" transform="translate(190.869141 0)"/>
       <use xlink:href="#DejaVuSans-34" transform="translate(222.65625 0)"/>
      </g>
     </g>
    </g>
    <g id="xtick_2">
     <g id="line2d_2">
      <g>
       <use xlink:href="#m7e7cfc7aac" x="132.843459" y="307.584" style="stroke: #000000; stroke-width: 0.8"/>
      </g>
     </g>
     <g id="text_2">
      <!-- 163.6 -->
      <g transform="translate(118.529397 322.182437) scale(0.1 -0.1)">
       <use xlink:href="#DejaVuSans-31"/>
       <use xlink:href="#DejaVuSans-36" transform="translate(63.623047 0)"/>
       <use xlink:href="#DejaVuSans-33" transform="translate(127.246094 0)"/>
       <use xlink:href="#DejaVuSans-2e" transform="translate(190.869141 0)"/>
       <use xlink:href="#DejaVuSans-36" transform="translate(222.65625 0)"/>
      </g>
     </g>
    </g>
    <g id="xtick_3">
     <g id="line2d_3">
      <g>
       <use xlink:href="#m7e7cfc7aac" x="201.774184" y="307.584" style="stroke: #000000; stroke-width: 0.8"/>
      </g>
     </g>
     <g id="text_3">
      <!-- 163.8 -->
      <g transform="translate(187.460121 322.182437) scale(0.1 -0.1)">
       <defs>
        <path id="DejaVuSans-38" d="M 2034 2216  Q 1584 2216 1326 1975  Q 1069 1734 1069 1313  Q 1069 891 1326 650  Q 1584 409 2034 409  Q 2484 409 2743 651  Q 3003 894 3003 1313  Q 3003 1734 2745 1975  Q 2488 2216 2034 2216  z M 1403 2484  Q 997 2584 770 2862  Q 544 3141 544 3541  Q 544 4100 942 4425  Q 1341 4750 2034 4750  Q 2731 4750 3128 4425  Q 3525 4100 3525 3541  Q 3525 3141 3298 2862  Q 3072 2584 2669 2484  Q 3125 2378 3379 2068  Q 3634 1759 3634 1313  Q 3634 634 3220 271  Q 2806 -91 2034 -91  Q 1263 -91 848 271  Q 434 634 434 1313  Q 434 1759 690 2068  Q 947 2378 1403 2484  z M 1172 3481  Q 1172 3119 1398 2916  Q 1625 2713 2034 2713  Q 2441 2713 2670 2916  Q 2900 3119 2900 3481  Q 2900 3844 2670 4047  Q 2441 4250 2034 4250  Q 1625 4250 1398 4047  Q 1172 3844 1172 3481  z " transform="scale(0.015625)"/>
       </defs>
       <use xlink:href="#DejaVuSans-31"/>
       <use xlink:href="#DejaVuSans-36" transform="translate(63.623047 0)"/>
       <use xlink:href="#DejaVuSans-33" transform="translate(127.246094 0)"/>
       <use xlink:href="#DejaVuSans-2e" transform="translate(190.869141 0)"/>
       <use xlink:href="#DejaVuSans-38" transform="translate(222.65625 0)"/>
      </g>
     </g>
    </g>
    <g id="xtick_4">
     <g id="line2d_4">
      <g>
       <use xlink:href="#m7e7cfc7aac" x="270.704908" y="307.584" style="stroke: #000000; stroke-width: 0.8"/>
      </g>
     </g>
     <g id="text_4">
      <!-- 164.0 -->
      <g transform="translate(256.390846 322.182437) scale(0.1 -0.1)">
       <defs>
        <path id="DejaVuSans-30" d="M 2034 4250  Q 1547 4250 1301 3770  Q 1056 3291 1056 2328  Q 1056 1369 1301 889  Q 1547 409 2034 409  Q 2525 409 2770 889  Q 3016 1369 3016 2328  Q 3016 3291 2770 3770  Q 2525 4250 2034 4250  z M 2034 4750  Q 2819 4750 3233 4129  Q 3647 3509 3647 2328  Q 3647 1150 3233 529  Q 2819 -91 2034 -91  Q 1250 -91 836 529  Q 422 1150 422 2328  Q 422 3509 836 4129  Q 1250 4750 2034 4750  z " transform="scale(0.015625)"/>
       </defs>
       <use xlink:href="#DejaVuSans-31"/>
       <use xlink:href="#DejaVuSans-36" transform="translate(63.623047 0)"/>
       <use xlink:href="#DejaVuSans-34" transform="translate(127.246094 0)"/>
       <use xlink:href="#DejaVuSans-2e" transform="translate(190.869141 0)"/>
       <use xlink:href="#DejaVuSans-30" transform="translate(222.65625 0)"/>
      </g>
     </g>
    </g>
    <g id="xtick_5">
     <g id="line2d_5">
      <g>
       <use xlink:href="#m7e7cfc7aac" x="339.635633" y="307.584" style="stroke: #000000; stroke-width: 0.8"/>
      </g>
     </g>
     <g id="text_5">
      <!-- 164.2 -->
      <g transform="translate(325.321571 322.182437) scale(0.1 -0.1)">
       <defs>
        <path id="DejaVuSans-32" d="M 1228 531  L 3431 531  L 3431 0  L 469 0  L 469 531  Q 828 903 1448 1529  Q 2069 2156 2228 2338  Q 2531 2678 2651 2914  Q 2772 3150 2772 3378  Q 2772 3750 2511 3984  Q 2250 4219 1831 4219  Q 1534 4219 1204 4116  Q 875 4013 500 3803  L 500 4441  Q 881 4594 1212 4672  Q 1544 4750 1819 4750  Q 2544 4750 2975 4387  Q 3406 4025 3406 3419  Q 3406 3131 3298 2873  Q 3191 2616 2906 2266  Q 2828 2175 2409 1742  Q 1991 1309 1228 531  z " transform="scale(0.015625)"/>
       </defs>
       <use xlink:href="#DejaVuSans-31"/>
       <use xlink:href="#DejaVuSans-36" transform="translate(63.623047 0)"/>
       <use xlink:href="#DejaVuSans-34" transform="translate(127.246094 0)"/>
       <use xlink:href="#DejaVuSans-2e" transform="translate(190.869141 0)"/>
       <use xlink:href="#DejaVuSans-32" transform="translate(222.65625 0)"/>
      </g>
     </g>
    </g>
    <g id="xtick_6">
     <g id="line2d_6">
      <g>
       <use xlink:href="#m7e7cfc7aac" x="408.566358" y="307.584" style="stroke: #000000; stroke-width: 0.8"/>
      </g>
     </g>
     <g id="text_6">
      <!-- 164.4 -->
      <g transform="translate(394.252295 322.182437) scale(0.1 -0.1)">
       <use xlink:href="#DejaVuSans-31"/>
       <use xlink:href="#DejaVuSans-36" transform="translate(63.623047 0)"/>
       <use xlink:href="#DejaVuSans-34" transform="translate(127.246094 0)"/>
       <use xlink:href="#DejaVuSans-2e" transform="translate(190.869141 0)"/>
       <use xlink:href="#DejaVuSans-34" transform="translate(222.65625 0)"/>
      </g>
     </g>
    </g>
    <g id="text_7">
     <!-- Time [s] -->
     <g transform="translate(215.831094 335.860562) scale(0.1 -0.1)">
      <defs>
       <path id="DejaVuSans-54" d="M -19 4666  L 3928 4666  L 3928 4134  L 2272 4134  L 2272 0  L 1638 0  L 1638 4134  L -19 4134  L -19 4666  z " transform="scale(0.015625)"/>
       <path id="DejaVuSans-69" d="M 603 3500  L 1178 3500  L 1178 0  L 603 0  L 603 3500  z M 603 4863  L 1178 4863  L 1178 4134  L 603 4134  L 603 4863  z " transform="scale(0.015625)"/>
       <path id="DejaVuSans-6d" d="M 3328 2828  Q 3544 3216 3844 3400  Q 4144 3584 4550 3584  Q 5097 3584 5394 3201  Q 5691 2819 5691 2113  L 5691 0  L 5113 0  L 5113 2094  Q 5113 2597 4934 2840  Q 4756 3084 4391 3084  Q 3944 3084 3684 2787  Q 3425 2491 3425 1978  L 3425 0  L 2847 0  L 2847 2094  Q 2847 2600 2669 2842  Q 2491 3084 2119 3084  Q 1678 3084 1418 2786  Q 1159 2488 1159 1978  L 1159 0  L 581 0  L 581 3500  L 1159 3500  L 1159 2956  Q 1356 3278 1631 3431  Q 1906 3584 2284 3584  Q 2666 3584 2933 3390  Q 3200 3197 3328 2828  z " transform="scale(0.015625)"/>
       <path id="DejaVuSans-65" d="M 3597 1894  L 3597 1613  L 953 1613  Q 991 1019 1311 708  Q 1631 397 2203 397  Q 2534 397 2845 478  Q 3156 559 3463 722  L 3463 178  Q 3153 47 2828 -22  Q 2503 -91 2169 -91  Q 1331 -91 842 396  Q 353 884 353 1716  Q 353 2575 817 3079  Q 1281 3584 2069 3584  Q 2775 3584 3186 3129  Q 3597 2675 3597 1894  z M 3022 2063  Q 3016 2534 2758 2815  Q 2500 3097 2075 3097  Q 1594 3097 1305 2825  Q 1016 2553 972 2059  L 3022 2063  z " transform="scale(0.015625)"/>
       <path id="DejaVuSans-20" transform="scale(0.015625)"/>
       <path id="DejaVuSans-5b" d="M 550 4863  L 1875 4863  L 1875 4416  L 1125 4416  L 1125 -397  L 1875 -397  L 1875 -844  L 550 -844  L 550 4863  z " transform="scale(0.015625)"/>
       <path id="DejaVuSans-73" d="M 2834 3397  L 2834 2853  Q 2591 2978 2328 3040  Q 2066 3103 1784 3103  Q 1356 3103 1142 2972  Q 928 2841 928 2578  Q 928 2378 1081 2264  Q 1234 2150 1697 2047  L 1894 2003  Q 2506 1872 2764 1633  Q 3022 1394 3022 966  Q 3022 478 2636 193  Q 2250 -91 1575 -91  Q 1294 -91 989 -36  Q 684 19 347 128  L 347 722  Q 666 556 975 473  Q 1284 391 1588 391  Q 1994 391 2212 530  Q 2431 669 2431 922  Q 2431 1156 2273 1281  Q 2116 1406 1581 1522  L 1381 1569  Q 847 1681 609 1914  Q 372 2147 372 2553  Q 372 3047 722 3315  Q 1072 3584 1716 3584  Q 2034 3584 2315 3537  Q 2597 3491 2834 3397  z " transform="scale(0.015625)"/>
       <path id="DejaVuSans-5d" d="M 1947 4863  L 1947 -844  L 622 -844  L 622 -397  L 1369 -397  L 1369 4416  L 622 4416  L 622 4863  L 1947 4863  z " transform="scale(0.015625)"/>
      </defs>
      <use xlink:href="#DejaVuSans-54"/>
      <use xlink:href="#DejaVuSans-69" transform="translate(57.958984 0)"/>
      <use xlink:href="#DejaVuSans-6d" transform="translate(85.742188 0)"/>
      <use xlink:href="#DejaVuSans-65" transform="translate(183.154297 0)"/>
      <use xlink:href="#DejaVuSans-20" transform="translate(244.677734 0)"/>
      <use xlink:href="#DejaVuSans-5b" transform="translate(276.464844 0)"/>
      <use xlink:href="#DejaVuSans-73" transform="translate(315.478516 0)"/>
      <use xlink:href="#DejaVuSans-5d" transform="translate(367.578125 0)"/>
     </g>
    </g>
   </g>
   <g id="matplotlib.axis_2">
    <g id="ytick_1">
     <g id="line2d_7">
      <defs>
       <path id="m38471e0b30" d="M 0 0  L -3.5 0  " style="stroke: #000000; stroke-width: 0.8"/>
      </defs>
      <g>
       <use xlink:href="#m38471e0b30" x="57.6" y="307.568915" style="stroke: #000000; stroke-width: 0.8"/>
      </g>
     </g>
     <g id="text_8">
      <!-- −0.15 -->
      <g transform="translate(19.954687 311.368134) scale(0.1 -0.1)">
       <defs>
        <path id="DejaVuSans-2212" d="M 678 2272  L 4684 2272  L 4684 1741  L 678 1741  L 678 2272  z " transform="scale(0.015625)"/>
        <path id="DejaVuSans-35" d="M 691 4666  L 3169 4666  L 3169 4134  L 1269 4134  L 1269 2991  Q 1406 3038 1543 3061  Q 1681 3084 1819 3084  Q 2600 3084 3056 2656  Q 3513 2228 3513 1497  Q 3513 744 3044 326  Q 2575 -91 1722 -91  Q 1428 -91 1123 -41  Q 819 9 494 109  L 494 744  Q 775 591 1075 516  Q 1375 441 1709 441  Q 2250 441 2565 725  Q 2881 1009 2881 1497  Q 2881 1984 2565 2268  Q 2250 2553 1709 2553  Q 1456 2553 1204 2497  Q 953 2441 691 2322  L 691 4666  z " transform="scale(0.015625)"/>
       </defs>
       <use xlink:href="#DejaVuSans-2212"/>
       <use xlink:href="#DejaVuSans-30" transform="translate(83.789062 0)"/>
       <use xlink:href="#DejaVuSans-2e" transform="translate(147.412109 0)"/>
       <use xlink:href="#DejaVuSans-31" transform="translate(179.199219 0)"/>
       <use xlink:href="#DejaVuSans-35" transform="translate(242.822266 0)"/>
      </g>
     </g>
    </g>
    <g id="ytick_2">
     <g id="line2d_8">
      <g>
       <use xlink:href="#m38471e0b30" x="57.6" y="264.211383" style="stroke: #000000; stroke-width: 0.8"/>
      </g>
     </g>
     <g id="text_9">
      <!-- −0.10 -->
      <g transform="translate(19.954687 268.010602) scale(0.1 -0.1)">
       <use xlink:href="#DejaVuSans-2212"/>
       <use xlink:href="#DejaVuSans-30" transform="translate(83.789062 0)"/>
       <use xlink:href="#DejaVuSans-2e" transform="translate(147.412109 0)"/>
       <use xlink:href="#DejaVuSans-31" transform="translate(179.199219 0)"/>
       <use xlink:href="#DejaVuSans-30" transform="translate(242.822266 0)"/>
      </g>
     </g>
    </g>
    <g id="ytick_3">
     <g id="line2d_9">
      <g>
       <use xlink:href="#m38471e0b30" x="57.6" y="220.853851" style="stroke: #000000; stroke-width: 0.8"/>
      </g>
     </g>
     <g id="text_10">
      <!-- −0.05 -->
      <g transform="translate(19.954687 224.65307) scale(0.1 -0.1)">
       <use xlink:href="#DejaVuSans-2212"/>
       <use xlink:href="#DejaVuSans-30" transform="translate(83.789062 0)"/>
       <use xlink:href="#DejaVuSans-2e" transform="translate(147.412109 0)"/>
       <use xlink:href="#DejaVuSans-30" transform="translate(179.199219 0)"/>
       <use xlink:href="#DejaVuSans-35" transform="translate(242.822266 0)"/>
      </g>
     </g>
    </g>
    <g id="ytick_4">
     <g id="line2d_10">
      <g>
       <use xlink:href="#m38471e0b30" x="57.6" y="177.49632" style="stroke: #000000; stroke-width: 0.8"/>
      </g>
     </g>
     <g id="text_11">
      <!-- 0.00 -->
      <g transform="translate(28.334375 181.295538) scale(0.1 -0.1)">
       <use xlink:href="#DejaVuSans-30"/>
       <use xlink:href="#DejaVuSans-2e" transform="translate(63.623047 0)"/>
       <use xlink:href="#DejaVuSans-30" transform="translate(95.410156 0)"/>
       <use xlink:href="#DejaVuSans-30" transform="translate(159.033203 0)"/>
      </g>
     </g>
    </g>
    <g id="ytick_5">
     <g id="line2d_11">
      <g>
       <use xlink:href="#m38471e0b30" x="57.6" y="134.138788" style="stroke: #000000; stroke-width: 0.8"/>
      </g>
     </g>
     <g id="text_12">
      <!-- 0.05 -->
      <g transform="translate(28.334375 137.938007) scale(0.1 -0.1)">
       <use xlink:href="#DejaVuSans-30"/>
       <use xlink:href="#DejaVuSans-2e" transform="translate(63.623047 0)"/>
       <use xlink:href="#DejaVuSans-30" transform="translate(95.410156 0)"/>
       <use xlink:href="#DejaVuSans-35" transform="translate(159.033203 0)"/>
      </g>
     </g>
    </g>
    <g id="ytick_6">
     <g id="line2d_12">
      <g>
       <use xlink:href="#m38471e0b30" x="57.6" y="90.781256" style="stroke: #000000; stroke-width: 0.8"/>
      </g>
     </g>
     <g id="text_13">
      <!-- 0.10 -->
      <g transform="translate(28.334375 94.580475) scale(0.1 -0.1)">
       <use xlink:href="#DejaVuSans-30"/>
       <use xlink:href="#DejaVuSans-2e" transform="translate(63.623047 0)"/>
       <use xlink:href="#DejaVuSans-31" transform="translate(95.410156 0)"/>
       <use xlink:href="#DejaVuSans-30" transform="translate(159.033203 0)"/>
      </g>
     </g>
    </g>
    <g id="ytick_7">
     <g id="line2d_13">
      <g>
       <use xlink:href="#m38471e0b30" x="57.6" y="47.423724" style="stroke: #000000; stroke-width: 0.8"/>
      </g>
     </g>
     <g id="text_14">
      <!-- 0.15 -->
      <g transform="translate(28.334375 51.222943) scale(0.1 -0.1)">
       <use xlink:href="#DejaVuSans-30"/>
       <use xlink:href="#DejaVuSans-2e" transform="translate(63.623047 0)"/>
       <use xlink:href="#DejaVuSans-31" transform="translate(95.410156 0)"/>
       <use xlink:href="#DejaVuSans-35" transform="translate(159.033203 0)"/>
      </g>
     </g>
    </g>
    <g id="text_15">
     <!-- Angular momentum [kg m$^2$ s$^{-1}$] -->
     <g transform="translate(13.854687 254.578) rotate(-90) scale(0.1 -0.1)">
      <defs>
       <path id="DejaVuSans-41" d="M 2188 4044  L 1331 1722  L 3047 1722  L 2188 4044  z M 1831 4666  L 2547 4666  L 4325 0  L 3669 0  L 3244 1197  L 1141 1197  L 716 0  L 50 0  L 1831 4666  z " transform="scale(0.015625)"/>
       <path id="DejaVuSans-6e" d="M 3513 2113  L 3513 0  L 2938 0  L 2938 2094  Q 2938 2591 2744 2837  Q 2550 3084 2163 3084  Q 1697 3084 1428 2787  Q 1159 2491 1159 1978  L 1159 0  L 581 0  L 581 3500  L 1159 3500  L 1159 2956  Q 1366 3272 1645 3428  Q 1925 3584 2291 3584  Q 2894 3584 3203 3211  Q 3513 2838 3513 2113  z " transform="scale(0.015625)"/>
       <path id="DejaVuSans-67" d="M 2906 1791  Q 2906 2416 2648 2759  Q 2391 3103 1925 3103  Q 1463 3103 1205 2759  Q 947 2416 947 1791  Q 947 1169 1205 825  Q 1463 481 1925 481  Q 2391 481 2648 825  Q 2906 1169 2906 1791  z M 3481 434  Q 3481 -459 3084 -895  Q 2688 -1331 1869 -1331  Q 1566 -1331 1297 -1286  Q 1028 -1241 775 -1147  L 775 -588  Q 1028 -725 1275 -790  Q 1522 -856 1778 -856  Q 2344 -856 2625 -561  Q 2906 -266 2906 331  L 2906 616  Q 2728 306 2450 153  Q 2172 0 1784 0  Q 1141 0 747 490  Q 353 981 353 1791  Q 353 2603 747 3093  Q 1141 3584 1784 3584  Q 2172 3584 2450 3431  Q 2728 3278 2906 2969  L 2906 3500  L 3481 3500  L 3481 434  z " transform="scale(0.015625)"/>
       <path id="DejaVuSans-75" d="M 544 1381  L 544 3500  L 1119 3500  L 1119 1403  Q 1119 906 1312 657  Q 1506 409 1894 409  Q 2359 409 2629 706  Q 2900 1003 2900 1516  L 2900 3500  L 3475 3500  L 3475 0  L 2900 0  L 2900 538  Q 2691 219 2414 64  Q 2138 -91 1772 -91  Q 1169 -91 856 284  Q 544 659 544 1381  z M 1991 3584  L 1991 3584  z " transform="scale(0.015625)"/>
       <path id="DejaVuSans-6c" d="M 603 4863  L 1178 4863  L 1178 0  L 603 0  L 603 4863  z " transform="scale(0.015625)"/>
       <path id="DejaVuSans-61" d="M 2194 1759  Q 1497 1759 1228 1600  Q 959 1441 959 1056  Q 959 750 1161 570  Q 1363 391 1709 391  Q 2188 391 2477 730  Q 2766 1069 2766 1631  L 2766 1759  L 2194 1759  z M 3341 1997  L 3341 0  L 2766 0  L 2766 531  Q 2569 213 2275 61  Q 1981 -91 1556 -91  Q 1019 -91 701 211  Q 384 513 384 1019  Q 384 1609 779 1909  Q 1175 2209 1959 2209  L 2766 2209  L 2766 2266  Q 2766 2663 2505 2880  Q 2244 3097 1772 3097  Q 1472 3097 1187 3025  Q 903 2953 641 2809  L 641 3341  Q 956 3463 1253 3523  Q 1550 3584 1831 3584  Q 2591 3584 2966 3190  Q 3341 2797 3341 1997  z " transform="scale(0.015625)"/>
       <path id="DejaVuSans-72" d="M 2631 2963  Q 2534 3019 2420 3045  Q 2306 3072 2169 3072  Q 1681 3072 1420 2755  Q 1159 2438 1159 1844  L 1159 0  L 581 0  L 581 3500  L 1159 3500  L 1159 2956  Q 1341 3275 1631 3429  Q 1922 3584 2338 3584  Q 2397 3584 2469 3576  Q 2541 3569 2628 3553  L 2631 2963  z " transform="scale(0.015625)"/>
       <path id="DejaVuSans-6f" d="M 1959 3097  Q 1497 3097 1228 2736  Q 959 2375 959 1747  Q 959 1119 1226 758  Q 1494 397 1959 397  Q 2419 397 2687 759  Q 2956 1122 2956 1747  Q 2956 2369 2687 2733  Q 2419 3097 1959 3097  z M 1959 3584  Q 2709 3584 3137 3096  Q 3566 2609 3566 1747  Q 3566 888 3137 398  Q 2709 -91 1959 -91  Q 1206 -91 779 398  Q 353 888 353 1747  Q 353 2609 779 3096  Q 1206 3584 1959 3584  z " transform="scale(0.015625)"/>
       <path id="DejaVuSans-74" d="M 1172 4494  L 1172 3500  L 2356 3500  L 2356 3053  L 1172 3053  L 1172 1153  Q 1172 725 1289 603  Q 1406 481 1766 481  L 2356 481  L 2356 0  L 1766 0  Q 1100 0 847 248  Q 594 497 594 1153  L 594 3053  L 172 3053  L 172 3500  L 594 3500  L 594 4494  L 1172 4494  z " transform="scale(0.015625)"/>
       <path id="DejaVuSans-6b" d="M 581 4863  L 1159 4863  L 1159 1991  L 2875 3500  L 3609 3500  L 1753 1863  L 3688 0  L 2938 0  L 1159 1709  L 1159 0  L 581 0  L 581 4863  z " transform="scale(0.015625)"/>
      </defs>
      <use xlink:href="#DejaVuSans-41" transform="translate(0 0.765625)"/>
      <use xlink:href="#DejaVuSans-6e" transform="translate(68.408203 0.765625)"/>
      <use xlink:href="#DejaVuSans-67" transform="translate(131.787109 0.765625)"/>
      <use xlink:href="#DejaVuSans-75" transform="translate(195.263672 0.765625)"/>
      <use xlink:href="#DejaVuSans-6c" transform="translate(258.642578 0.765625)"/>
      <use xlink:href="#DejaVuSans-61" transform="translate(286.425781 0.765625)"/>
      <use xlink:href="#DejaVuSans-72" transform="translate(347.705078 0.765625)"/>
      <use xlink:href="#DejaVuSans-20" transform="translate(388.818359 0.765625)"/>
      <use xlink:href="#DejaVuSans-6d" transform="translate(420.605469 0.765625)"/>
      <use xlink:href="#DejaVuSans-6f" transform="translate(518.017578 0.765625)"/>
      <use xlink:href="#DejaVuSans-6d" transform="translate(579.199219 0.765625)"/>
      <use xlink:href="#DejaVuSans-65" transform="translate(676.611328 0.765625)"/>
      <use xlink:href="#DejaVuSans-6e" transform="translate(738.134766 0.765625)"/>
      <use xlink:href="#DejaVuSans-74" transform="translate(801.513672 0.765625)"/>
      <use xlink:href="#DejaVuSans-75" transform="translate(840.722656 0.765625)"/>
      <use xlink:href="#DejaVuSans-6d" transform="translate(904.101562 0.765625)"/>
      <use xlink:href="#DejaVuSans-20" transform="translate(1001.513672 0.765625)"/>
      <use xlink:href="#DejaVuSans-5b" transform="translate(1033.300781 0.765625)"/>
      <use xlink:href="#DejaVuSans-6b" transform="translate(1072.314453 0.765625)"/>
      <use xlink:href="#DejaVuSans-67" transform="translate(1130.224609 0.765625)"/>
      <use xlink:href="#DejaVuSans-20" transform="translate(1193.701172 0.765625)"/>
      <use xlink:href="#DejaVuSans-6d" transform="translate(1225.488281 0.765625)"/>
      <use xlink:href="#DejaVuSans-32" transform="translate(1323.857422 39.046875) scale(0.7)"/>
      <use xlink:href="#DejaVuSans-20" transform="translate(1371.12793 0.765625)"/>
      <use xlink:href="#DejaVuSans-73" transform="translate(1402.915039 0.765625)"/>
      <use xlink:href="#DejaVuSans-2212" transform="translate(1455.97168 39.046875) scale(0.7)"/>
      <use xlink:href="#DejaVuSans-31" transform="translate(1514.624023 39.046875) scale(0.7)"/>
      <use xlink:href="#DejaVuSans-5d" transform="translate(1561.894531 0.765625)"/>
     </g>
    </g>
   </g>
   <g id="line2d_14">
    <path d="M 73.832727 171.594716  L 77.286501 179.03363  L 80.740275 186.38685  L 84.194049 199.734764  L 87.647823 209.974802  L 91.101735 215.429878  L 94.555509 221.993344  L 98.009283 228.635777  L 101.463057 235.059975  L 104.916831 241.482833  L 108.370605 247.867682  L 111.824379 254.150857  L 115.278153 260.16909  L 118.731927 265.985344  L 122.185701 271.539275  L 125.639475 276.598934  L 129.093248 281.266809  L 132.547022 285.396093  L 136.000796 288.896721  L 139.45457 291.729587  L 142.908344 293.781127  L 146.362118 295.03963  L 149.815892 295.488  L 153.269666 295.04195  L 156.72344 293.813315  L 160.177214 291.826262  L 163.630988 289.023751  L 167.084762 285.628299  L 170.538536 281.503184  L 173.99231 276.879431  L 177.446084 271.864723  L 180.899858 266.438328  L 184.353632 260.643176  L 187.807406 254.797953  L 191.26118 248.638145  L 194.714954 242.424688  L 198.168728 236.155266  L 201.622502 229.893972  L 205.076276 223.529018  L 208.53005 217.238459  L 211.983824 211.059229  L 215.437597 204.833762  L 218.891371 198.720371  L 222.345145 192.703491  L 225.798919 186.617809  L 229.252693 180.614725  L 232.706467 174.729348  L 236.160241 168.777221  L 239.614015 162.921198  L 243.067789 157.098462  L 246.521563 151.187573  L 249.975337 145.389526  L 253.429111 139.583333  L 256.882885 133.837687  L 260.336659 128.127088  L 263.790433 122.390897  L 267.244207 116.781283  L 270.697981 111.257344  L 274.151755 105.826253  L 277.605529 100.571866  L 281.059303 95.450674  L 284.513077 90.579741  L 287.966851 85.969523  L 291.420625 81.737965  L 294.874399 77.91878  L 298.328173 74.547974  L 301.781946 71.680951  L 305.23572 69.327264  L 308.689494 67.629953  L 312.143268 66.545085  L 315.597042 66.144457  L 319.050816 66.422566  L 322.50459 67.332121  L 325.958364 68.947747  L 329.412138 71.088112  L 332.865912 73.760809  L 336.319686 77.038117  L 339.77346 80.70851  L 343.227234 84.846782  L 346.681008 89.245777  L 350.134782 93.894536  L 353.588556 98.856201  L 357.04233 103.925003  L 360.496104 109.115383  L 363.949878 114.455226  L 367.403652 119.701288  L 370.857426 124.948031  L 374.3112 130.332586  L 377.764974 135.613665  L 381.218403 140.770153  L 384.672522 145.887479  L 388.125951 150.93663  L 391.579725 155.908566  L 395.033499 160.947099  L 398.487273 165.797387  " clip-path="url(#p8efb61a4e3)" style="fill: none; stroke: #4285f4; stroke-width: 1.5; stroke-linecap: square"/>
   </g>
   <g id="line2d_15">
    <path d="M 73.832727 53.877986  L 77.286501 57.880066  L 80.740275 56.112144  L 84.194049 59.175504  L 87.647823 61.557772  L 91.101735 62.486916  L 94.555509 65.237874  L 98.009283 68.836869  L 101.463057 71.93278  L 104.916831 75.389205  L 108.370605 79.923871  L 111.824379 85.037616  L 115.278153 90.386872  L 118.731927 96.224234  L 122.185701 102.930382  L 125.639475 110.208452  L 129.093248 117.834758  L 132.547022 125.974771  L 136.000796 134.830178  L 139.45457 143.996026  L 142.908344 153.421811  L 146.362118 162.981244  L 149.815892 172.785283  L 153.269666 182.544356  L 156.72344 192.163567  L 160.177214 201.545506  L 163.630988 210.725743  L 167.084762 219.502967  L 170.538536 227.751804  L 173.99231 235.532786  L 177.446084 242.800384  L 180.899858 249.460474  L 184.353632 255.482637  L 187.807406 260.944501  L 191.26118 265.835899  L 194.714954 270.181984  L 198.168728 273.944617  L 201.622502 277.230549  L 205.076276 280.076666  L 208.53005 282.448711  L 211.983824 284.334874  L 215.437597 285.84421  L 218.891371 286.980747  L 222.345145 287.757915  L 225.798919 288.179572  L 229.252693 288.266638  L 232.706467 288.076081  L 236.160241 287.500806  L 239.614015 286.63549  L 243.067789 285.513844  L 246.521563 284.064018  L 249.975337 282.218156  L 253.429111 280.132254  L 256.882885 277.715225  L 260.336659 274.925109  L 263.790433 271.764514  L 267.244207 268.229526  L 270.697981 264.223424  L 274.151755 259.945975  L 277.605529 255.09396  L 281.059303 249.846942  L 284.513077 244.138869  L 287.966851 238.001849  L 291.420625 231.39767  L 294.874399 224.399391  L 298.328173 217.028537  L 301.781946 209.338422  L 305.23572 201.47707  L 308.689494 193.216181  L 312.143268 184.926565  L 315.597042 176.522413  L 319.050816 168.238336  L 322.50459 159.972527  L 325.958364 151.924996  L 329.412138 144.148149  L 332.865912 136.759346  L 336.319686 129.680357  L 339.77346 123.004243  L 343.227234 116.655442  L 346.681008 110.825506  L 350.134782 105.606901  L 353.588556 100.707092  L 357.04233 96.271887  L 360.496104 92.364039  L 363.949878 88.875101  L 367.403652 85.743277  L 370.857426 83.153724  L 374.3112 80.768282  L 377.764974 78.796203  L 381.218403 77.125812  L 384.672522 75.769775  L 388.125951 74.658243  L 391.579725 73.821908  L 395.033499 73.271561  L 398.487273 72.975832  " clip-path="url(#p8efb61a4e3)" style="fill: none; stroke: #ea4335; stroke-width: 1.5; stroke-linecap: square"/>
   </g>
   <g id="line2d_16">
    <path d="M 73.832727 183.969881  L 77.286501 184.625669  L 80.740275 184.261908  L 84.194049 184.561634  L 87.647823 184.687633  L 91.101735 184.792929  L 94.555509 185.030374  L 98.009283 185.199181  L 101.463057 185.43526  L 104.916831 185.700179  L 108.370605 185.946597  L 111.824379 186.208162  L 115.278153 186.493323  L 118.731927 186.794633  L 122.185701 187.060476  L 125.639475 187.311892  L 129.093248 187.577424  L 132.547022 187.814401  L 136.000796 188.009687  L 139.45457 188.168746  L 142.908344 188.300642  L 146.362118 188.391111  L 149.815892 188.427157  L 153.269666 188.414722  L 156.72344 188.369621  L 160.177214 188.278317  L 163.630988 188.140866  L 167.084762 187.964704  L 170.538536 187.765311  L 173.99231 187.539313  L 177.446084 187.288631  L 180.899858 187.027228  L 184.353632 186.763015  L 187.807406 186.494834  L 191.26118 186.224874  L 194.714954 185.961887  L 198.168728 185.713532  L 201.622502 185.480695  L 205.076276 185.255745  L 208.53005 185.058151  L 211.983824 184.882884  L 215.437597 184.736394  L 218.891371 184.606384  L 222.345145 184.508655  L 225.798919 184.438123  L 229.252693 184.390446  L 232.706467 184.364316  L 236.160241 184.369885  L 239.614015 184.395884  L 243.067789 184.442989  L 246.521563 184.514283  L 249.975337 184.600658  L 253.429111 184.711042  L 256.882885 184.837071  L 260.336659 184.981333  L 263.790433 185.148029  L 267.244207 185.334846  L 270.697981 185.538832  L 274.151755 185.757849  L 277.605529 185.979717  L 281.059303 186.192615  L 284.513077 186.404108  L 287.966851 186.607224  L 291.420625 186.805344  L 294.874399 186.983986  L 298.328173 187.146133  L 301.781946 187.288138  L 305.23572 187.396557  L 308.689494 187.466852  L 312.143268 187.50884  L 315.597042 187.507541  L 319.050816 187.463341  L 322.50459 187.396567  L 325.958364 187.299101  L 329.412138 187.156112  L 332.865912 186.995415  L 336.319686 186.809554  L 339.77346 186.593776  L 343.227234 186.367459  L 346.681008 186.124542  L 350.134782 185.880006  L 353.588556 185.623412  L 357.04233 185.372847  L 360.496104 185.121067  L 363.949878 184.885351  L 367.403652 184.639828  L 370.857426 184.42753  L 374.3112 184.215342  L 377.764974 184.030868  L 381.218403 183.861772  L 384.672522 183.711769  L 388.125951 183.574156  L 391.579725 183.460015  L 395.033499 183.368191  L 398.487273 183.294159  " clip-path="url(#p8efb61a4e3)" style="fill: none; stroke: #fbbc04; stroke-width: 1.5; stroke-linecap: square"/>
   </g>
   <g id="line2d_17">
    <path d="M 73.832727 53.568  L 77.286501 57.657933  L 80.740275 55.599098  L 84.194049 56.896641  L 87.647823 56.879929  L 91.101735 56.172957  L 94.555509 56.5058  L 98.009283 57.157405  L 101.463057 56.99627  L 104.916831 56.717844  L 108.370605 56.898149  L 111.824379 57.078604  L 115.278153 57.064642  L 118.731927 56.989399  L 122.185701 57.098523  L 125.639475 57.30759  L 129.093248 57.373695  L 132.547022 57.482596  L 136.000796 57.742489  L 139.45457 57.974733  L 142.908344 58.255086  L 146.362118 58.560145  L 149.815892 58.90579  L 153.269666 59.336812  L 156.72344 59.755077  L 160.177214 60.167932  L 163.630988 60.637991  L 167.084762 61.020268  L 170.538536 61.528679  L 173.99231 61.971015  L 177.446084 62.318606  L 180.899858 62.690577  L 184.353632 63.123521  L 187.807406 63.390602  L 191.26118 63.7368  L 194.714954 64.015082  L 198.168728 64.312095  L 201.622502 64.553056  L 205.076276 64.793412  L 208.53005 65.016884  L 211.983824 65.266613  L 215.437597 65.518555  L 218.891371 65.747256  L 222.345145 65.970313  L 225.798919 66.221109  L 229.252693 66.467869  L 232.706467 66.668935  L 236.160241 66.932964  L 239.614015 67.172266  L 243.067789 67.350442  L 246.521563 67.505064  L 249.975337 67.733025  L 253.429111 67.844225  L 256.882885 67.934502  L 260.336659 68.017027  L 263.790433 68.035602  L 267.244207 68.041887  L 270.697981 68.07112  L 274.151755 67.939043  L 277.605529 67.902829  L 281.059303 67.761521  L 284.513077 67.609698  L 287.966851 67.400533  L 291.420625 67.21633  L 294.874399 67.017361  L 298.328173 66.797282  L 301.781946 66.560791  L 305.23572 66.259475  L 308.689494 66.06408  L 312.143268 65.846709  L 315.597042 65.691086  L 319.050816 65.592653  L 322.50459 65.508603  L 325.958364 65.546421  L 329.412138 65.567241  L 332.865912 65.644677  L 336.319686 65.849765  L 339.77346 66.05113  L 343.227234 66.301687  L 346.681008 66.556688  L 350.134782 66.917691  L 353.588556 67.283329  L 357.04233 67.622816  L 360.496104 68.035849  L 363.949878 68.48945  L 367.403652 68.822881  L 370.857426 69.284076  L 374.3112 69.672962  L 377.764974 70.078583  L 381.218403 70.428261  L 384.672522 70.790929  L 388.125951 71.110102  L 391.579725 71.430395  L 395.033499 71.80263  L 398.487273 72.163455  " clip-path="url(#p8efb61a4e3)" style="fill: none; stroke: #000000; stroke-width: 1.5; stroke-linecap: square"/>
   </g>
   <g id="patch_3">
    <path d="M 57.6 307.584  L 57.6 41.472  " style="fill: none; stroke: #000000; stroke-width: 0.8; stroke-linejoin: miter; stroke-linecap: square"/>
   </g>
   <g id="patch_4">
    <path d="M 414.72 307.584  L 414.72 41.472  " style="fill: none; stroke: #000000; stroke-width: 0.8; stroke-linejoin: miter; stroke-linecap: square"/>
   </g>
   <g id="patch_5">
    <path d="M 57.6 307.584  L 414.72 307.584  " style="fill: none; stroke: #000000; stroke-width: 0.8; stroke-linejoin: miter; stroke-linecap: square"/>
   </g>
   <g id="patch_6">
    <path d="M 57.6 41.472  L 414.72 41.472  " style="fill: none; stroke: #000000; stroke-width: 0.8; stroke-linejoin: miter; stroke-linecap: square"/>
   </g>
   <g id="text_16">
    <!-- Trial 15: Intermediate axis rotation -->
    <g transform="translate(132.362813 35.472) scale(0.12 -0.12)">
     <defs>
      <path id="DejaVuSans-3a" d="M 750 794  L 1409 794  L 1409 0  L 750 0  L 750 794  z M 750 3309  L 1409 3309  L 1409 2516  L 750 2516  L 750 3309  z " transform="scale(0.015625)"/>
      <path id="DejaVuSans-49" d="M 628 4666  L 1259 4666  L 1259 0  L 628 0  L 628 4666  z " transform="scale(0.015625)"/>
      <path id="DejaVuSans-64" d="M 2906 2969  L 2906 4863  L 3481 4863  L 3481 0  L 2906 0  L 2906 525  Q 2725 213 2448 61  Q 2172 -91 1784 -91  Q 1150 -91 751 415  Q 353 922 353 1747  Q 353 2572 751 3078  Q 1150 3584 1784 3584  Q 2172 3584 2448 3432  Q 2725 3281 2906 2969  z M 947 1747  Q 947 1113 1208 752  Q 1469 391 1925 391  Q 2381 391 2643 752  Q 2906 1113 2906 1747  Q 2906 2381 2643 2742  Q 2381 3103 1925 3103  Q 1469 3103 1208 2742  Q 947 2381 947 1747  z " transform="scale(0.015625)"/>
      <path id="DejaVuSans-78" d="M 3513 3500  L 2247 1797  L 3578 0  L 2900 0  L 1881 1375  L 863 0  L 184 0  L 1544 1831  L 300 3500  L 978 3500  L 1906 2253  L 2834 3500  L 3513 3500  z " transform="scale(0.015625)"/>
     </defs>
     <use xlink:href="#DejaVuSans-54"/>
     <use xlink:href="#DejaVuSans-72" transform="translate(46.333984 0)"/>
     <use xlink:href="#DejaVuSans-69" transform="translate(87.447266 0)"/>
     <use xlink:href="#DejaVuSans-61" transform="translate(115.230469 0)"/>
     <use xlink:href="#DejaVuSans-6c" transform="translate(176.509766 0)"/>
     <use xlink:href="#DejaVuSans-20" transform="translate(204.292969 0)"/>
     <use xlink:href="#DejaVuSans-31" transform="translate(236.080078 0)"/>
     <use xlink:href="#DejaVuSans-35" transform="translate(299.703125 0)"/>
     <use xlink:href="#DejaVuSans-3a" transform="translate(363.326172 0)"/>
     <use xlink:href="#DejaVuSans-20" transform="translate(397.017578 0)"/>
     <use xlink:href="#DejaVuSans-49" transform="translate(428.804688 0)"/>
     <use xlink:href="#DejaVuSans-6e" transform="translate(458.296875 0)"/>
     <use xlink:href="#DejaVuSans-74" transform="translate(521.675781 0)"/>
     <use xlink:href="#DejaVuSans-65" transform="translate(560.884766 0)"/>
     <use xlink:href="#DejaVuSans-72" transform="translate(622.408203 0)"/>
     <use xlink:href="#DejaVuSans-6d" transform="translate(661.771484 0)"/>
     <use xlink:href="#DejaVuSans-65" transform="translate(759.183594 0)"/>
     <use xlink:href="#DejaVuSans-64" transform="translate(820.707031 0)"/>
     <use xlink:href="#DejaVuSans-69" transform="translate(884.183594 0)"/>
     <use xlink:href="#DejaVuSans-61" transform="translate(911.966797 0)"/>
     <use xlink:href="#DejaVuSans-74" transform="translate(973.246094 0)"/>
     <use xlink:href="#DejaVuSans-65" transform="translate(1012.455078 0)"/>
     <use xlink:href="#DejaVuSans-20" transform="translate(1073.978516 0)"/>
     <use xlink:href="#DejaVuSans-61" transform="translate(1105.765625 0)"/>
     <use xlink:href="#DejaVuSans-78" transform="translate(1167.044922 0)"/>
     <use xlink:href="#DejaVuSans-69" transform="translate(1226.224609 0)"/>
     <use xlink:href="#DejaVuSans-73" transform="translate(1254.007812 0)"/>
     <use xlink:href="#DejaVuSans-20" transform="translate(1306.107422 0)"/>
     <use xlink:href="#DejaVuSans-72" transform="translate(1337.894531 0)"/>
     <use xlink:href="#DejaVuSans-6f" transform="translate(1376.757812 0)"/>
     <use xlink:href="#DejaVuSans-74" transform="translate(1437.939453 0)"/>
     <use xlink:href="#DejaVuSans-61" transform="translate(1477.148438 0)"/>
     <use xlink:href="#DejaVuSans-74" transform="translate(1538.427734 0)"/>
     <use xlink:href="#DejaVuSans-69" transform="translate(1577.636719 0)"/>
     <use xlink:href="#DejaVuSans-6f" transform="translate(1605.419922 0)"/>
     <use xlink:href="#DejaVuSans-6e" transform="translate(1666.601562 0)"/>
    </g>
   </g>
   <g id="legend_1">
    <g id="patch_7">
     <path d="M 287.27625 302.584  L 407.72 302.584  Q 409.72 302.584 409.72 300.584  L 409.72 242.8715  Q 409.72 240.8715 407.72 240.8715  L 287.27625 240.8715  Q 285.27625 240.8715 285.27625 242.8715  L 285.27625 300.584  Q 285.27625 302.584 287.27625 302.584  z " style="fill: #ffffff; opacity: 0.8; stroke: #cccccc; stroke-linejoin: miter"/>
    </g>
    <g id="line2d_18">
     <path d="M 289.27625 248.969937  L 299.27625 248.969937  L 309.27625 248.969937  " style="fill: none; stroke: #4285f4; stroke-width: 1.5; stroke-linecap: square"/>
    </g>
    <g id="text_17">
     <!-- Primary Axis -->
     <g transform="translate(317.27625 252.469937) scale(0.1 -0.1)">
      <defs>
       <path id="DejaVuSans-50" d="M 1259 4147  L 1259 2394  L 2053 2394  Q 2494 2394 2734 2622  Q 2975 2850 2975 3272  Q 2975 3691 2734 3919  Q 2494 4147 2053 4147  L 1259 4147  z M 628 4666  L 2053 4666  Q 2838 4666 3239 4311  Q 3641 3956 3641 3272  Q 3641 2581 3239 2228  Q 2838 1875 2053 1875  L 1259 1875  L 1259 0  L 628 0  L 628 4666  z " transform="scale(0.015625)"/>
       <path id="DejaVuSans-79" d="M 2059 -325  Q 1816 -950 1584 -1140  Q 1353 -1331 966 -1331  L 506 -1331  L 506 -850  L 844 -850  Q 1081 -850 1212 -737  Q 1344 -625 1503 -206  L 1606 56  L 191 3500  L 800 3500  L 1894 763  L 2988 3500  L 3597 3500  L 2059 -325  z " transform="scale(0.015625)"/>
      </defs>
      <use xlink:href="#DejaVuSans-50"/>
      <use xlink:href="#DejaVuSans-72" transform="translate(58.552734 0)"/>
      <use xlink:href="#DejaVuSans-69" transform="translate(99.666016 0)"/>
      <use xlink:href="#DejaVuSans-6d" transform="translate(127.449219 0)"/>
      <use xlink:href="#DejaVuSans-61" transform="translate(224.861328 0)"/>
      <use xlink:href="#DejaVuSans-72" transform="translate(286.140625 0)"/>
      <use xlink:href="#DejaVuSans-79" transform="translate(327.253906 0)"/>
      <use xlink:href="#DejaVuSans-20" transform="translate(386.433594 0)"/>
      <use xlink:href="#DejaVuSans-41" transform="translate(418.220703 0)"/>
      <use xlink:href="#DejaVuSans-78" transform="translate(486.628906 0)"/>
      <use xlink:href="#DejaVuSans-69" transform="translate(545.808594 0)"/>
      <use xlink:href="#DejaVuSans-73" transform="translate(573.591797 0)"/>
     </g>
    </g>
    <g id="line2d_19">
     <path d="M 289.27625 263.648062  L 299.27625 263.648062  L 309.27625 263.648062  " style="fill: none; stroke: #ea4335; stroke-width: 1.5; stroke-linecap: square"/>
    </g>
    <g id="text_18">
     <!-- Intermediate Axis -->
     <g transform="translate(317.27625 267.148062) scale(0.1 -0.1)">
      <use xlink:href="#DejaVuSans-49"/>
      <use xlink:href="#DejaVuSans-6e" transform="translate(29.492188 0)"/>
      <use xlink:href="#DejaVuSans-74" transform="translate(92.871094 0)"/>
      <use xlink:href="#DejaVuSans-65" transform="translate(132.080078 0)"/>
      <use xlink:href="#DejaVuSans-72" transform="translate(193.603516 0)"/>
      <use xlink:href="#DejaVuSans-6d" transform="translate(232.966797 0)"/>
      <use xlink:href="#DejaVuSans-65" transform="translate(330.378906 0)"/>
      <use xlink:href="#DejaVuSans-64" transform="translate(391.902344 0)"/>
      <use xlink:href="#DejaVuSans-69" transform="translate(455.378906 0)"/>
      <use xlink:href="#DejaVuSans-61" transform="translate(483.162109 0)"/>
      <use xlink:href="#DejaVuSans-74" transform="translate(544.441406 0)"/>
      <use xlink:href="#DejaVuSans-65" transform="translate(583.650391 0)"/>
      <use xlink:href="#DejaVuSans-20" transform="translate(645.173828 0)"/>
      <use xlink:href="#DejaVuSans-41" transform="translate(676.960938 0)"/>
      <use xlink:href="#DejaVuSans-78" transform="translate(745.369141 0)"/>
      <use xlink:href="#DejaVuSans-69" transform="translate(804.548828 0)"/>
      <use xlink:href="#DejaVuSans-73" transform="translate(832.332031 0)"/>
     </g>
    </g>
    <g id="line2d_20">
     <path d="M 289.27625 278.326187  L 299.27625 278.326187  L 309.27625 278.326187  " style="fill: none; stroke: #fbbc04; stroke-width: 1.5; stroke-linecap: square"/>
    </g>
    <g id="text_19">
     <!-- Tertiary Axis -->
     <g transform="translate(317.27625 281.826187) scale(0.1 -0.1)">
      <use xlink:href="#DejaVuSans-54"/>
      <use xlink:href="#DejaVuSans-65" transform="translate(44.083984 0)"/>
      <use xlink:href="#DejaVuSans-72" transform="translate(105.607422 0)"/>
      <use xlink:href="#DejaVuSans-74" transform="translate(146.720703 0)"/>
      <use xlink:href="#DejaVuSans-69" transform="translate(185.929688 0)"/>
      <use xlink:href="#DejaVuSans-61" transform="translate(213.712891 0)"/>
      <use xlink:href="#DejaVuSans-72" transform="translate(274.992188 0)"/>
      <use xlink:href="#DejaVuSans-79" transform="translate(316.105469 0)"/>
      <use xlink:href="#DejaVuSans-20" transform="translate(375.285156 0)"/>
      <use xlink:href="#DejaVuSans-41" transform="translate(407.072266 0)"/>
      <use xlink:href="#DejaVuSans-78" transform="translate(475.480469 0)"/>
      <use xlink:href="#DejaVuSans-69" transform="translate(534.660156 0)"/>
      <use xlink:href="#DejaVuSans-73" transform="translate(562.443359 0)"/>
     </g>
    </g>
    <g id="line2d_21">
     <path d="M 289.27625 293.004312  L 299.27625 293.004312  L 309.27625 293.004312  " style="fill: none; stroke: #000000; stroke-width: 1.5; stroke-linecap: square"/>
    </g>
    <g id="text_20">
     <!-- Absolute -->
     <g transform="translate(317.27625 296.504312) scale(0.1 -0.1)">
      <defs>
       <path id="DejaVuSans-62" d="M 3116 1747  Q 3116 2381 2855 2742  Q 2594 3103 2138 3103  Q 1681 3103 1420 2742  Q 1159 2381 1159 1747  Q 1159 1113 1420 752  Q 1681 391 2138 391  Q 2594 391 2855 752  Q 3116 1113 3116 1747  z M 1159 2969  Q 1341 3281 1617 3432  Q 1894 3584 2278 3584  Q 2916 3584 3314 3078  Q 3713 2572 3713 1747  Q 3713 922 3314 415  Q 2916 -91 2278 -91  Q 1894 -91 1617 61  Q 1341 213 1159 525  L 1159 0  L 581 0  L 581 4863  L 1159 4863  L 1159 2969  z " transform="scale(0.015625)"/>
      </defs>
      <use xlink:href="#DejaVuSans-41"/>
      <use xlink:href="#DejaVuSans-62" transform="translate(68.408203 0)"/>
      <use xlink:href="#DejaVuSans-73" transform="translate(131.884766 0)"/>
      <use xlink:href="#DejaVuSans-6f" transform="translate(183.984375 0)"/>
      <use xlink:href="#DejaVuSans-6c" transform="translate(245.166016 0)"/>
      <use xlink:href="#DejaVuSans-75" transform="translate(272.949219 0)"/>
      <use xlink:href="#DejaVuSans-74" transform="translate(336.328125 0)"/>
      <use xlink:href="#DejaVuSans-65" transform="translate(375.537109 0)"/>
     </g>
    </g>
   </g>
  </g>
 </g>
 <defs>
  <clipPath id="p8efb61a4e3">
   <rect x="57.6" y="41.472" width="357.12" height="266.112"/>
  </clipPath>
 </defs>
</svg>